G04 EAGLE Gerber RS-274X export*
G75*
%MOMM*%
%FSLAX34Y34*%
%LPD*%
%INBottom Copper*%
%IPPOS*%
%AMOC8*
5,1,8,0,0,1.08239X$1,22.5*%
G01*
%ADD10C,1.120000*%
%ADD11R,1.524000X1.524000*%
%ADD12P,1.649562X8X202.500000*%
%ADD13C,1.960000*%
%ADD14C,3.556000*%
%ADD15R,1.428000X1.428000*%
%ADD16C,1.428000*%
%ADD17C,4.445000*%
%ADD18C,0.609600*%
%ADD19C,0.254000*%


D10*
X850900Y616700D03*
X850900Y551700D03*
D11*
X601300Y340100D03*
D12*
X601300Y365500D03*
X575900Y340100D03*
X575900Y365500D03*
X550500Y340100D03*
X550500Y365500D03*
X525100Y340100D03*
X525100Y365500D03*
X499700Y340100D03*
X499700Y365500D03*
X474300Y340100D03*
X474300Y365500D03*
X448900Y340100D03*
X448900Y365500D03*
X423500Y340100D03*
X423500Y365500D03*
X398100Y340100D03*
X398100Y365500D03*
X372700Y340100D03*
X372700Y365500D03*
X347300Y340100D03*
X347300Y365500D03*
X321900Y340100D03*
X321900Y365500D03*
X296500Y340100D03*
X296500Y365500D03*
X271100Y340100D03*
X271100Y365500D03*
X245700Y340100D03*
X245700Y365500D03*
X220300Y340100D03*
X220300Y365500D03*
X194900Y340100D03*
X194900Y365500D03*
X169500Y340100D03*
X169500Y365500D03*
D11*
X601300Y594100D03*
D12*
X601300Y619500D03*
X575900Y594100D03*
X575900Y619500D03*
X550500Y594100D03*
X550500Y619500D03*
X525100Y594100D03*
X525100Y619500D03*
X499700Y594100D03*
X499700Y619500D03*
X474300Y594100D03*
X474300Y619500D03*
X448900Y594100D03*
X448900Y619500D03*
X423500Y594100D03*
X423500Y619500D03*
X398100Y594100D03*
X398100Y619500D03*
X372700Y594100D03*
X372700Y619500D03*
X347300Y594100D03*
X347300Y619500D03*
X321900Y594100D03*
X321900Y619500D03*
X296500Y594100D03*
X296500Y619500D03*
X271100Y594100D03*
X271100Y619500D03*
X245700Y594100D03*
X245700Y619500D03*
X220300Y594100D03*
X220300Y619500D03*
X194900Y594100D03*
X194900Y619500D03*
X169500Y594100D03*
X169500Y619500D03*
D13*
X227600Y126600D03*
X227600Y76600D03*
X102600Y76600D03*
X102600Y126600D03*
D14*
X679450Y232410D03*
X679450Y707390D03*
X107950Y232410D03*
X107950Y707390D03*
D15*
X635000Y228600D03*
D16*
X406400Y228600D03*
X431800Y228600D03*
X457200Y228600D03*
X482600Y228600D03*
X508000Y228600D03*
X533400Y228600D03*
X558800Y228600D03*
X584200Y228600D03*
X609600Y228600D03*
X381000Y228600D03*
X355600Y228600D03*
X330200Y228600D03*
X304800Y228600D03*
X279400Y228600D03*
X254000Y228600D03*
X228600Y228600D03*
X203200Y228600D03*
X177800Y228600D03*
X152400Y228600D03*
X635000Y711200D03*
X609600Y711200D03*
X584200Y711200D03*
X558800Y711200D03*
X533400Y711200D03*
X508000Y711200D03*
X482600Y711200D03*
X457200Y711200D03*
X431800Y711200D03*
X406400Y711200D03*
X381000Y711200D03*
X355600Y711200D03*
X330200Y711200D03*
X304800Y711200D03*
X279400Y711200D03*
X254000Y711200D03*
X228600Y711200D03*
X203200Y711200D03*
X177800Y711200D03*
X152400Y711200D03*
D13*
X331200Y76600D03*
X331200Y126600D03*
X456200Y126600D03*
X456200Y76600D03*
X710200Y126600D03*
X710200Y76600D03*
X585200Y76600D03*
X585200Y126600D03*
X913400Y380600D03*
X913400Y330600D03*
X788400Y330600D03*
X788400Y380600D03*
D17*
X38100Y38100D03*
X38100Y723900D03*
X965200Y723900D03*
X965200Y38100D03*
D18*
X723900Y127000D03*
X241300Y127000D03*
X927100Y381000D03*
X850900Y647700D03*
X317500Y76200D03*
X889000Y63500D03*
X635000Y749300D03*
X279400Y177800D03*
X406400Y177800D03*
X533400Y177800D03*
X774700Y609600D03*
X850900Y520700D03*
D19*
X448900Y594100D02*
X321900Y467100D01*
X321900Y365500D01*
X326316Y640080D02*
X431800Y640080D01*
X307930Y621695D02*
X307930Y614766D01*
X301235Y608070D01*
X266366Y608070D02*
X264836Y609600D01*
X254000Y609600D01*
X266366Y608070D02*
X301235Y608070D01*
X254000Y609600D02*
X245700Y601300D01*
X245700Y594100D01*
X307930Y621695D02*
X326316Y640080D01*
X431800Y640080D02*
X486890Y695170D01*
X518950Y706664D02*
X518950Y712236D01*
X530614Y723900D01*
X546100Y723900D01*
X507456Y695170D02*
X486890Y695170D01*
X507456Y695170D02*
X518950Y706664D01*
X546100Y723900D02*
X558800Y711200D01*
X533400Y673100D02*
X495300Y635000D01*
X533400Y673100D02*
X533400Y711200D01*
X317166Y608070D02*
X316568Y608668D01*
X317166Y608070D02*
X428235Y608070D01*
X316568Y608668D02*
X311068Y608668D01*
X296500Y594100D01*
X428235Y608070D02*
X430782Y610618D01*
X434930Y622300D02*
X447630Y635000D01*
X434930Y622300D02*
X434930Y614766D01*
X430782Y610618D01*
X447630Y635000D02*
X495300Y635000D01*
X498086Y711200D02*
X508000Y711200D01*
X498086Y711200D02*
X487136Y700250D01*
X310286Y700250D01*
X231730Y621695D01*
X240966Y582670D02*
X250435Y582670D01*
X261865Y594100D02*
X271100Y594100D01*
X261865Y594100D02*
X250435Y582670D01*
X240966Y582670D02*
X231730Y591906D01*
X231730Y621695D01*
M02*
