G04 EAGLE Gerber RS-274X export*
G75*
%MOMM*%
%FSLAX34Y34*%
%LPD*%
%INCopper Layer 2*%
%IPPOS*%
%AMOC8*
5,1,8,0,0,1.08239X$1,22.5*%
G01*
%ADD10C,1.120000*%
%ADD11C,1.244600*%
%ADD12C,1.960000*%
%ADD13C,3.556000*%
%ADD14C,1.428000*%
%ADD15C,4.191000*%
%ADD16C,0.254000*%
%ADD17C,0.609600*%

G36*
X1012308Y2556D02*
X1012308Y2556D01*
X1012427Y2563D01*
X1012465Y2576D01*
X1012506Y2581D01*
X1012616Y2624D01*
X1012729Y2661D01*
X1012764Y2683D01*
X1012801Y2698D01*
X1012897Y2767D01*
X1012998Y2831D01*
X1013026Y2861D01*
X1013059Y2884D01*
X1013135Y2976D01*
X1013216Y3063D01*
X1013236Y3098D01*
X1013261Y3129D01*
X1013312Y3237D01*
X1013370Y3341D01*
X1013380Y3381D01*
X1013397Y3417D01*
X1013419Y3534D01*
X1013449Y3649D01*
X1013453Y3709D01*
X1013457Y3729D01*
X1013455Y3750D01*
X1013459Y3810D01*
X1013459Y754890D01*
X1013444Y755008D01*
X1013437Y755127D01*
X1013424Y755165D01*
X1013419Y755206D01*
X1013376Y755316D01*
X1013339Y755429D01*
X1013317Y755464D01*
X1013302Y755501D01*
X1013233Y755597D01*
X1013169Y755698D01*
X1013139Y755726D01*
X1013116Y755759D01*
X1013024Y755835D01*
X1012937Y755916D01*
X1012902Y755936D01*
X1012871Y755961D01*
X1012763Y756012D01*
X1012659Y756070D01*
X1012619Y756080D01*
X1012583Y756097D01*
X1012466Y756119D01*
X1012351Y756149D01*
X1012291Y756153D01*
X1012271Y756157D01*
X1012250Y756155D01*
X1012190Y756159D01*
X3810Y756159D01*
X3692Y756144D01*
X3573Y756137D01*
X3535Y756124D01*
X3494Y756119D01*
X3384Y756076D01*
X3271Y756039D01*
X3236Y756017D01*
X3199Y756002D01*
X3103Y755933D01*
X3002Y755869D01*
X2974Y755839D01*
X2941Y755816D01*
X2865Y755724D01*
X2784Y755637D01*
X2764Y755602D01*
X2739Y755571D01*
X2688Y755463D01*
X2630Y755359D01*
X2620Y755319D01*
X2603Y755283D01*
X2581Y755166D01*
X2551Y755051D01*
X2547Y754991D01*
X2543Y754971D01*
X2545Y754950D01*
X2541Y754890D01*
X2541Y3810D01*
X2556Y3692D01*
X2563Y3573D01*
X2576Y3535D01*
X2581Y3494D01*
X2624Y3384D01*
X2661Y3271D01*
X2683Y3236D01*
X2698Y3199D01*
X2767Y3103D01*
X2831Y3002D01*
X2861Y2974D01*
X2884Y2941D01*
X2976Y2865D01*
X3063Y2784D01*
X3098Y2764D01*
X3129Y2739D01*
X3237Y2688D01*
X3341Y2630D01*
X3381Y2620D01*
X3417Y2603D01*
X3534Y2581D01*
X3649Y2551D01*
X3709Y2547D01*
X3729Y2543D01*
X3750Y2545D01*
X3810Y2541D01*
X1012190Y2541D01*
X1012308Y2556D01*
G37*
%LPC*%
G36*
X960526Y700404D02*
X960526Y700404D01*
X951891Y703981D01*
X945281Y710591D01*
X941704Y719226D01*
X941704Y728574D01*
X945281Y737209D01*
X951891Y743819D01*
X960526Y747396D01*
X969874Y747396D01*
X978509Y743819D01*
X985119Y737209D01*
X988696Y728574D01*
X988696Y719226D01*
X985119Y710591D01*
X978509Y703981D01*
X969874Y700404D01*
X960526Y700404D01*
G37*
%LPD*%
%LPC*%
G36*
X33426Y700404D02*
X33426Y700404D01*
X24791Y703981D01*
X18181Y710591D01*
X14604Y719226D01*
X14604Y728574D01*
X18181Y737209D01*
X24791Y743819D01*
X33426Y747396D01*
X42774Y747396D01*
X51409Y743819D01*
X58019Y737209D01*
X61596Y728574D01*
X61596Y719226D01*
X58019Y710591D01*
X51409Y703981D01*
X42774Y700404D01*
X33426Y700404D01*
G37*
%LPD*%
%LPC*%
G36*
X960526Y14604D02*
X960526Y14604D01*
X951891Y18181D01*
X945281Y24791D01*
X941704Y33426D01*
X941704Y42774D01*
X945281Y51409D01*
X951891Y58019D01*
X960526Y61596D01*
X969874Y61596D01*
X978509Y58019D01*
X985119Y51409D01*
X988696Y42774D01*
X988696Y33426D01*
X985119Y24791D01*
X978509Y18181D01*
X969874Y14604D01*
X960526Y14604D01*
G37*
%LPD*%
%LPC*%
G36*
X33426Y14604D02*
X33426Y14604D01*
X24791Y18181D01*
X18181Y24791D01*
X14604Y33426D01*
X14604Y42774D01*
X18181Y51409D01*
X24791Y58019D01*
X33426Y61596D01*
X42774Y61596D01*
X51409Y58019D01*
X58019Y51409D01*
X61596Y42774D01*
X61596Y33426D01*
X58019Y24791D01*
X51409Y18181D01*
X42774Y14604D01*
X33426Y14604D01*
G37*
%LPD*%
%LPC*%
G36*
X103908Y687069D02*
X103908Y687069D01*
X96439Y690163D01*
X90723Y695879D01*
X87629Y703348D01*
X87629Y711432D01*
X90723Y718901D01*
X96439Y724617D01*
X103908Y727711D01*
X111992Y727711D01*
X119461Y724617D01*
X125177Y718901D01*
X128271Y711432D01*
X128271Y703348D01*
X125177Y695879D01*
X119461Y690163D01*
X111992Y687069D01*
X103908Y687069D01*
G37*
%LPD*%
%LPC*%
G36*
X675408Y212089D02*
X675408Y212089D01*
X667939Y215183D01*
X662223Y220899D01*
X659129Y228368D01*
X659129Y236452D01*
X662223Y243921D01*
X667939Y249637D01*
X675408Y252731D01*
X683492Y252731D01*
X690961Y249637D01*
X696677Y243921D01*
X699771Y236452D01*
X699771Y228368D01*
X696677Y220899D01*
X690961Y215183D01*
X683492Y212089D01*
X675408Y212089D01*
G37*
%LPD*%
%LPC*%
G36*
X103908Y212089D02*
X103908Y212089D01*
X96439Y215183D01*
X90723Y220899D01*
X87629Y228368D01*
X87629Y236452D01*
X90723Y243921D01*
X96439Y249637D01*
X103908Y252731D01*
X111992Y252731D01*
X119461Y249637D01*
X125177Y243921D01*
X128271Y236452D01*
X128271Y228368D01*
X125177Y220899D01*
X119461Y215183D01*
X111992Y212089D01*
X103908Y212089D01*
G37*
%LPD*%
%LPC*%
G36*
X675408Y687069D02*
X675408Y687069D01*
X667939Y690163D01*
X662223Y695879D01*
X659129Y703348D01*
X659129Y711432D01*
X662223Y718901D01*
X667939Y724617D01*
X675408Y727711D01*
X683492Y727711D01*
X690961Y724617D01*
X696677Y718901D01*
X699771Y711432D01*
X699771Y703348D01*
X696677Y695879D01*
X690961Y690163D01*
X683492Y687069D01*
X675408Y687069D01*
G37*
%LPD*%
%LPC*%
G36*
X328745Y114259D02*
X328745Y114259D01*
X324210Y116138D01*
X320738Y119610D01*
X318859Y124145D01*
X318859Y129055D01*
X320738Y133590D01*
X324210Y137062D01*
X328745Y138941D01*
X333655Y138941D01*
X338190Y137062D01*
X341662Y133590D01*
X343541Y129055D01*
X343541Y124145D01*
X341662Y119610D01*
X338190Y116138D01*
X333655Y114259D01*
X328745Y114259D01*
G37*
%LPD*%
%LPC*%
G36*
X785945Y368259D02*
X785945Y368259D01*
X781410Y370138D01*
X777938Y373610D01*
X776059Y378145D01*
X776059Y383055D01*
X777938Y387590D01*
X781410Y391062D01*
X785945Y392941D01*
X790855Y392941D01*
X795390Y391062D01*
X798862Y387590D01*
X800741Y383055D01*
X800741Y378145D01*
X798862Y373610D01*
X795390Y370138D01*
X790855Y368259D01*
X785945Y368259D01*
G37*
%LPD*%
%LPC*%
G36*
X910945Y318259D02*
X910945Y318259D01*
X906410Y320138D01*
X902938Y323610D01*
X901059Y328145D01*
X901059Y333055D01*
X902938Y337590D01*
X906410Y341062D01*
X910945Y342941D01*
X915855Y342941D01*
X920390Y341062D01*
X923862Y337590D01*
X925741Y333055D01*
X925741Y328145D01*
X923862Y323610D01*
X920390Y320138D01*
X915855Y318259D01*
X910945Y318259D01*
G37*
%LPD*%
%LPC*%
G36*
X785945Y318259D02*
X785945Y318259D01*
X781410Y320138D01*
X777938Y323610D01*
X776059Y328145D01*
X776059Y333055D01*
X777938Y337590D01*
X781410Y341062D01*
X785945Y342941D01*
X790855Y342941D01*
X795390Y341062D01*
X798862Y337590D01*
X800741Y333055D01*
X800741Y328145D01*
X798862Y323610D01*
X795390Y320138D01*
X790855Y318259D01*
X785945Y318259D01*
G37*
%LPD*%
%LPC*%
G36*
X582745Y114259D02*
X582745Y114259D01*
X578210Y116138D01*
X574738Y119610D01*
X572859Y124145D01*
X572859Y129055D01*
X574738Y133590D01*
X578210Y137062D01*
X582745Y138941D01*
X587655Y138941D01*
X592190Y137062D01*
X595662Y133590D01*
X597541Y129055D01*
X597541Y124145D01*
X595662Y119610D01*
X592190Y116138D01*
X587655Y114259D01*
X582745Y114259D01*
G37*
%LPD*%
%LPC*%
G36*
X453745Y114259D02*
X453745Y114259D01*
X449210Y116138D01*
X445738Y119610D01*
X443859Y124145D01*
X443859Y129055D01*
X445738Y133590D01*
X449210Y137062D01*
X453745Y138941D01*
X458655Y138941D01*
X463190Y137062D01*
X466662Y133590D01*
X468541Y129055D01*
X468541Y124145D01*
X466662Y119610D01*
X463190Y116138D01*
X458655Y114259D01*
X453745Y114259D01*
G37*
%LPD*%
%LPC*%
G36*
X100145Y114259D02*
X100145Y114259D01*
X95610Y116138D01*
X92138Y119610D01*
X90259Y124145D01*
X90259Y129055D01*
X92138Y133590D01*
X95610Y137062D01*
X100145Y138941D01*
X105055Y138941D01*
X109590Y137062D01*
X113062Y133590D01*
X114941Y129055D01*
X114941Y124145D01*
X113062Y119610D01*
X109590Y116138D01*
X105055Y114259D01*
X100145Y114259D01*
G37*
%LPD*%
%LPC*%
G36*
X707745Y64259D02*
X707745Y64259D01*
X703210Y66138D01*
X699738Y69610D01*
X697859Y74145D01*
X697859Y79055D01*
X699738Y83590D01*
X703210Y87062D01*
X707745Y88941D01*
X712655Y88941D01*
X717190Y87062D01*
X720662Y83590D01*
X722541Y79055D01*
X722541Y74145D01*
X720662Y69610D01*
X717190Y66138D01*
X712655Y64259D01*
X707745Y64259D01*
G37*
%LPD*%
%LPC*%
G36*
X582745Y64259D02*
X582745Y64259D01*
X578210Y66138D01*
X574738Y69610D01*
X572859Y74145D01*
X572859Y79055D01*
X574738Y83590D01*
X578210Y87062D01*
X582745Y88941D01*
X587655Y88941D01*
X592190Y87062D01*
X595662Y83590D01*
X597541Y79055D01*
X597541Y74145D01*
X595662Y69610D01*
X592190Y66138D01*
X587655Y64259D01*
X582745Y64259D01*
G37*
%LPD*%
%LPC*%
G36*
X453745Y64259D02*
X453745Y64259D01*
X449210Y66138D01*
X445738Y69610D01*
X443859Y74145D01*
X443859Y79055D01*
X445738Y83590D01*
X449210Y87062D01*
X453745Y88941D01*
X458655Y88941D01*
X463190Y87062D01*
X466662Y83590D01*
X468541Y79055D01*
X468541Y74145D01*
X466662Y69610D01*
X463190Y66138D01*
X458655Y64259D01*
X453745Y64259D01*
G37*
%LPD*%
%LPC*%
G36*
X225145Y64259D02*
X225145Y64259D01*
X220610Y66138D01*
X217138Y69610D01*
X215259Y74145D01*
X215259Y79055D01*
X217138Y83590D01*
X220610Y87062D01*
X225145Y88941D01*
X230055Y88941D01*
X234590Y87062D01*
X238062Y83590D01*
X239941Y79055D01*
X239941Y74145D01*
X238062Y69610D01*
X234590Y66138D01*
X230055Y64259D01*
X225145Y64259D01*
G37*
%LPD*%
%LPC*%
G36*
X100145Y64259D02*
X100145Y64259D01*
X95610Y66138D01*
X92138Y69610D01*
X90259Y74145D01*
X90259Y79055D01*
X92138Y83590D01*
X95610Y87062D01*
X100145Y88941D01*
X105055Y88941D01*
X109590Y87062D01*
X113062Y83590D01*
X114941Y79055D01*
X114941Y74145D01*
X113062Y69610D01*
X109590Y66138D01*
X105055Y64259D01*
X100145Y64259D01*
G37*
%LPD*%
%LPC*%
G36*
X201274Y701519D02*
X201274Y701519D01*
X197716Y702993D01*
X194993Y705716D01*
X193519Y709274D01*
X193519Y713126D01*
X194993Y716684D01*
X197716Y719407D01*
X201274Y720881D01*
X205126Y720881D01*
X208684Y719407D01*
X211407Y716684D01*
X212881Y713126D01*
X212881Y709274D01*
X211407Y705716D01*
X208684Y702993D01*
X205126Y701519D01*
X201274Y701519D01*
G37*
%LPD*%
%LPC*%
G36*
X175874Y701519D02*
X175874Y701519D01*
X172316Y702993D01*
X169593Y705716D01*
X168119Y709274D01*
X168119Y713126D01*
X169593Y716684D01*
X172316Y719407D01*
X175874Y720881D01*
X179726Y720881D01*
X183284Y719407D01*
X186007Y716684D01*
X187481Y713126D01*
X187481Y709274D01*
X186007Y705716D01*
X183284Y702993D01*
X179726Y701519D01*
X175874Y701519D01*
G37*
%LPD*%
%LPC*%
G36*
X150474Y701519D02*
X150474Y701519D01*
X146916Y702993D01*
X144193Y705716D01*
X142719Y709274D01*
X142719Y713126D01*
X144193Y716684D01*
X146916Y719407D01*
X150474Y720881D01*
X154326Y720881D01*
X157884Y719407D01*
X160607Y716684D01*
X162081Y713126D01*
X162081Y709274D01*
X160607Y705716D01*
X157884Y702993D01*
X154326Y701519D01*
X150474Y701519D01*
G37*
%LPD*%
%LPC*%
G36*
X531474Y701519D02*
X531474Y701519D01*
X527916Y702993D01*
X525193Y705716D01*
X523719Y709274D01*
X523719Y713126D01*
X525193Y716684D01*
X527916Y719407D01*
X531474Y720881D01*
X535326Y720881D01*
X538884Y719407D01*
X541607Y716684D01*
X543081Y713126D01*
X543081Y709274D01*
X541607Y705716D01*
X538884Y702993D01*
X535326Y701519D01*
X531474Y701519D01*
G37*
%LPD*%
%LPC*%
G36*
X226674Y701519D02*
X226674Y701519D01*
X223116Y702993D01*
X220393Y705716D01*
X218919Y709274D01*
X218919Y713126D01*
X220393Y716684D01*
X223116Y719407D01*
X226674Y720881D01*
X230526Y720881D01*
X234084Y719407D01*
X236807Y716684D01*
X238281Y713126D01*
X238281Y709274D01*
X236807Y705716D01*
X234084Y702993D01*
X230526Y701519D01*
X226674Y701519D01*
G37*
%LPD*%
%LPC*%
G36*
X252074Y701519D02*
X252074Y701519D01*
X248516Y702993D01*
X245793Y705716D01*
X244319Y709274D01*
X244319Y713126D01*
X245793Y716684D01*
X248516Y719407D01*
X252074Y720881D01*
X255926Y720881D01*
X259484Y719407D01*
X262207Y716684D01*
X263681Y713126D01*
X263681Y709274D01*
X262207Y705716D01*
X259484Y702993D01*
X255926Y701519D01*
X252074Y701519D01*
G37*
%LPD*%
%LPC*%
G36*
X277474Y701519D02*
X277474Y701519D01*
X273916Y702993D01*
X271193Y705716D01*
X269719Y709274D01*
X269719Y713126D01*
X271193Y716684D01*
X273916Y719407D01*
X277474Y720881D01*
X281326Y720881D01*
X284884Y719407D01*
X287607Y716684D01*
X289081Y713126D01*
X289081Y709274D01*
X287607Y705716D01*
X284884Y702993D01*
X281326Y701519D01*
X277474Y701519D01*
G37*
%LPD*%
%LPC*%
G36*
X302874Y701519D02*
X302874Y701519D01*
X299316Y702993D01*
X296593Y705716D01*
X295119Y709274D01*
X295119Y713126D01*
X296593Y716684D01*
X299316Y719407D01*
X302874Y720881D01*
X306726Y720881D01*
X310284Y719407D01*
X313007Y716684D01*
X314481Y713126D01*
X314481Y709274D01*
X313007Y705716D01*
X310284Y702993D01*
X306726Y701519D01*
X302874Y701519D01*
G37*
%LPD*%
%LPC*%
G36*
X328274Y701519D02*
X328274Y701519D01*
X324716Y702993D01*
X321993Y705716D01*
X320519Y709274D01*
X320519Y713126D01*
X321993Y716684D01*
X324716Y719407D01*
X328274Y720881D01*
X332126Y720881D01*
X335684Y719407D01*
X338407Y716684D01*
X339881Y713126D01*
X339881Y709274D01*
X338407Y705716D01*
X335684Y702993D01*
X332126Y701519D01*
X328274Y701519D01*
G37*
%LPD*%
%LPC*%
G36*
X353674Y701519D02*
X353674Y701519D01*
X350116Y702993D01*
X347393Y705716D01*
X345919Y709274D01*
X345919Y713126D01*
X347393Y716684D01*
X350116Y719407D01*
X353674Y720881D01*
X357526Y720881D01*
X361084Y719407D01*
X363807Y716684D01*
X365281Y713126D01*
X365281Y709274D01*
X363807Y705716D01*
X361084Y702993D01*
X357526Y701519D01*
X353674Y701519D01*
G37*
%LPD*%
%LPC*%
G36*
X506074Y701519D02*
X506074Y701519D01*
X502516Y702993D01*
X499793Y705716D01*
X498319Y709274D01*
X498319Y713126D01*
X499793Y716684D01*
X502516Y719407D01*
X506074Y720881D01*
X509926Y720881D01*
X513484Y719407D01*
X516207Y716684D01*
X517681Y713126D01*
X517681Y709274D01*
X516207Y705716D01*
X513484Y702993D01*
X509926Y701519D01*
X506074Y701519D01*
G37*
%LPD*%
%LPC*%
G36*
X379074Y701519D02*
X379074Y701519D01*
X375516Y702993D01*
X372793Y705716D01*
X371319Y709274D01*
X371319Y713126D01*
X372793Y716684D01*
X375516Y719407D01*
X379074Y720881D01*
X382926Y720881D01*
X386484Y719407D01*
X389207Y716684D01*
X390681Y713126D01*
X390681Y709274D01*
X389207Y705716D01*
X386484Y702993D01*
X382926Y701519D01*
X379074Y701519D01*
G37*
%LPD*%
%LPC*%
G36*
X404474Y701519D02*
X404474Y701519D01*
X400916Y702993D01*
X398193Y705716D01*
X396719Y709274D01*
X396719Y713126D01*
X398193Y716684D01*
X400916Y719407D01*
X404474Y720881D01*
X408326Y720881D01*
X411884Y719407D01*
X414607Y716684D01*
X416081Y713126D01*
X416081Y709274D01*
X414607Y705716D01*
X411884Y702993D01*
X408326Y701519D01*
X404474Y701519D01*
G37*
%LPD*%
%LPC*%
G36*
X150474Y218919D02*
X150474Y218919D01*
X146916Y220393D01*
X144193Y223116D01*
X142719Y226674D01*
X142719Y230526D01*
X144193Y234084D01*
X146916Y236807D01*
X150474Y238281D01*
X154326Y238281D01*
X157884Y236807D01*
X160607Y234084D01*
X162081Y230526D01*
X162081Y226674D01*
X160607Y223116D01*
X157884Y220393D01*
X154326Y218919D01*
X150474Y218919D01*
G37*
%LPD*%
%LPC*%
G36*
X480674Y701519D02*
X480674Y701519D01*
X477116Y702993D01*
X474393Y705716D01*
X472919Y709274D01*
X472919Y713126D01*
X474393Y716684D01*
X477116Y719407D01*
X480674Y720881D01*
X484526Y720881D01*
X488084Y719407D01*
X490807Y716684D01*
X492281Y713126D01*
X492281Y709274D01*
X490807Y705716D01*
X488084Y702993D01*
X484526Y701519D01*
X480674Y701519D01*
G37*
%LPD*%
%LPC*%
G36*
X201274Y218919D02*
X201274Y218919D01*
X197716Y220393D01*
X194993Y223116D01*
X193519Y226674D01*
X193519Y230526D01*
X194993Y234084D01*
X197716Y236807D01*
X201274Y238281D01*
X205126Y238281D01*
X208684Y236807D01*
X211407Y234084D01*
X212881Y230526D01*
X212881Y226674D01*
X211407Y223116D01*
X208684Y220393D01*
X205126Y218919D01*
X201274Y218919D01*
G37*
%LPD*%
%LPC*%
G36*
X226674Y218919D02*
X226674Y218919D01*
X223116Y220393D01*
X220393Y223116D01*
X218919Y226674D01*
X218919Y230526D01*
X220393Y234084D01*
X223116Y236807D01*
X226674Y238281D01*
X230526Y238281D01*
X234084Y236807D01*
X236807Y234084D01*
X238281Y230526D01*
X238281Y226674D01*
X236807Y223116D01*
X234084Y220393D01*
X230526Y218919D01*
X226674Y218919D01*
G37*
%LPD*%
%LPC*%
G36*
X252074Y218919D02*
X252074Y218919D01*
X248516Y220393D01*
X245793Y223116D01*
X244319Y226674D01*
X244319Y230526D01*
X245793Y234084D01*
X248516Y236807D01*
X252074Y238281D01*
X255926Y238281D01*
X259484Y236807D01*
X262207Y234084D01*
X263681Y230526D01*
X263681Y226674D01*
X262207Y223116D01*
X259484Y220393D01*
X255926Y218919D01*
X252074Y218919D01*
G37*
%LPD*%
%LPC*%
G36*
X277474Y218919D02*
X277474Y218919D01*
X273916Y220393D01*
X271193Y223116D01*
X269719Y226674D01*
X269719Y230526D01*
X271193Y234084D01*
X273916Y236807D01*
X277474Y238281D01*
X281326Y238281D01*
X284884Y236807D01*
X287607Y234084D01*
X289081Y230526D01*
X289081Y226674D01*
X287607Y223116D01*
X284884Y220393D01*
X281326Y218919D01*
X277474Y218919D01*
G37*
%LPD*%
%LPC*%
G36*
X302874Y218919D02*
X302874Y218919D01*
X299316Y220393D01*
X296593Y223116D01*
X295119Y226674D01*
X295119Y230526D01*
X296593Y234084D01*
X299316Y236807D01*
X302874Y238281D01*
X306726Y238281D01*
X310284Y236807D01*
X313007Y234084D01*
X314481Y230526D01*
X314481Y226674D01*
X313007Y223116D01*
X310284Y220393D01*
X306726Y218919D01*
X302874Y218919D01*
G37*
%LPD*%
%LPC*%
G36*
X328274Y218919D02*
X328274Y218919D01*
X324716Y220393D01*
X321993Y223116D01*
X320519Y226674D01*
X320519Y230526D01*
X321993Y234084D01*
X324716Y236807D01*
X328274Y238281D01*
X332126Y238281D01*
X335684Y236807D01*
X338407Y234084D01*
X339881Y230526D01*
X339881Y226674D01*
X338407Y223116D01*
X335684Y220393D01*
X332126Y218919D01*
X328274Y218919D01*
G37*
%LPD*%
%LPC*%
G36*
X353674Y218919D02*
X353674Y218919D01*
X350116Y220393D01*
X347393Y223116D01*
X345919Y226674D01*
X345919Y230526D01*
X347393Y234084D01*
X350116Y236807D01*
X353674Y238281D01*
X357526Y238281D01*
X361084Y236807D01*
X363807Y234084D01*
X365281Y230526D01*
X365281Y226674D01*
X363807Y223116D01*
X361084Y220393D01*
X357526Y218919D01*
X353674Y218919D01*
G37*
%LPD*%
%LPC*%
G36*
X379074Y218919D02*
X379074Y218919D01*
X375516Y220393D01*
X372793Y223116D01*
X371319Y226674D01*
X371319Y230526D01*
X372793Y234084D01*
X375516Y236807D01*
X379074Y238281D01*
X382926Y238281D01*
X386484Y236807D01*
X389207Y234084D01*
X390681Y230526D01*
X390681Y226674D01*
X389207Y223116D01*
X386484Y220393D01*
X382926Y218919D01*
X379074Y218919D01*
G37*
%LPD*%
%LPC*%
G36*
X404474Y218919D02*
X404474Y218919D01*
X400916Y220393D01*
X398193Y223116D01*
X396719Y226674D01*
X396719Y230526D01*
X398193Y234084D01*
X400916Y236807D01*
X404474Y238281D01*
X408326Y238281D01*
X411884Y236807D01*
X414607Y234084D01*
X416081Y230526D01*
X416081Y226674D01*
X414607Y223116D01*
X411884Y220393D01*
X408326Y218919D01*
X404474Y218919D01*
G37*
%LPD*%
%LPC*%
G36*
X429874Y218919D02*
X429874Y218919D01*
X426316Y220393D01*
X423593Y223116D01*
X422119Y226674D01*
X422119Y230526D01*
X423593Y234084D01*
X426316Y236807D01*
X429874Y238281D01*
X433726Y238281D01*
X437284Y236807D01*
X440007Y234084D01*
X441481Y230526D01*
X441481Y226674D01*
X440007Y223116D01*
X437284Y220393D01*
X433726Y218919D01*
X429874Y218919D01*
G37*
%LPD*%
%LPC*%
G36*
X455274Y218919D02*
X455274Y218919D01*
X451716Y220393D01*
X448993Y223116D01*
X447519Y226674D01*
X447519Y230526D01*
X448993Y234084D01*
X451716Y236807D01*
X455274Y238281D01*
X459126Y238281D01*
X462684Y236807D01*
X465407Y234084D01*
X466881Y230526D01*
X466881Y226674D01*
X465407Y223116D01*
X462684Y220393D01*
X459126Y218919D01*
X455274Y218919D01*
G37*
%LPD*%
%LPC*%
G36*
X480674Y218919D02*
X480674Y218919D01*
X477116Y220393D01*
X474393Y223116D01*
X472919Y226674D01*
X472919Y230526D01*
X474393Y234084D01*
X477116Y236807D01*
X480674Y238281D01*
X484526Y238281D01*
X488084Y236807D01*
X490807Y234084D01*
X492281Y230526D01*
X492281Y226674D01*
X490807Y223116D01*
X488084Y220393D01*
X484526Y218919D01*
X480674Y218919D01*
G37*
%LPD*%
%LPC*%
G36*
X506074Y218919D02*
X506074Y218919D01*
X502516Y220393D01*
X499793Y223116D01*
X498319Y226674D01*
X498319Y230526D01*
X499793Y234084D01*
X502516Y236807D01*
X506074Y238281D01*
X509926Y238281D01*
X513484Y236807D01*
X516207Y234084D01*
X517681Y230526D01*
X517681Y226674D01*
X516207Y223116D01*
X513484Y220393D01*
X509926Y218919D01*
X506074Y218919D01*
G37*
%LPD*%
%LPC*%
G36*
X531474Y218919D02*
X531474Y218919D01*
X527916Y220393D01*
X525193Y223116D01*
X523719Y226674D01*
X523719Y230526D01*
X525193Y234084D01*
X527916Y236807D01*
X531474Y238281D01*
X535326Y238281D01*
X538884Y236807D01*
X541607Y234084D01*
X543081Y230526D01*
X543081Y226674D01*
X541607Y223116D01*
X538884Y220393D01*
X535326Y218919D01*
X531474Y218919D01*
G37*
%LPD*%
%LPC*%
G36*
X556874Y218919D02*
X556874Y218919D01*
X553316Y220393D01*
X550593Y223116D01*
X549119Y226674D01*
X549119Y230526D01*
X550593Y234084D01*
X553316Y236807D01*
X556874Y238281D01*
X560726Y238281D01*
X564284Y236807D01*
X567007Y234084D01*
X568481Y230526D01*
X568481Y226674D01*
X567007Y223116D01*
X564284Y220393D01*
X560726Y218919D01*
X556874Y218919D01*
G37*
%LPD*%
%LPC*%
G36*
X582274Y218919D02*
X582274Y218919D01*
X578716Y220393D01*
X575993Y223116D01*
X574519Y226674D01*
X574519Y230526D01*
X575993Y234084D01*
X578716Y236807D01*
X582274Y238281D01*
X586126Y238281D01*
X589684Y236807D01*
X592407Y234084D01*
X593881Y230526D01*
X593881Y226674D01*
X592407Y223116D01*
X589684Y220393D01*
X586126Y218919D01*
X582274Y218919D01*
G37*
%LPD*%
%LPC*%
G36*
X607674Y218919D02*
X607674Y218919D01*
X604116Y220393D01*
X601393Y223116D01*
X599919Y226674D01*
X599919Y230526D01*
X601393Y234084D01*
X604116Y236807D01*
X607674Y238281D01*
X611526Y238281D01*
X615084Y236807D01*
X617807Y234084D01*
X619281Y230526D01*
X619281Y226674D01*
X617807Y223116D01*
X615084Y220393D01*
X611526Y218919D01*
X607674Y218919D01*
G37*
%LPD*%
%LPC*%
G36*
X633074Y218919D02*
X633074Y218919D01*
X629516Y220393D01*
X626793Y223116D01*
X625319Y226674D01*
X625319Y230526D01*
X626793Y234084D01*
X629516Y236807D01*
X633074Y238281D01*
X636926Y238281D01*
X640484Y236807D01*
X643207Y234084D01*
X644681Y230526D01*
X644681Y226674D01*
X643207Y223116D01*
X640484Y220393D01*
X636926Y218919D01*
X633074Y218919D01*
G37*
%LPD*%
%LPC*%
G36*
X556874Y701519D02*
X556874Y701519D01*
X553316Y702993D01*
X550593Y705716D01*
X549119Y709274D01*
X549119Y713126D01*
X550593Y716684D01*
X553316Y719407D01*
X556874Y720881D01*
X560726Y720881D01*
X564284Y719407D01*
X567007Y716684D01*
X568481Y713126D01*
X568481Y709274D01*
X567007Y705716D01*
X564284Y702993D01*
X560726Y701519D01*
X556874Y701519D01*
G37*
%LPD*%
%LPC*%
G36*
X582274Y701519D02*
X582274Y701519D01*
X578716Y702993D01*
X575993Y705716D01*
X574519Y709274D01*
X574519Y713126D01*
X575993Y716684D01*
X578716Y719407D01*
X582274Y720881D01*
X586126Y720881D01*
X589684Y719407D01*
X592407Y716684D01*
X593881Y713126D01*
X593881Y709274D01*
X592407Y705716D01*
X589684Y702993D01*
X586126Y701519D01*
X582274Y701519D01*
G37*
%LPD*%
%LPC*%
G36*
X429874Y701519D02*
X429874Y701519D01*
X426316Y702993D01*
X423593Y705716D01*
X422119Y709274D01*
X422119Y713126D01*
X423593Y716684D01*
X426316Y719407D01*
X429874Y720881D01*
X433726Y720881D01*
X437284Y719407D01*
X440007Y716684D01*
X441481Y713126D01*
X441481Y709274D01*
X440007Y705716D01*
X437284Y702993D01*
X433726Y701519D01*
X429874Y701519D01*
G37*
%LPD*%
%LPC*%
G36*
X455274Y701519D02*
X455274Y701519D01*
X451716Y702993D01*
X448993Y705716D01*
X447519Y709274D01*
X447519Y713126D01*
X448993Y716684D01*
X451716Y719407D01*
X455274Y720881D01*
X459126Y720881D01*
X462684Y719407D01*
X465407Y716684D01*
X466881Y713126D01*
X466881Y709274D01*
X465407Y705716D01*
X462684Y702993D01*
X459126Y701519D01*
X455274Y701519D01*
G37*
%LPD*%
%LPC*%
G36*
X607674Y701519D02*
X607674Y701519D01*
X604116Y702993D01*
X601393Y705716D01*
X599919Y709274D01*
X599919Y713126D01*
X601393Y716684D01*
X604116Y719407D01*
X607674Y720881D01*
X611526Y720881D01*
X615084Y719407D01*
X617807Y716684D01*
X619281Y713126D01*
X619281Y709274D01*
X617807Y705716D01*
X615084Y702993D01*
X611526Y701519D01*
X607674Y701519D01*
G37*
%LPD*%
%LPC*%
G36*
X175874Y218919D02*
X175874Y218919D01*
X172316Y220393D01*
X169593Y223116D01*
X168119Y226674D01*
X168119Y230526D01*
X169593Y234084D01*
X172316Y236807D01*
X175874Y238281D01*
X179726Y238281D01*
X183284Y236807D01*
X186007Y234084D01*
X187481Y230526D01*
X187481Y226674D01*
X186007Y223116D01*
X183284Y220393D01*
X179726Y218919D01*
X175874Y218919D01*
G37*
%LPD*%
%LPC*%
G36*
X447157Y585336D02*
X447157Y585336D01*
X443936Y586670D01*
X441470Y589136D01*
X440136Y592357D01*
X440136Y595843D01*
X441470Y599064D01*
X443936Y601530D01*
X447157Y602864D01*
X450643Y602864D01*
X453864Y601530D01*
X456330Y599064D01*
X457664Y595843D01*
X457664Y592357D01*
X456330Y589136D01*
X453864Y586670D01*
X450643Y585336D01*
X447157Y585336D01*
G37*
%LPD*%
%LPC*%
G36*
X396357Y585336D02*
X396357Y585336D01*
X393136Y586670D01*
X390670Y589136D01*
X389336Y592357D01*
X389336Y595843D01*
X390670Y599064D01*
X393136Y601530D01*
X396357Y602864D01*
X399843Y602864D01*
X403064Y601530D01*
X405530Y599064D01*
X406864Y595843D01*
X406864Y592357D01*
X405530Y589136D01*
X403064Y586670D01*
X399843Y585336D01*
X396357Y585336D01*
G37*
%LPD*%
%LPC*%
G36*
X370957Y585336D02*
X370957Y585336D01*
X367736Y586670D01*
X365270Y589136D01*
X363936Y592357D01*
X363936Y595843D01*
X365270Y599064D01*
X367736Y601530D01*
X370957Y602864D01*
X374443Y602864D01*
X377664Y601530D01*
X380130Y599064D01*
X381464Y595843D01*
X381464Y592357D01*
X380130Y589136D01*
X377664Y586670D01*
X374443Y585336D01*
X370957Y585336D01*
G37*
%LPD*%
%LPC*%
G36*
X320157Y585336D02*
X320157Y585336D01*
X316936Y586670D01*
X314470Y589136D01*
X313136Y592357D01*
X313136Y595843D01*
X314470Y599064D01*
X316936Y601530D01*
X320157Y602864D01*
X323643Y602864D01*
X326864Y601530D01*
X329330Y599064D01*
X330664Y595843D01*
X330664Y592357D01*
X329330Y589136D01*
X326864Y586670D01*
X323643Y585336D01*
X320157Y585336D01*
G37*
%LPD*%
%LPC*%
G36*
X294757Y585336D02*
X294757Y585336D01*
X291536Y586670D01*
X289070Y589136D01*
X287736Y592357D01*
X287736Y595843D01*
X289070Y599064D01*
X291536Y601530D01*
X294757Y602864D01*
X298243Y602864D01*
X301464Y601530D01*
X303930Y599064D01*
X305264Y595843D01*
X305264Y592357D01*
X303930Y589136D01*
X301464Y586670D01*
X298243Y585336D01*
X294757Y585336D01*
G37*
%LPD*%
%LPC*%
G36*
X269357Y585336D02*
X269357Y585336D01*
X266136Y586670D01*
X263670Y589136D01*
X262336Y592357D01*
X262336Y595843D01*
X263670Y599064D01*
X266136Y601530D01*
X269357Y602864D01*
X272843Y602864D01*
X276064Y601530D01*
X278530Y599064D01*
X279864Y595843D01*
X279864Y592357D01*
X278530Y589136D01*
X276064Y586670D01*
X272843Y585336D01*
X269357Y585336D01*
G37*
%LPD*%
%LPC*%
G36*
X243957Y585336D02*
X243957Y585336D01*
X240736Y586670D01*
X238270Y589136D01*
X236936Y592357D01*
X236936Y595843D01*
X238270Y599064D01*
X240736Y601530D01*
X243957Y602864D01*
X247443Y602864D01*
X250664Y601530D01*
X253130Y599064D01*
X254464Y595843D01*
X254464Y592357D01*
X253130Y589136D01*
X250664Y586670D01*
X247443Y585336D01*
X243957Y585336D01*
G37*
%LPD*%
%LPC*%
G36*
X218557Y585336D02*
X218557Y585336D01*
X215336Y586670D01*
X212870Y589136D01*
X211536Y592357D01*
X211536Y595843D01*
X212870Y599064D01*
X215336Y601530D01*
X218557Y602864D01*
X222043Y602864D01*
X225264Y601530D01*
X227730Y599064D01*
X229064Y595843D01*
X229064Y592357D01*
X227730Y589136D01*
X225264Y586670D01*
X222043Y585336D01*
X218557Y585336D01*
G37*
%LPD*%
%LPC*%
G36*
X396357Y356736D02*
X396357Y356736D01*
X393136Y358070D01*
X390670Y360536D01*
X389336Y363757D01*
X389336Y367243D01*
X390670Y370464D01*
X393136Y372930D01*
X396357Y374264D01*
X399843Y374264D01*
X403064Y372930D01*
X405530Y370464D01*
X406864Y367243D01*
X406864Y363757D01*
X405530Y360536D01*
X403064Y358070D01*
X399843Y356736D01*
X396357Y356736D01*
G37*
%LPD*%
%LPC*%
G36*
X345557Y610736D02*
X345557Y610736D01*
X342336Y612070D01*
X339870Y614536D01*
X338536Y617757D01*
X338536Y621243D01*
X339870Y624464D01*
X342336Y626930D01*
X345557Y628264D01*
X349043Y628264D01*
X352264Y626930D01*
X354730Y624464D01*
X356064Y621243D01*
X356064Y617757D01*
X354730Y614536D01*
X352264Y612070D01*
X349043Y610736D01*
X345557Y610736D01*
G37*
%LPD*%
%LPC*%
G36*
X320157Y610736D02*
X320157Y610736D01*
X316936Y612070D01*
X314470Y614536D01*
X313136Y617757D01*
X313136Y621243D01*
X314470Y624464D01*
X316936Y626930D01*
X320157Y628264D01*
X323643Y628264D01*
X326864Y626930D01*
X329330Y624464D01*
X330664Y621243D01*
X330664Y617757D01*
X329330Y614536D01*
X326864Y612070D01*
X323643Y610736D01*
X320157Y610736D01*
G37*
%LPD*%
%LPC*%
G36*
X599557Y610736D02*
X599557Y610736D01*
X596336Y612070D01*
X593870Y614536D01*
X592536Y617757D01*
X592536Y621243D01*
X593870Y624464D01*
X596336Y626930D01*
X599557Y628264D01*
X603043Y628264D01*
X606264Y626930D01*
X608730Y624464D01*
X610064Y621243D01*
X610064Y617757D01*
X608730Y614536D01*
X606264Y612070D01*
X603043Y610736D01*
X599557Y610736D01*
G37*
%LPD*%
%LPC*%
G36*
X574157Y610736D02*
X574157Y610736D01*
X570936Y612070D01*
X568470Y614536D01*
X567136Y617757D01*
X567136Y621243D01*
X568470Y624464D01*
X570936Y626930D01*
X574157Y628264D01*
X577643Y628264D01*
X580864Y626930D01*
X583330Y624464D01*
X584664Y621243D01*
X584664Y617757D01*
X583330Y614536D01*
X580864Y612070D01*
X577643Y610736D01*
X574157Y610736D01*
G37*
%LPD*%
%LPC*%
G36*
X548757Y610736D02*
X548757Y610736D01*
X545536Y612070D01*
X543070Y614536D01*
X541736Y617757D01*
X541736Y621243D01*
X543070Y624464D01*
X545536Y626930D01*
X548757Y628264D01*
X552243Y628264D01*
X555464Y626930D01*
X557930Y624464D01*
X559264Y621243D01*
X559264Y617757D01*
X557930Y614536D01*
X555464Y612070D01*
X552243Y610736D01*
X548757Y610736D01*
G37*
%LPD*%
%LPC*%
G36*
X523357Y610736D02*
X523357Y610736D01*
X520136Y612070D01*
X517670Y614536D01*
X516336Y617757D01*
X516336Y621243D01*
X517670Y624464D01*
X520136Y626930D01*
X523357Y628264D01*
X526843Y628264D01*
X530064Y626930D01*
X532530Y624464D01*
X533864Y621243D01*
X533864Y617757D01*
X532530Y614536D01*
X530064Y612070D01*
X526843Y610736D01*
X523357Y610736D01*
G37*
%LPD*%
%LPC*%
G36*
X497957Y610736D02*
X497957Y610736D01*
X494736Y612070D01*
X492270Y614536D01*
X490936Y617757D01*
X490936Y621243D01*
X492270Y624464D01*
X494736Y626930D01*
X497957Y628264D01*
X501443Y628264D01*
X504664Y626930D01*
X507130Y624464D01*
X508464Y621243D01*
X508464Y617757D01*
X507130Y614536D01*
X504664Y612070D01*
X501443Y610736D01*
X497957Y610736D01*
G37*
%LPD*%
%LPC*%
G36*
X472557Y610736D02*
X472557Y610736D01*
X469336Y612070D01*
X466870Y614536D01*
X465536Y617757D01*
X465536Y621243D01*
X466870Y624464D01*
X469336Y626930D01*
X472557Y628264D01*
X476043Y628264D01*
X479264Y626930D01*
X481730Y624464D01*
X483064Y621243D01*
X483064Y617757D01*
X481730Y614536D01*
X479264Y612070D01*
X476043Y610736D01*
X472557Y610736D01*
G37*
%LPD*%
%LPC*%
G36*
X447157Y610736D02*
X447157Y610736D01*
X443936Y612070D01*
X441470Y614536D01*
X440136Y617757D01*
X440136Y621243D01*
X441470Y624464D01*
X443936Y626930D01*
X447157Y628264D01*
X450643Y628264D01*
X453864Y626930D01*
X456330Y624464D01*
X457664Y621243D01*
X457664Y617757D01*
X456330Y614536D01*
X453864Y612070D01*
X450643Y610736D01*
X447157Y610736D01*
G37*
%LPD*%
%LPC*%
G36*
X472557Y585336D02*
X472557Y585336D01*
X469336Y586670D01*
X466870Y589136D01*
X465536Y592357D01*
X465536Y595843D01*
X466870Y599064D01*
X469336Y601530D01*
X472557Y602864D01*
X476043Y602864D01*
X479264Y601530D01*
X481730Y599064D01*
X483064Y595843D01*
X483064Y592357D01*
X481730Y589136D01*
X479264Y586670D01*
X476043Y585336D01*
X472557Y585336D01*
G37*
%LPD*%
%LPC*%
G36*
X421757Y610736D02*
X421757Y610736D01*
X418536Y612070D01*
X416070Y614536D01*
X414736Y617757D01*
X414736Y621243D01*
X416070Y624464D01*
X418536Y626930D01*
X421757Y628264D01*
X425243Y628264D01*
X428464Y626930D01*
X430930Y624464D01*
X432264Y621243D01*
X432264Y617757D01*
X430930Y614536D01*
X428464Y612070D01*
X425243Y610736D01*
X421757Y610736D01*
G37*
%LPD*%
%LPC*%
G36*
X396357Y610736D02*
X396357Y610736D01*
X393136Y612070D01*
X390670Y614536D01*
X389336Y617757D01*
X389336Y621243D01*
X390670Y624464D01*
X393136Y626930D01*
X396357Y628264D01*
X399843Y628264D01*
X403064Y626930D01*
X405530Y624464D01*
X406864Y621243D01*
X406864Y617757D01*
X405530Y614536D01*
X403064Y612070D01*
X399843Y610736D01*
X396357Y610736D01*
G37*
%LPD*%
%LPC*%
G36*
X370957Y610736D02*
X370957Y610736D01*
X367736Y612070D01*
X365270Y614536D01*
X363936Y617757D01*
X363936Y621243D01*
X365270Y624464D01*
X367736Y626930D01*
X370957Y628264D01*
X374443Y628264D01*
X377664Y626930D01*
X380130Y624464D01*
X381464Y621243D01*
X381464Y617757D01*
X380130Y614536D01*
X377664Y612070D01*
X374443Y610736D01*
X370957Y610736D01*
G37*
%LPD*%
%LPC*%
G36*
X294757Y610736D02*
X294757Y610736D01*
X291536Y612070D01*
X289070Y614536D01*
X287736Y617757D01*
X287736Y621243D01*
X289070Y624464D01*
X291536Y626930D01*
X294757Y628264D01*
X298243Y628264D01*
X301464Y626930D01*
X303930Y624464D01*
X305264Y621243D01*
X305264Y617757D01*
X303930Y614536D01*
X301464Y612070D01*
X298243Y610736D01*
X294757Y610736D01*
G37*
%LPD*%
%LPC*%
G36*
X269357Y610736D02*
X269357Y610736D01*
X266136Y612070D01*
X263670Y614536D01*
X262336Y617757D01*
X262336Y621243D01*
X263670Y624464D01*
X266136Y626930D01*
X269357Y628264D01*
X272843Y628264D01*
X276064Y626930D01*
X278530Y624464D01*
X279864Y621243D01*
X279864Y617757D01*
X278530Y614536D01*
X276064Y612070D01*
X272843Y610736D01*
X269357Y610736D01*
G37*
%LPD*%
%LPC*%
G36*
X472557Y356736D02*
X472557Y356736D01*
X469336Y358070D01*
X466870Y360536D01*
X465536Y363757D01*
X465536Y367243D01*
X466870Y370464D01*
X469336Y372930D01*
X472557Y374264D01*
X476043Y374264D01*
X479264Y372930D01*
X481730Y370464D01*
X483064Y367243D01*
X483064Y363757D01*
X481730Y360536D01*
X479264Y358070D01*
X476043Y356736D01*
X472557Y356736D01*
G37*
%LPD*%
%LPC*%
G36*
X447157Y356736D02*
X447157Y356736D01*
X443936Y358070D01*
X441470Y360536D01*
X440136Y363757D01*
X440136Y367243D01*
X441470Y370464D01*
X443936Y372930D01*
X447157Y374264D01*
X450643Y374264D01*
X453864Y372930D01*
X456330Y370464D01*
X457664Y367243D01*
X457664Y363757D01*
X456330Y360536D01*
X453864Y358070D01*
X450643Y356736D01*
X447157Y356736D01*
G37*
%LPD*%
%LPC*%
G36*
X599557Y356736D02*
X599557Y356736D01*
X596336Y358070D01*
X593870Y360536D01*
X592536Y363757D01*
X592536Y367243D01*
X593870Y370464D01*
X596336Y372930D01*
X599557Y374264D01*
X603043Y374264D01*
X606264Y372930D01*
X608730Y370464D01*
X610064Y367243D01*
X610064Y363757D01*
X608730Y360536D01*
X606264Y358070D01*
X603043Y356736D01*
X599557Y356736D01*
G37*
%LPD*%
%LPC*%
G36*
X574157Y356736D02*
X574157Y356736D01*
X570936Y358070D01*
X568470Y360536D01*
X567136Y363757D01*
X567136Y367243D01*
X568470Y370464D01*
X570936Y372930D01*
X574157Y374264D01*
X577643Y374264D01*
X580864Y372930D01*
X583330Y370464D01*
X584664Y367243D01*
X584664Y363757D01*
X583330Y360536D01*
X580864Y358070D01*
X577643Y356736D01*
X574157Y356736D01*
G37*
%LPD*%
%LPC*%
G36*
X548757Y356736D02*
X548757Y356736D01*
X545536Y358070D01*
X543070Y360536D01*
X541736Y363757D01*
X541736Y367243D01*
X543070Y370464D01*
X545536Y372930D01*
X548757Y374264D01*
X552243Y374264D01*
X555464Y372930D01*
X557930Y370464D01*
X559264Y367243D01*
X559264Y363757D01*
X557930Y360536D01*
X555464Y358070D01*
X552243Y356736D01*
X548757Y356736D01*
G37*
%LPD*%
%LPC*%
G36*
X523357Y356736D02*
X523357Y356736D01*
X520136Y358070D01*
X517670Y360536D01*
X516336Y363757D01*
X516336Y367243D01*
X517670Y370464D01*
X520136Y372930D01*
X523357Y374264D01*
X526843Y374264D01*
X530064Y372930D01*
X532530Y370464D01*
X533864Y367243D01*
X533864Y363757D01*
X532530Y360536D01*
X530064Y358070D01*
X526843Y356736D01*
X523357Y356736D01*
G37*
%LPD*%
%LPC*%
G36*
X497957Y356736D02*
X497957Y356736D01*
X494736Y358070D01*
X492270Y360536D01*
X490936Y363757D01*
X490936Y367243D01*
X492270Y370464D01*
X494736Y372930D01*
X497957Y374264D01*
X501443Y374264D01*
X504664Y372930D01*
X507130Y370464D01*
X508464Y367243D01*
X508464Y363757D01*
X507130Y360536D01*
X504664Y358070D01*
X501443Y356736D01*
X497957Y356736D01*
G37*
%LPD*%
%LPC*%
G36*
X167757Y585336D02*
X167757Y585336D01*
X164536Y586670D01*
X162070Y589136D01*
X160736Y592357D01*
X160736Y595843D01*
X162070Y599064D01*
X164536Y601530D01*
X167757Y602864D01*
X171243Y602864D01*
X174464Y601530D01*
X176930Y599064D01*
X178264Y595843D01*
X178264Y592357D01*
X176930Y589136D01*
X174464Y586670D01*
X171243Y585336D01*
X167757Y585336D01*
G37*
%LPD*%
%LPC*%
G36*
X370957Y356736D02*
X370957Y356736D01*
X367736Y358070D01*
X365270Y360536D01*
X363936Y363757D01*
X363936Y367243D01*
X365270Y370464D01*
X367736Y372930D01*
X370957Y374264D01*
X374443Y374264D01*
X377664Y372930D01*
X380130Y370464D01*
X381464Y367243D01*
X381464Y363757D01*
X380130Y360536D01*
X377664Y358070D01*
X374443Y356736D01*
X370957Y356736D01*
G37*
%LPD*%
%LPC*%
G36*
X320157Y356736D02*
X320157Y356736D01*
X316936Y358070D01*
X314470Y360536D01*
X313136Y363757D01*
X313136Y367243D01*
X314470Y370464D01*
X316936Y372930D01*
X320157Y374264D01*
X323643Y374264D01*
X326864Y372930D01*
X329330Y370464D01*
X330664Y367243D01*
X330664Y363757D01*
X329330Y360536D01*
X326864Y358070D01*
X323643Y356736D01*
X320157Y356736D01*
G37*
%LPD*%
%LPC*%
G36*
X294757Y356736D02*
X294757Y356736D01*
X291536Y358070D01*
X289070Y360536D01*
X287736Y363757D01*
X287736Y367243D01*
X289070Y370464D01*
X291536Y372930D01*
X294757Y374264D01*
X298243Y374264D01*
X301464Y372930D01*
X303930Y370464D01*
X305264Y367243D01*
X305264Y363757D01*
X303930Y360536D01*
X301464Y358070D01*
X298243Y356736D01*
X294757Y356736D01*
G37*
%LPD*%
%LPC*%
G36*
X269357Y356736D02*
X269357Y356736D01*
X266136Y358070D01*
X263670Y360536D01*
X262336Y363757D01*
X262336Y367243D01*
X263670Y370464D01*
X266136Y372930D01*
X269357Y374264D01*
X272843Y374264D01*
X276064Y372930D01*
X278530Y370464D01*
X279864Y367243D01*
X279864Y363757D01*
X278530Y360536D01*
X276064Y358070D01*
X272843Y356736D01*
X269357Y356736D01*
G37*
%LPD*%
%LPC*%
G36*
X243957Y356736D02*
X243957Y356736D01*
X240736Y358070D01*
X238270Y360536D01*
X236936Y363757D01*
X236936Y367243D01*
X238270Y370464D01*
X240736Y372930D01*
X243957Y374264D01*
X247443Y374264D01*
X250664Y372930D01*
X253130Y370464D01*
X254464Y367243D01*
X254464Y363757D01*
X253130Y360536D01*
X250664Y358070D01*
X247443Y356736D01*
X243957Y356736D01*
G37*
%LPD*%
%LPC*%
G36*
X218557Y356736D02*
X218557Y356736D01*
X215336Y358070D01*
X212870Y360536D01*
X211536Y363757D01*
X211536Y367243D01*
X212870Y370464D01*
X215336Y372930D01*
X218557Y374264D01*
X222043Y374264D01*
X225264Y372930D01*
X227730Y370464D01*
X229064Y367243D01*
X229064Y363757D01*
X227730Y360536D01*
X225264Y358070D01*
X222043Y356736D01*
X218557Y356736D01*
G37*
%LPD*%
%LPC*%
G36*
X193157Y356736D02*
X193157Y356736D01*
X189936Y358070D01*
X187470Y360536D01*
X186136Y363757D01*
X186136Y367243D01*
X187470Y370464D01*
X189936Y372930D01*
X193157Y374264D01*
X196643Y374264D01*
X199864Y372930D01*
X202330Y370464D01*
X203664Y367243D01*
X203664Y363757D01*
X202330Y360536D01*
X199864Y358070D01*
X196643Y356736D01*
X193157Y356736D01*
G37*
%LPD*%
%LPC*%
G36*
X167757Y356736D02*
X167757Y356736D01*
X164536Y358070D01*
X162070Y360536D01*
X160736Y363757D01*
X160736Y367243D01*
X162070Y370464D01*
X164536Y372930D01*
X167757Y374264D01*
X171243Y374264D01*
X174464Y372930D01*
X176930Y370464D01*
X178264Y367243D01*
X178264Y363757D01*
X176930Y360536D01*
X174464Y358070D01*
X171243Y356736D01*
X167757Y356736D01*
G37*
%LPD*%
%LPC*%
G36*
X243957Y610736D02*
X243957Y610736D01*
X240736Y612070D01*
X238270Y614536D01*
X236936Y617757D01*
X236936Y621243D01*
X238270Y624464D01*
X240736Y626930D01*
X243957Y628264D01*
X247443Y628264D01*
X250664Y626930D01*
X253130Y624464D01*
X254464Y621243D01*
X254464Y617757D01*
X253130Y614536D01*
X250664Y612070D01*
X247443Y610736D01*
X243957Y610736D01*
G37*
%LPD*%
%LPC*%
G36*
X218557Y610736D02*
X218557Y610736D01*
X215336Y612070D01*
X212870Y614536D01*
X211536Y617757D01*
X211536Y621243D01*
X212870Y624464D01*
X215336Y626930D01*
X218557Y628264D01*
X222043Y628264D01*
X225264Y626930D01*
X227730Y624464D01*
X229064Y621243D01*
X229064Y617757D01*
X227730Y614536D01*
X225264Y612070D01*
X222043Y610736D01*
X218557Y610736D01*
G37*
%LPD*%
%LPC*%
G36*
X193157Y610736D02*
X193157Y610736D01*
X189936Y612070D01*
X187470Y614536D01*
X186136Y617757D01*
X186136Y621243D01*
X187470Y624464D01*
X189936Y626930D01*
X193157Y628264D01*
X196643Y628264D01*
X199864Y626930D01*
X202330Y624464D01*
X203664Y621243D01*
X203664Y617757D01*
X202330Y614536D01*
X199864Y612070D01*
X196643Y610736D01*
X193157Y610736D01*
G37*
%LPD*%
%LPC*%
G36*
X167757Y610736D02*
X167757Y610736D01*
X164536Y612070D01*
X162070Y614536D01*
X160736Y617757D01*
X160736Y621243D01*
X162070Y624464D01*
X164536Y626930D01*
X167757Y628264D01*
X171243Y628264D01*
X174464Y626930D01*
X176930Y624464D01*
X178264Y621243D01*
X178264Y617757D01*
X176930Y614536D01*
X174464Y612070D01*
X171243Y610736D01*
X167757Y610736D01*
G37*
%LPD*%
%LPC*%
G36*
X523357Y585336D02*
X523357Y585336D01*
X520136Y586670D01*
X517670Y589136D01*
X516336Y592357D01*
X516336Y595843D01*
X517670Y599064D01*
X520136Y601530D01*
X523357Y602864D01*
X526843Y602864D01*
X530064Y601530D01*
X532530Y599064D01*
X533864Y595843D01*
X533864Y592357D01*
X532530Y589136D01*
X530064Y586670D01*
X526843Y585336D01*
X523357Y585336D01*
G37*
%LPD*%
%LPC*%
G36*
X497957Y585336D02*
X497957Y585336D01*
X494736Y586670D01*
X492270Y589136D01*
X490936Y592357D01*
X490936Y595843D01*
X492270Y599064D01*
X494736Y601530D01*
X497957Y602864D01*
X501443Y602864D01*
X504664Y601530D01*
X507130Y599064D01*
X508464Y595843D01*
X508464Y592357D01*
X507130Y589136D01*
X504664Y586670D01*
X501443Y585336D01*
X497957Y585336D01*
G37*
%LPD*%
%LPC*%
G36*
X599557Y585336D02*
X599557Y585336D01*
X596336Y586670D01*
X593870Y589136D01*
X592536Y592357D01*
X592536Y595843D01*
X593870Y599064D01*
X596336Y601530D01*
X599557Y602864D01*
X603043Y602864D01*
X606264Y601530D01*
X608730Y599064D01*
X610064Y595843D01*
X610064Y592357D01*
X608730Y589136D01*
X606264Y586670D01*
X603043Y585336D01*
X599557Y585336D01*
G37*
%LPD*%
%LPC*%
G36*
X574157Y585336D02*
X574157Y585336D01*
X570936Y586670D01*
X568470Y589136D01*
X567136Y592357D01*
X567136Y595843D01*
X568470Y599064D01*
X570936Y601530D01*
X574157Y602864D01*
X577643Y602864D01*
X580864Y601530D01*
X583330Y599064D01*
X584664Y595843D01*
X584664Y592357D01*
X583330Y589136D01*
X580864Y586670D01*
X577643Y585336D01*
X574157Y585336D01*
G37*
%LPD*%
%LPC*%
G36*
X599557Y331336D02*
X599557Y331336D01*
X596336Y332670D01*
X593870Y335136D01*
X592536Y338357D01*
X592536Y341843D01*
X593870Y345064D01*
X596336Y347530D01*
X599557Y348864D01*
X603043Y348864D01*
X606264Y347530D01*
X608730Y345064D01*
X610064Y341843D01*
X610064Y338357D01*
X608730Y335136D01*
X606264Y332670D01*
X603043Y331336D01*
X599557Y331336D01*
G37*
%LPD*%
%LPC*%
G36*
X574157Y331336D02*
X574157Y331336D01*
X570936Y332670D01*
X568470Y335136D01*
X567136Y338357D01*
X567136Y341843D01*
X568470Y345064D01*
X570936Y347530D01*
X574157Y348864D01*
X577643Y348864D01*
X580864Y347530D01*
X583330Y345064D01*
X584664Y341843D01*
X584664Y338357D01*
X583330Y335136D01*
X580864Y332670D01*
X577643Y331336D01*
X574157Y331336D01*
G37*
%LPD*%
%LPC*%
G36*
X548757Y331336D02*
X548757Y331336D01*
X545536Y332670D01*
X543070Y335136D01*
X541736Y338357D01*
X541736Y341843D01*
X543070Y345064D01*
X545536Y347530D01*
X548757Y348864D01*
X552243Y348864D01*
X555464Y347530D01*
X557930Y345064D01*
X559264Y341843D01*
X559264Y338357D01*
X557930Y335136D01*
X555464Y332670D01*
X552243Y331336D01*
X548757Y331336D01*
G37*
%LPD*%
%LPC*%
G36*
X523357Y331336D02*
X523357Y331336D01*
X520136Y332670D01*
X517670Y335136D01*
X516336Y338357D01*
X516336Y341843D01*
X517670Y345064D01*
X520136Y347530D01*
X523357Y348864D01*
X526843Y348864D01*
X530064Y347530D01*
X532530Y345064D01*
X533864Y341843D01*
X533864Y338357D01*
X532530Y335136D01*
X530064Y332670D01*
X526843Y331336D01*
X523357Y331336D01*
G37*
%LPD*%
%LPC*%
G36*
X497957Y331336D02*
X497957Y331336D01*
X494736Y332670D01*
X492270Y335136D01*
X490936Y338357D01*
X490936Y341843D01*
X492270Y345064D01*
X494736Y347530D01*
X497957Y348864D01*
X501443Y348864D01*
X504664Y347530D01*
X507130Y345064D01*
X508464Y341843D01*
X508464Y338357D01*
X507130Y335136D01*
X504664Y332670D01*
X501443Y331336D01*
X497957Y331336D01*
G37*
%LPD*%
%LPC*%
G36*
X472557Y331336D02*
X472557Y331336D01*
X469336Y332670D01*
X466870Y335136D01*
X465536Y338357D01*
X465536Y341843D01*
X466870Y345064D01*
X469336Y347530D01*
X472557Y348864D01*
X476043Y348864D01*
X479264Y347530D01*
X481730Y345064D01*
X483064Y341843D01*
X483064Y338357D01*
X481730Y335136D01*
X479264Y332670D01*
X476043Y331336D01*
X472557Y331336D01*
G37*
%LPD*%
%LPC*%
G36*
X447157Y331336D02*
X447157Y331336D01*
X443936Y332670D01*
X441470Y335136D01*
X440136Y338357D01*
X440136Y341843D01*
X441470Y345064D01*
X443936Y347530D01*
X447157Y348864D01*
X450643Y348864D01*
X453864Y347530D01*
X456330Y345064D01*
X457664Y341843D01*
X457664Y338357D01*
X456330Y335136D01*
X453864Y332670D01*
X450643Y331336D01*
X447157Y331336D01*
G37*
%LPD*%
%LPC*%
G36*
X396357Y331336D02*
X396357Y331336D01*
X393136Y332670D01*
X390670Y335136D01*
X389336Y338357D01*
X389336Y341843D01*
X390670Y345064D01*
X393136Y347530D01*
X396357Y348864D01*
X399843Y348864D01*
X403064Y347530D01*
X405530Y345064D01*
X406864Y341843D01*
X406864Y338357D01*
X405530Y335136D01*
X403064Y332670D01*
X399843Y331336D01*
X396357Y331336D01*
G37*
%LPD*%
%LPC*%
G36*
X370957Y331336D02*
X370957Y331336D01*
X367736Y332670D01*
X365270Y335136D01*
X363936Y338357D01*
X363936Y341843D01*
X365270Y345064D01*
X367736Y347530D01*
X370957Y348864D01*
X374443Y348864D01*
X377664Y347530D01*
X380130Y345064D01*
X381464Y341843D01*
X381464Y338357D01*
X380130Y335136D01*
X377664Y332670D01*
X374443Y331336D01*
X370957Y331336D01*
G37*
%LPD*%
%LPC*%
G36*
X345557Y331336D02*
X345557Y331336D01*
X342336Y332670D01*
X339870Y335136D01*
X338536Y338357D01*
X338536Y341843D01*
X339870Y345064D01*
X342336Y347530D01*
X345557Y348864D01*
X349043Y348864D01*
X352264Y347530D01*
X354730Y345064D01*
X356064Y341843D01*
X356064Y338357D01*
X354730Y335136D01*
X352264Y332670D01*
X349043Y331336D01*
X345557Y331336D01*
G37*
%LPD*%
%LPC*%
G36*
X320157Y331336D02*
X320157Y331336D01*
X316936Y332670D01*
X314470Y335136D01*
X313136Y338357D01*
X313136Y341843D01*
X314470Y345064D01*
X316936Y347530D01*
X320157Y348864D01*
X323643Y348864D01*
X326864Y347530D01*
X329330Y345064D01*
X330664Y341843D01*
X330664Y338357D01*
X329330Y335136D01*
X326864Y332670D01*
X323643Y331336D01*
X320157Y331336D01*
G37*
%LPD*%
%LPC*%
G36*
X294757Y331336D02*
X294757Y331336D01*
X291536Y332670D01*
X289070Y335136D01*
X287736Y338357D01*
X287736Y341843D01*
X289070Y345064D01*
X291536Y347530D01*
X294757Y348864D01*
X298243Y348864D01*
X301464Y347530D01*
X303930Y345064D01*
X305264Y341843D01*
X305264Y338357D01*
X303930Y335136D01*
X301464Y332670D01*
X298243Y331336D01*
X294757Y331336D01*
G37*
%LPD*%
%LPC*%
G36*
X269357Y331336D02*
X269357Y331336D01*
X266136Y332670D01*
X263670Y335136D01*
X262336Y338357D01*
X262336Y341843D01*
X263670Y345064D01*
X266136Y347530D01*
X269357Y348864D01*
X272843Y348864D01*
X276064Y347530D01*
X278530Y345064D01*
X279864Y341843D01*
X279864Y338357D01*
X278530Y335136D01*
X276064Y332670D01*
X272843Y331336D01*
X269357Y331336D01*
G37*
%LPD*%
%LPC*%
G36*
X243957Y331336D02*
X243957Y331336D01*
X240736Y332670D01*
X238270Y335136D01*
X236936Y338357D01*
X236936Y341843D01*
X238270Y345064D01*
X240736Y347530D01*
X243957Y348864D01*
X247443Y348864D01*
X250664Y347530D01*
X253130Y345064D01*
X254464Y341843D01*
X254464Y338357D01*
X253130Y335136D01*
X250664Y332670D01*
X247443Y331336D01*
X243957Y331336D01*
G37*
%LPD*%
%LPC*%
G36*
X218557Y331336D02*
X218557Y331336D01*
X215336Y332670D01*
X212870Y335136D01*
X211536Y338357D01*
X211536Y341843D01*
X212870Y345064D01*
X215336Y347530D01*
X218557Y348864D01*
X222043Y348864D01*
X225264Y347530D01*
X227730Y345064D01*
X229064Y341843D01*
X229064Y338357D01*
X227730Y335136D01*
X225264Y332670D01*
X222043Y331336D01*
X218557Y331336D01*
G37*
%LPD*%
%LPC*%
G36*
X193157Y331336D02*
X193157Y331336D01*
X189936Y332670D01*
X187470Y335136D01*
X186136Y338357D01*
X186136Y341843D01*
X187470Y345064D01*
X189936Y347530D01*
X193157Y348864D01*
X196643Y348864D01*
X199864Y347530D01*
X202330Y345064D01*
X203664Y341843D01*
X203664Y338357D01*
X202330Y335136D01*
X199864Y332670D01*
X196643Y331336D01*
X193157Y331336D01*
G37*
%LPD*%
%LPC*%
G36*
X167757Y331336D02*
X167757Y331336D01*
X164536Y332670D01*
X162070Y335136D01*
X160736Y338357D01*
X160736Y341843D01*
X162070Y345064D01*
X164536Y347530D01*
X167757Y348864D01*
X171243Y348864D01*
X174464Y347530D01*
X176930Y345064D01*
X178264Y341843D01*
X178264Y338357D01*
X176930Y335136D01*
X174464Y332670D01*
X171243Y331336D01*
X167757Y331336D01*
G37*
%LPD*%
%LPC*%
G36*
X548757Y585336D02*
X548757Y585336D01*
X545536Y586670D01*
X543070Y589136D01*
X541736Y592357D01*
X541736Y595843D01*
X543070Y599064D01*
X545536Y601530D01*
X548757Y602864D01*
X552243Y602864D01*
X555464Y601530D01*
X557930Y599064D01*
X559264Y595843D01*
X559264Y592357D01*
X557930Y589136D01*
X555464Y586670D01*
X552243Y585336D01*
X548757Y585336D01*
G37*
%LPD*%
%LPC*%
G36*
X193157Y585336D02*
X193157Y585336D01*
X189936Y586670D01*
X187470Y589136D01*
X186136Y592357D01*
X186136Y595843D01*
X187470Y599064D01*
X189936Y601530D01*
X193157Y602864D01*
X196643Y602864D01*
X199864Y601530D01*
X202330Y599064D01*
X203664Y595843D01*
X203664Y592357D01*
X202330Y589136D01*
X199864Y586670D01*
X196643Y585336D01*
X193157Y585336D01*
G37*
%LPD*%
%LPC*%
G36*
X849281Y543559D02*
X849281Y543559D01*
X846289Y544799D01*
X843999Y547089D01*
X842759Y550081D01*
X842759Y553319D01*
X843999Y556311D01*
X846289Y558601D01*
X849281Y559841D01*
X852519Y559841D01*
X855511Y558601D01*
X857801Y556311D01*
X859041Y553319D01*
X859041Y550081D01*
X857801Y547089D01*
X855511Y544799D01*
X852519Y543559D01*
X849281Y543559D01*
G37*
%LPD*%
%LPC*%
G36*
X405288Y172211D02*
X405288Y172211D01*
X403234Y173062D01*
X401662Y174634D01*
X400811Y176688D01*
X400811Y178912D01*
X401662Y180966D01*
X403234Y182538D01*
X405288Y183389D01*
X407512Y183389D01*
X409566Y182538D01*
X411138Y180966D01*
X411989Y178912D01*
X411989Y176688D01*
X411138Y174634D01*
X409566Y173062D01*
X407512Y172211D01*
X405288Y172211D01*
G37*
%LPD*%
%LPC*%
G36*
X849788Y515111D02*
X849788Y515111D01*
X847734Y515962D01*
X846162Y517534D01*
X845311Y519588D01*
X845311Y521812D01*
X846162Y523866D01*
X847734Y525438D01*
X849788Y526289D01*
X852012Y526289D01*
X854066Y525438D01*
X855638Y523866D01*
X856489Y521812D01*
X856489Y519588D01*
X855638Y517534D01*
X854066Y515962D01*
X852012Y515111D01*
X849788Y515111D01*
G37*
%LPD*%
%LPC*%
G36*
X532288Y172211D02*
X532288Y172211D01*
X530234Y173062D01*
X528662Y174634D01*
X527811Y176688D01*
X527811Y178912D01*
X528662Y180966D01*
X530234Y182538D01*
X532288Y183389D01*
X534512Y183389D01*
X536566Y182538D01*
X538138Y180966D01*
X538989Y178912D01*
X538989Y176688D01*
X538138Y174634D01*
X536566Y173062D01*
X534512Y172211D01*
X532288Y172211D01*
G37*
%LPD*%
%LPC*%
G36*
X773588Y604011D02*
X773588Y604011D01*
X771534Y604862D01*
X769962Y606434D01*
X769111Y608488D01*
X769111Y610712D01*
X769962Y612766D01*
X771534Y614338D01*
X773588Y615189D01*
X775812Y615189D01*
X777866Y614338D01*
X779438Y612766D01*
X780289Y610712D01*
X780289Y608488D01*
X779438Y606434D01*
X777866Y604862D01*
X775812Y604011D01*
X773588Y604011D01*
G37*
%LPD*%
%LPC*%
G36*
X278288Y172211D02*
X278288Y172211D01*
X276234Y173062D01*
X274662Y174634D01*
X273811Y176688D01*
X273811Y178912D01*
X274662Y180966D01*
X276234Y182538D01*
X278288Y183389D01*
X280512Y183389D01*
X282566Y182538D01*
X284138Y180966D01*
X284989Y178912D01*
X284989Y176688D01*
X284138Y174634D01*
X282566Y173062D01*
X280512Y172211D01*
X278288Y172211D01*
G37*
%LPD*%
%LPC*%
G36*
X333739Y79139D02*
X333739Y79139D01*
X333739Y88692D01*
X334090Y88637D01*
X335937Y88037D01*
X337668Y87155D01*
X338494Y86554D01*
X339239Y86013D01*
X340613Y84639D01*
X341755Y83068D01*
X342637Y81337D01*
X343237Y79490D01*
X343292Y79139D01*
X333739Y79139D01*
G37*
%LPD*%
%LPC*%
G36*
X915939Y383139D02*
X915939Y383139D01*
X915939Y392692D01*
X916290Y392637D01*
X918137Y392037D01*
X919868Y391155D01*
X921439Y390013D01*
X922813Y388639D01*
X923955Y387068D01*
X924837Y385337D01*
X925437Y383490D01*
X925492Y383139D01*
X915939Y383139D01*
G37*
%LPD*%
%LPC*%
G36*
X230139Y129139D02*
X230139Y129139D01*
X230139Y138692D01*
X230490Y138637D01*
X232337Y138037D01*
X234068Y137155D01*
X235639Y136013D01*
X237013Y134639D01*
X238155Y133068D01*
X239037Y131337D01*
X239637Y129490D01*
X239692Y129139D01*
X230139Y129139D01*
G37*
%LPD*%
%LPC*%
G36*
X712739Y129139D02*
X712739Y129139D01*
X712739Y138692D01*
X713090Y138637D01*
X714937Y138037D01*
X716668Y137155D01*
X718239Y136013D01*
X719613Y134639D01*
X720755Y133068D01*
X721637Y131337D01*
X722237Y129490D01*
X722292Y129139D01*
X712739Y129139D01*
G37*
%LPD*%
%LPC*%
G36*
X712739Y124061D02*
X712739Y124061D01*
X722292Y124061D01*
X722237Y123710D01*
X721637Y121863D01*
X720755Y120132D01*
X719613Y118561D01*
X718239Y117187D01*
X716668Y116045D01*
X714937Y115163D01*
X713090Y114563D01*
X712739Y114508D01*
X712739Y124061D01*
G37*
%LPD*%
%LPC*%
G36*
X230139Y124061D02*
X230139Y124061D01*
X239692Y124061D01*
X239637Y123710D01*
X239037Y121863D01*
X238155Y120132D01*
X237013Y118561D01*
X235639Y117187D01*
X234068Y116045D01*
X232337Y115163D01*
X230490Y114563D01*
X230139Y114508D01*
X230139Y124061D01*
G37*
%LPD*%
%LPC*%
G36*
X333739Y74061D02*
X333739Y74061D01*
X343292Y74061D01*
X343237Y73710D01*
X342637Y71863D01*
X341755Y70132D01*
X340613Y68561D01*
X339239Y67187D01*
X337668Y66045D01*
X335937Y65163D01*
X334090Y64563D01*
X333739Y64508D01*
X333739Y74061D01*
G37*
%LPD*%
%LPC*%
G36*
X319108Y79139D02*
X319108Y79139D01*
X319163Y79490D01*
X319763Y81337D01*
X320645Y83068D01*
X321787Y84639D01*
X323161Y86013D01*
X324732Y87155D01*
X326463Y88037D01*
X328310Y88637D01*
X328661Y88692D01*
X328661Y79139D01*
X319108Y79139D01*
G37*
%LPD*%
%LPC*%
G36*
X901308Y383139D02*
X901308Y383139D01*
X901363Y383490D01*
X901963Y385337D01*
X902845Y387068D01*
X903987Y388639D01*
X905361Y390013D01*
X906932Y391155D01*
X908663Y392037D01*
X910510Y392637D01*
X910861Y392692D01*
X910861Y383139D01*
X901308Y383139D01*
G37*
%LPD*%
%LPC*%
G36*
X698108Y129139D02*
X698108Y129139D01*
X698163Y129490D01*
X698763Y131337D01*
X699645Y133068D01*
X700787Y134639D01*
X702161Y136013D01*
X703732Y137155D01*
X705463Y138037D01*
X707310Y138637D01*
X707661Y138692D01*
X707661Y129139D01*
X698108Y129139D01*
G37*
%LPD*%
%LPC*%
G36*
X215508Y129139D02*
X215508Y129139D01*
X215563Y129490D01*
X216163Y131337D01*
X217045Y133068D01*
X218187Y134639D01*
X219561Y136013D01*
X221132Y137155D01*
X222863Y138037D01*
X224710Y138637D01*
X225061Y138692D01*
X225061Y129139D01*
X215508Y129139D01*
G37*
%LPD*%
%LPC*%
G36*
X915939Y378061D02*
X915939Y378061D01*
X925492Y378061D01*
X925437Y377710D01*
X924837Y375863D01*
X923955Y374132D01*
X922813Y372561D01*
X921439Y371187D01*
X919868Y370045D01*
X918137Y369163D01*
X916290Y368563D01*
X915939Y368508D01*
X915939Y378061D01*
G37*
%LPD*%
%LPC*%
G36*
X910510Y368563D02*
X910510Y368563D01*
X908663Y369163D01*
X906932Y370045D01*
X905361Y371187D01*
X903987Y372561D01*
X902845Y374132D01*
X901963Y375863D01*
X901363Y377710D01*
X901308Y378061D01*
X910861Y378061D01*
X910861Y368508D01*
X910510Y368563D01*
G37*
%LPD*%
%LPC*%
G36*
X707310Y114563D02*
X707310Y114563D01*
X705463Y115163D01*
X703732Y116045D01*
X702161Y117187D01*
X700787Y118561D01*
X699645Y120132D01*
X698763Y121863D01*
X698163Y123710D01*
X698108Y124061D01*
X707661Y124061D01*
X707661Y114508D01*
X707310Y114563D01*
G37*
%LPD*%
%LPC*%
G36*
X224710Y114563D02*
X224710Y114563D01*
X222863Y115163D01*
X221132Y116045D01*
X219561Y117187D01*
X218187Y118561D01*
X217045Y120132D01*
X216163Y121863D01*
X215563Y123710D01*
X215508Y124061D01*
X225061Y124061D01*
X225061Y114508D01*
X224710Y114563D01*
G37*
%LPD*%
%LPC*%
G36*
X328310Y64563D02*
X328310Y64563D01*
X326463Y65163D01*
X324732Y66045D01*
X323161Y67187D01*
X321787Y68561D01*
X320645Y70132D01*
X319763Y71863D01*
X319163Y73710D01*
X319108Y74061D01*
X328661Y74061D01*
X328661Y64508D01*
X328310Y64563D01*
G37*
%LPD*%
%LPC*%
G36*
X637539Y713739D02*
X637539Y713739D01*
X637539Y720554D01*
X638716Y720171D01*
X640074Y719480D01*
X641307Y718584D01*
X642384Y717507D01*
X643280Y716274D01*
X643971Y714916D01*
X644354Y713739D01*
X637539Y713739D01*
G37*
%LPD*%
%LPC*%
G36*
X637539Y708661D02*
X637539Y708661D01*
X644354Y708661D01*
X643971Y707484D01*
X643280Y706126D01*
X642384Y704893D01*
X641307Y703816D01*
X640074Y702920D01*
X638716Y702229D01*
X637539Y701846D01*
X637539Y708661D01*
G37*
%LPD*%
%LPC*%
G36*
X625646Y713739D02*
X625646Y713739D01*
X626029Y714916D01*
X626720Y716274D01*
X627616Y717507D01*
X628693Y718584D01*
X629926Y719480D01*
X631284Y720171D01*
X632461Y720554D01*
X632461Y713739D01*
X625646Y713739D01*
G37*
%LPD*%
%LPC*%
G36*
X631284Y702229D02*
X631284Y702229D01*
X629926Y702920D01*
X628693Y703816D01*
X627616Y704893D01*
X626720Y706126D01*
X626029Y707484D01*
X625646Y708661D01*
X632461Y708661D01*
X632461Y701846D01*
X631284Y702229D01*
G37*
%LPD*%
%LPC*%
G36*
X425722Y342322D02*
X425722Y342322D01*
X425722Y348593D01*
X426056Y348527D01*
X427651Y347866D01*
X429087Y346907D01*
X430307Y345687D01*
X431266Y344251D01*
X431927Y342656D01*
X431993Y342322D01*
X425722Y342322D01*
G37*
%LPD*%
%LPC*%
G36*
X349522Y596322D02*
X349522Y596322D01*
X349522Y602593D01*
X349856Y602527D01*
X351451Y601866D01*
X352887Y600907D01*
X354107Y599687D01*
X355066Y598251D01*
X355727Y596656D01*
X355793Y596322D01*
X349522Y596322D01*
G37*
%LPD*%
%LPC*%
G36*
X425722Y367722D02*
X425722Y367722D01*
X425722Y373993D01*
X426056Y373927D01*
X427651Y373266D01*
X429087Y372307D01*
X430307Y371087D01*
X431266Y369651D01*
X431927Y368056D01*
X431993Y367722D01*
X425722Y367722D01*
G37*
%LPD*%
%LPC*%
G36*
X349522Y367722D02*
X349522Y367722D01*
X349522Y373993D01*
X349856Y373927D01*
X351451Y373266D01*
X352887Y372307D01*
X354107Y371087D01*
X355066Y369651D01*
X355727Y368056D01*
X355793Y367722D01*
X349522Y367722D01*
G37*
%LPD*%
%LPC*%
G36*
X425722Y596322D02*
X425722Y596322D01*
X425722Y602593D01*
X426056Y602527D01*
X427651Y601866D01*
X429087Y600907D01*
X430307Y599687D01*
X431266Y598251D01*
X431927Y596656D01*
X431993Y596322D01*
X425722Y596322D01*
G37*
%LPD*%
%LPC*%
G36*
X425722Y591878D02*
X425722Y591878D01*
X431993Y591878D01*
X431927Y591544D01*
X431266Y589949D01*
X430307Y588513D01*
X429087Y587293D01*
X427651Y586334D01*
X426056Y585673D01*
X425722Y585607D01*
X425722Y591878D01*
G37*
%LPD*%
%LPC*%
G36*
X415007Y596322D02*
X415007Y596322D01*
X415073Y596656D01*
X415734Y598251D01*
X416693Y599687D01*
X417913Y600907D01*
X419349Y601866D01*
X420944Y602527D01*
X421278Y602593D01*
X421278Y596322D01*
X415007Y596322D01*
G37*
%LPD*%
%LPC*%
G36*
X415007Y342322D02*
X415007Y342322D01*
X415073Y342656D01*
X415734Y344251D01*
X416693Y345687D01*
X417913Y346907D01*
X419349Y347866D01*
X420944Y348527D01*
X421278Y348593D01*
X421278Y342322D01*
X415007Y342322D01*
G37*
%LPD*%
%LPC*%
G36*
X338807Y367722D02*
X338807Y367722D01*
X338873Y368056D01*
X339534Y369651D01*
X340493Y371087D01*
X341713Y372307D01*
X343149Y373266D01*
X344744Y373927D01*
X345078Y373993D01*
X345078Y367722D01*
X338807Y367722D01*
G37*
%LPD*%
%LPC*%
G36*
X425722Y337878D02*
X425722Y337878D01*
X431993Y337878D01*
X431927Y337544D01*
X431266Y335949D01*
X430307Y334513D01*
X429087Y333293D01*
X427651Y332334D01*
X426056Y331673D01*
X425722Y331607D01*
X425722Y337878D01*
G37*
%LPD*%
%LPC*%
G36*
X415007Y367722D02*
X415007Y367722D01*
X415073Y368056D01*
X415734Y369651D01*
X416693Y371087D01*
X417913Y372307D01*
X419349Y373266D01*
X420944Y373927D01*
X421278Y373993D01*
X421278Y367722D01*
X415007Y367722D01*
G37*
%LPD*%
%LPC*%
G36*
X425722Y363278D02*
X425722Y363278D01*
X431993Y363278D01*
X431927Y362944D01*
X431266Y361349D01*
X430307Y359913D01*
X429087Y358693D01*
X427651Y357734D01*
X426056Y357073D01*
X425722Y357007D01*
X425722Y363278D01*
G37*
%LPD*%
%LPC*%
G36*
X349522Y363278D02*
X349522Y363278D01*
X355793Y363278D01*
X355727Y362944D01*
X355066Y361349D01*
X354107Y359913D01*
X352887Y358693D01*
X351451Y357734D01*
X349856Y357073D01*
X349522Y357007D01*
X349522Y363278D01*
G37*
%LPD*%
%LPC*%
G36*
X349522Y591878D02*
X349522Y591878D01*
X355793Y591878D01*
X355727Y591544D01*
X355066Y589949D01*
X354107Y588513D01*
X352887Y587293D01*
X351451Y586334D01*
X349856Y585673D01*
X349522Y585607D01*
X349522Y591878D01*
G37*
%LPD*%
%LPC*%
G36*
X338807Y596322D02*
X338807Y596322D01*
X338873Y596656D01*
X339534Y598251D01*
X340493Y599687D01*
X341713Y600907D01*
X343149Y601866D01*
X344744Y602527D01*
X345078Y602593D01*
X345078Y596322D01*
X338807Y596322D01*
G37*
%LPD*%
%LPC*%
G36*
X420944Y585673D02*
X420944Y585673D01*
X419349Y586334D01*
X417913Y587293D01*
X416693Y588513D01*
X415734Y589949D01*
X415073Y591544D01*
X415007Y591878D01*
X421278Y591878D01*
X421278Y585607D01*
X420944Y585673D01*
G37*
%LPD*%
%LPC*%
G36*
X344744Y585673D02*
X344744Y585673D01*
X343149Y586334D01*
X341713Y587293D01*
X340493Y588513D01*
X339534Y589949D01*
X338873Y591544D01*
X338807Y591878D01*
X345078Y591878D01*
X345078Y585607D01*
X344744Y585673D01*
G37*
%LPD*%
%LPC*%
G36*
X420944Y331673D02*
X420944Y331673D01*
X419349Y332334D01*
X417913Y333293D01*
X416693Y334513D01*
X415734Y335949D01*
X415073Y337544D01*
X415007Y337878D01*
X421278Y337878D01*
X421278Y331607D01*
X420944Y331673D01*
G37*
%LPD*%
%LPC*%
G36*
X420944Y357073D02*
X420944Y357073D01*
X419349Y357734D01*
X417913Y358693D01*
X416693Y359913D01*
X415734Y361349D01*
X415073Y362944D01*
X415007Y363278D01*
X421278Y363278D01*
X421278Y357007D01*
X420944Y357073D01*
G37*
%LPD*%
%LPC*%
G36*
X344744Y357073D02*
X344744Y357073D01*
X343149Y357734D01*
X341713Y358693D01*
X340493Y359913D01*
X339534Y361349D01*
X338873Y362944D01*
X338807Y363278D01*
X345078Y363278D01*
X345078Y357007D01*
X344744Y357073D01*
G37*
%LPD*%
%LPC*%
G36*
X852899Y618699D02*
X852899Y618699D01*
X852899Y624603D01*
X853275Y624528D01*
X854756Y623914D01*
X856089Y623023D01*
X857223Y621889D01*
X858114Y620556D01*
X858728Y619075D01*
X858803Y618699D01*
X852899Y618699D01*
G37*
%LPD*%
%LPC*%
G36*
X842997Y618699D02*
X842997Y618699D01*
X843072Y619075D01*
X843686Y620556D01*
X844577Y621889D01*
X845711Y623023D01*
X847044Y623914D01*
X848525Y624528D01*
X848901Y624603D01*
X848901Y618699D01*
X842997Y618699D01*
G37*
%LPD*%
%LPC*%
G36*
X852899Y614701D02*
X852899Y614701D01*
X858803Y614701D01*
X858728Y614325D01*
X858114Y612844D01*
X857223Y611511D01*
X856089Y610377D01*
X854756Y609486D01*
X853275Y608872D01*
X852899Y608797D01*
X852899Y614701D01*
G37*
%LPD*%
%LPC*%
G36*
X848525Y608872D02*
X848525Y608872D01*
X847044Y609486D01*
X845711Y610377D01*
X844577Y611511D01*
X843686Y612844D01*
X843072Y614325D01*
X842997Y614701D01*
X848901Y614701D01*
X848901Y608797D01*
X848525Y608872D01*
G37*
%LPD*%
%LPC*%
G36*
X331199Y76599D02*
X331199Y76599D01*
X331199Y76601D01*
X331201Y76601D01*
X331201Y76599D01*
X331199Y76599D01*
G37*
%LPD*%
%LPC*%
G36*
X634999Y711199D02*
X634999Y711199D01*
X634999Y711201D01*
X635001Y711201D01*
X635001Y711199D01*
X634999Y711199D01*
G37*
%LPD*%
%LPC*%
G36*
X227599Y126599D02*
X227599Y126599D01*
X227599Y126601D01*
X227601Y126601D01*
X227601Y126599D01*
X227599Y126599D01*
G37*
%LPD*%
%LPC*%
G36*
X913399Y380599D02*
X913399Y380599D01*
X913399Y380601D01*
X913401Y380601D01*
X913401Y380599D01*
X913399Y380599D01*
G37*
%LPD*%
%LPC*%
G36*
X710199Y126599D02*
X710199Y126599D01*
X710199Y126601D01*
X710201Y126601D01*
X710201Y126599D01*
X710199Y126599D01*
G37*
%LPD*%
D10*
X850900Y616700D03*
X850900Y551700D03*
D11*
X601300Y340100D03*
X601300Y365500D03*
X575900Y340100D03*
X575900Y365500D03*
X550500Y340100D03*
X550500Y365500D03*
X525100Y340100D03*
X525100Y365500D03*
X499700Y340100D03*
X499700Y365500D03*
X474300Y340100D03*
X474300Y365500D03*
X448900Y340100D03*
X448900Y365500D03*
X423500Y340100D03*
X423500Y365500D03*
X398100Y340100D03*
X398100Y365500D03*
X372700Y340100D03*
X372700Y365500D03*
X347300Y340100D03*
X347300Y365500D03*
X321900Y340100D03*
X321900Y365500D03*
X296500Y340100D03*
X296500Y365500D03*
X271100Y340100D03*
X271100Y365500D03*
X245700Y340100D03*
X245700Y365500D03*
X220300Y340100D03*
X220300Y365500D03*
X194900Y340100D03*
X194900Y365500D03*
X169500Y340100D03*
X169500Y365500D03*
X601300Y594100D03*
X601300Y619500D03*
X575900Y594100D03*
X575900Y619500D03*
X550500Y594100D03*
X550500Y619500D03*
X525100Y594100D03*
X525100Y619500D03*
X499700Y594100D03*
X499700Y619500D03*
X474300Y594100D03*
X474300Y619500D03*
X448900Y594100D03*
X448900Y619500D03*
X423500Y594100D03*
X423500Y619500D03*
X398100Y594100D03*
X398100Y619500D03*
X372700Y594100D03*
X372700Y619500D03*
X347300Y594100D03*
X347300Y619500D03*
X321900Y594100D03*
X321900Y619500D03*
X296500Y594100D03*
X296500Y619500D03*
X271100Y594100D03*
X271100Y619500D03*
X245700Y594100D03*
X245700Y619500D03*
X220300Y594100D03*
X220300Y619500D03*
X194900Y594100D03*
X194900Y619500D03*
X169500Y594100D03*
X169500Y619500D03*
D12*
X227600Y126600D03*
X227600Y76600D03*
X102600Y76600D03*
X102600Y126600D03*
D13*
X679450Y232410D03*
X679450Y707390D03*
X107950Y232410D03*
X107950Y707390D03*
D14*
X635000Y228600D03*
X406400Y228600D03*
X431800Y228600D03*
X457200Y228600D03*
X482600Y228600D03*
X508000Y228600D03*
X533400Y228600D03*
X558800Y228600D03*
X584200Y228600D03*
X609600Y228600D03*
X381000Y228600D03*
X355600Y228600D03*
X330200Y228600D03*
X304800Y228600D03*
X279400Y228600D03*
X254000Y228600D03*
X228600Y228600D03*
X203200Y228600D03*
X177800Y228600D03*
X152400Y228600D03*
X635000Y711200D03*
X609600Y711200D03*
X584200Y711200D03*
X558800Y711200D03*
X533400Y711200D03*
X508000Y711200D03*
X482600Y711200D03*
X457200Y711200D03*
X431800Y711200D03*
X406400Y711200D03*
X381000Y711200D03*
X355600Y711200D03*
X330200Y711200D03*
X304800Y711200D03*
X279400Y711200D03*
X254000Y711200D03*
X228600Y711200D03*
X203200Y711200D03*
X177800Y711200D03*
X152400Y711200D03*
D12*
X331200Y76600D03*
X331200Y126600D03*
X456200Y126600D03*
X456200Y76600D03*
X710200Y126600D03*
X710200Y76600D03*
X585200Y76600D03*
X585200Y126600D03*
X913400Y380600D03*
X913400Y330600D03*
X788400Y330600D03*
X788400Y380600D03*
D15*
X38100Y38100D03*
X38100Y723900D03*
X965200Y723900D03*
X965200Y38100D03*
D16*
X710600Y127000D02*
X710200Y126600D01*
X710600Y127000D02*
X723900Y127000D01*
D17*
X723900Y127000D03*
D16*
X331200Y76600D02*
X330800Y76200D01*
X228000Y127000D02*
X227600Y126600D01*
X228000Y127000D02*
X241300Y127000D01*
D17*
X241300Y127000D03*
D16*
X913400Y380600D02*
X926700Y380600D01*
X927100Y381000D01*
D17*
X927100Y381000D03*
X850900Y647700D03*
D16*
X850900Y616700D01*
X330800Y76200D02*
X317500Y76200D01*
D17*
X317500Y76200D03*
X889000Y63500D03*
D16*
X635000Y711200D02*
X635000Y749300D01*
D17*
X635000Y749300D03*
X279400Y177800D03*
X406400Y177800D03*
X533400Y177800D03*
X774700Y609600D03*
X850900Y520700D03*
M02*
