G04 EAGLE Gerber RS-274X export*
G75*
%MOMM*%
%FSLAX34Y34*%
%LPD*%
%INTop Copper*%
%IPPOS*%
%AMOC8*
5,1,8,0,0,1.08239X$1,22.5*%
G01*
%ADD10C,1.120000*%
%ADD11R,1.524000X1.524000*%
%ADD12P,1.649562X8X202.500000*%
%ADD13R,0.949959X1.031241*%
%ADD14C,1.960000*%
%ADD15C,3.556000*%
%ADD16R,1.428000X1.428000*%
%ADD17C,1.428000*%
%ADD18C,1.016000*%
%ADD19C,4.445000*%
%ADD20R,0.609600X0.508000*%
%ADD21C,0.609600*%
%ADD22C,0.254000*%

G36*
X1013444Y755008D02*
X1013444Y755008D01*
X1013437Y755127D01*
X1013424Y755165D01*
X1013419Y755206D01*
X1013376Y755316D01*
X1013339Y755429D01*
X1013317Y755464D01*
X1013302Y755501D01*
X1013233Y755597D01*
X1013169Y755698D01*
X1013139Y755726D01*
X1013116Y755759D01*
X1013024Y755835D01*
X1012937Y755916D01*
X1012902Y755936D01*
X1012871Y755961D01*
X1012763Y756012D01*
X1012659Y756070D01*
X1012619Y756080D01*
X1012583Y756097D01*
X1012466Y756119D01*
X1012351Y756149D01*
X1012291Y756153D01*
X1012271Y756157D01*
X1012250Y756155D01*
X1012190Y756159D01*
X639109Y756159D01*
X638971Y756142D01*
X638832Y756129D01*
X638813Y756122D01*
X638793Y756119D01*
X638664Y756068D01*
X638533Y756021D01*
X638516Y756010D01*
X638497Y756002D01*
X638385Y755921D01*
X638270Y755843D01*
X638256Y755827D01*
X638240Y755816D01*
X638151Y755708D01*
X638059Y755604D01*
X638050Y755586D01*
X638037Y755571D01*
X637978Y755445D01*
X637915Y755321D01*
X637910Y755301D01*
X637902Y755283D01*
X637876Y755146D01*
X637845Y755011D01*
X637846Y754990D01*
X637842Y754971D01*
X637851Y754832D01*
X637855Y754693D01*
X637860Y754673D01*
X637862Y754653D01*
X637904Y754521D01*
X637943Y754387D01*
X637953Y754370D01*
X637960Y754351D01*
X638034Y754233D01*
X638105Y754113D01*
X638123Y754092D01*
X638130Y754082D01*
X638145Y754068D01*
X638211Y753993D01*
X639738Y752466D01*
X640589Y750412D01*
X640589Y748188D01*
X639738Y746134D01*
X638166Y744562D01*
X636112Y743711D01*
X633888Y743711D01*
X631834Y744562D01*
X630262Y746134D01*
X629411Y748188D01*
X629411Y750412D01*
X630262Y752466D01*
X631789Y753993D01*
X631874Y754102D01*
X631963Y754209D01*
X631971Y754228D01*
X631984Y754244D01*
X632039Y754372D01*
X632098Y754497D01*
X632102Y754517D01*
X632110Y754536D01*
X632132Y754674D01*
X632158Y754810D01*
X632157Y754830D01*
X632160Y754850D01*
X632147Y754989D01*
X632138Y755127D01*
X632132Y755146D01*
X632130Y755166D01*
X632083Y755298D01*
X632040Y755429D01*
X632029Y755447D01*
X632023Y755466D01*
X631945Y755581D01*
X631870Y755698D01*
X631855Y755712D01*
X631844Y755729D01*
X631740Y755821D01*
X631639Y755916D01*
X631621Y755926D01*
X631606Y755939D01*
X631481Y756003D01*
X631360Y756070D01*
X631340Y756075D01*
X631322Y756084D01*
X631187Y756114D01*
X631052Y756149D01*
X631024Y756151D01*
X631012Y756154D01*
X630992Y756153D01*
X630891Y756159D01*
X3810Y756159D01*
X3692Y756144D01*
X3573Y756137D01*
X3535Y756124D01*
X3494Y756119D01*
X3384Y756076D01*
X3271Y756039D01*
X3236Y756017D01*
X3199Y756002D01*
X3103Y755933D01*
X3002Y755869D01*
X2974Y755839D01*
X2941Y755816D01*
X2865Y755724D01*
X2784Y755637D01*
X2764Y755602D01*
X2739Y755571D01*
X2688Y755463D01*
X2630Y755359D01*
X2620Y755319D01*
X2603Y755283D01*
X2581Y755166D01*
X2551Y755051D01*
X2547Y754991D01*
X2543Y754971D01*
X2545Y754950D01*
X2541Y754890D01*
X2541Y3810D01*
X2556Y3692D01*
X2563Y3573D01*
X2576Y3535D01*
X2581Y3494D01*
X2624Y3384D01*
X2661Y3271D01*
X2683Y3236D01*
X2698Y3199D01*
X2767Y3103D01*
X2831Y3002D01*
X2861Y2974D01*
X2884Y2941D01*
X2976Y2865D01*
X3063Y2784D01*
X3098Y2764D01*
X3129Y2739D01*
X3237Y2688D01*
X3341Y2630D01*
X3381Y2620D01*
X3417Y2603D01*
X3534Y2581D01*
X3649Y2551D01*
X3709Y2547D01*
X3729Y2543D01*
X3750Y2545D01*
X3810Y2541D01*
X1012190Y2541D01*
X1012308Y2556D01*
X1012427Y2563D01*
X1012465Y2576D01*
X1012506Y2581D01*
X1012616Y2624D01*
X1012729Y2661D01*
X1012764Y2683D01*
X1012801Y2698D01*
X1012897Y2767D01*
X1012998Y2831D01*
X1013026Y2861D01*
X1013059Y2884D01*
X1013135Y2976D01*
X1013216Y3063D01*
X1013236Y3098D01*
X1013261Y3129D01*
X1013312Y3237D01*
X1013370Y3341D01*
X1013380Y3381D01*
X1013397Y3417D01*
X1013419Y3534D01*
X1013449Y3649D01*
X1013453Y3709D01*
X1013457Y3729D01*
X1013455Y3750D01*
X1013459Y3810D01*
X1013459Y754890D01*
X1013444Y755008D01*
G37*
%LPC*%
G36*
X76200Y684531D02*
X76200Y684531D01*
X76318Y684546D01*
X76437Y684553D01*
X76475Y684566D01*
X76516Y684571D01*
X76626Y684614D01*
X76739Y684651D01*
X76774Y684673D01*
X76811Y684688D01*
X76907Y684758D01*
X77008Y684821D01*
X77036Y684851D01*
X77069Y684874D01*
X77145Y684966D01*
X77226Y685053D01*
X77246Y685088D01*
X77271Y685119D01*
X77322Y685227D01*
X77380Y685331D01*
X77390Y685371D01*
X77407Y685407D01*
X77429Y685524D01*
X77459Y685639D01*
X77463Y685700D01*
X77467Y685720D01*
X77465Y685740D01*
X77469Y685800D01*
X77469Y735331D01*
X925831Y735331D01*
X925831Y685800D01*
X925846Y685682D01*
X925853Y685563D01*
X925866Y685525D01*
X925871Y685484D01*
X925914Y685374D01*
X925951Y685261D01*
X925973Y685226D01*
X925988Y685189D01*
X926058Y685093D01*
X926121Y684992D01*
X926151Y684964D01*
X926174Y684931D01*
X926266Y684856D01*
X926353Y684774D01*
X926388Y684754D01*
X926419Y684729D01*
X926527Y684678D01*
X926631Y684620D01*
X926671Y684610D01*
X926707Y684593D01*
X926824Y684571D01*
X926939Y684541D01*
X927000Y684537D01*
X927020Y684533D01*
X927040Y684535D01*
X927100Y684531D01*
X989331Y684531D01*
X989331Y77469D01*
X927100Y77469D01*
X926982Y77454D01*
X926863Y77447D01*
X926825Y77434D01*
X926784Y77429D01*
X926674Y77386D01*
X926561Y77349D01*
X926526Y77327D01*
X926489Y77312D01*
X926393Y77243D01*
X926292Y77179D01*
X926264Y77149D01*
X926231Y77126D01*
X926156Y77034D01*
X926074Y76947D01*
X926054Y76912D01*
X926029Y76881D01*
X925978Y76773D01*
X925920Y76669D01*
X925910Y76629D01*
X925893Y76593D01*
X925871Y76476D01*
X925841Y76361D01*
X925837Y76301D01*
X925833Y76281D01*
X925835Y76260D01*
X925831Y76200D01*
X925831Y26669D01*
X77469Y26669D01*
X77469Y76200D01*
X77454Y76318D01*
X77447Y76437D01*
X77434Y76475D01*
X77429Y76516D01*
X77386Y76626D01*
X77349Y76739D01*
X77327Y76774D01*
X77312Y76811D01*
X77243Y76907D01*
X77179Y77008D01*
X77149Y77036D01*
X77126Y77069D01*
X77034Y77145D01*
X76947Y77226D01*
X76912Y77246D01*
X76881Y77271D01*
X76773Y77322D01*
X76669Y77380D01*
X76629Y77390D01*
X76593Y77407D01*
X76476Y77429D01*
X76361Y77459D01*
X76301Y77463D01*
X76281Y77467D01*
X76260Y77465D01*
X76200Y77469D01*
X26669Y77469D01*
X26669Y684531D01*
X76200Y684531D01*
G37*
%LPD*%
%LPC*%
G36*
X967739Y726439D02*
X967739Y726439D01*
X967739Y748536D01*
X969355Y748354D01*
X972067Y747735D01*
X974692Y746817D01*
X977199Y745610D01*
X979554Y744130D01*
X981729Y742395D01*
X983695Y740429D01*
X985430Y738254D01*
X986910Y735899D01*
X988117Y733392D01*
X989035Y730767D01*
X989654Y728055D01*
X989836Y726439D01*
X967739Y726439D01*
G37*
%LPD*%
%LPC*%
G36*
X40639Y40639D02*
X40639Y40639D01*
X40639Y62736D01*
X42255Y62554D01*
X44967Y61935D01*
X47592Y61017D01*
X50099Y59810D01*
X52454Y58330D01*
X54629Y56595D01*
X56595Y54629D01*
X58330Y52454D01*
X59810Y50099D01*
X61017Y47592D01*
X61935Y44967D01*
X62554Y42255D01*
X62736Y40639D01*
X40639Y40639D01*
G37*
%LPD*%
%LPC*%
G36*
X40639Y726439D02*
X40639Y726439D01*
X40639Y748536D01*
X42255Y748354D01*
X44967Y747735D01*
X47592Y746817D01*
X50099Y745610D01*
X52454Y744130D01*
X54629Y742395D01*
X56595Y740429D01*
X58330Y738254D01*
X59810Y735899D01*
X61017Y733392D01*
X61935Y730767D01*
X62554Y728055D01*
X62736Y726439D01*
X40639Y726439D01*
G37*
%LPD*%
%LPC*%
G36*
X967739Y40639D02*
X967739Y40639D01*
X967739Y62736D01*
X969355Y62554D01*
X972067Y61935D01*
X974692Y61017D01*
X977199Y59810D01*
X979554Y58330D01*
X981729Y56595D01*
X983695Y54629D01*
X985430Y52454D01*
X986910Y50099D01*
X988117Y47592D01*
X989035Y44967D01*
X989654Y42255D01*
X989836Y40639D01*
X967739Y40639D01*
G37*
%LPD*%
%LPC*%
G36*
X40639Y721361D02*
X40639Y721361D01*
X62736Y721361D01*
X62554Y719745D01*
X61935Y717033D01*
X61017Y714408D01*
X59810Y711901D01*
X58330Y709546D01*
X56595Y707371D01*
X54629Y705405D01*
X52454Y703670D01*
X50099Y702190D01*
X47592Y700983D01*
X44967Y700065D01*
X42255Y699446D01*
X40639Y699264D01*
X40639Y721361D01*
G37*
%LPD*%
%LPC*%
G36*
X13464Y40639D02*
X13464Y40639D01*
X13646Y42255D01*
X14265Y44967D01*
X15183Y47592D01*
X16390Y50099D01*
X17870Y52454D01*
X19605Y54629D01*
X21571Y56595D01*
X23746Y58330D01*
X26101Y59810D01*
X28608Y61017D01*
X31233Y61935D01*
X33945Y62554D01*
X35561Y62736D01*
X35561Y40639D01*
X13464Y40639D01*
G37*
%LPD*%
%LPC*%
G36*
X40639Y35561D02*
X40639Y35561D01*
X62736Y35561D01*
X62554Y33945D01*
X61935Y31233D01*
X61017Y28608D01*
X59810Y26101D01*
X58330Y23746D01*
X56595Y21571D01*
X54629Y19605D01*
X52454Y17870D01*
X50099Y16390D01*
X47592Y15183D01*
X44967Y14265D01*
X42255Y13646D01*
X40639Y13464D01*
X40639Y35561D01*
G37*
%LPD*%
%LPC*%
G36*
X967739Y721361D02*
X967739Y721361D01*
X989836Y721361D01*
X989654Y719745D01*
X989035Y717033D01*
X988117Y714408D01*
X986910Y711901D01*
X985430Y709546D01*
X983695Y707371D01*
X981729Y705405D01*
X979554Y703670D01*
X977199Y702190D01*
X974692Y700983D01*
X972067Y700065D01*
X969355Y699446D01*
X967739Y699264D01*
X967739Y721361D01*
G37*
%LPD*%
%LPC*%
G36*
X967739Y35561D02*
X967739Y35561D01*
X989836Y35561D01*
X989654Y33945D01*
X989035Y31233D01*
X988117Y28608D01*
X986910Y26101D01*
X985430Y23746D01*
X983695Y21571D01*
X981729Y19605D01*
X979554Y17870D01*
X977199Y16390D01*
X974692Y15183D01*
X972067Y14265D01*
X969355Y13646D01*
X967739Y13464D01*
X967739Y35561D01*
G37*
%LPD*%
%LPC*%
G36*
X940564Y40639D02*
X940564Y40639D01*
X940746Y42255D01*
X941365Y44967D01*
X942283Y47592D01*
X943490Y50099D01*
X944970Y52454D01*
X946705Y54629D01*
X948671Y56595D01*
X950846Y58330D01*
X953201Y59810D01*
X955708Y61017D01*
X958333Y61935D01*
X961045Y62554D01*
X962661Y62736D01*
X962661Y40639D01*
X940564Y40639D01*
G37*
%LPD*%
%LPC*%
G36*
X940564Y726439D02*
X940564Y726439D01*
X940746Y728055D01*
X941365Y730767D01*
X942283Y733392D01*
X943490Y735899D01*
X944970Y738254D01*
X946705Y740429D01*
X948671Y742395D01*
X950846Y744130D01*
X953201Y745610D01*
X955708Y746817D01*
X958333Y747735D01*
X961045Y748354D01*
X962661Y748536D01*
X962661Y726439D01*
X940564Y726439D01*
G37*
%LPD*%
%LPC*%
G36*
X13464Y726439D02*
X13464Y726439D01*
X13646Y728055D01*
X14265Y730767D01*
X15183Y733392D01*
X16390Y735899D01*
X17870Y738254D01*
X19605Y740429D01*
X21571Y742395D01*
X23746Y744130D01*
X26101Y745610D01*
X28608Y746817D01*
X31233Y747735D01*
X33945Y748354D01*
X35561Y748536D01*
X35561Y726439D01*
X13464Y726439D01*
G37*
%LPD*%
%LPC*%
G36*
X33945Y13646D02*
X33945Y13646D01*
X31233Y14265D01*
X28608Y15183D01*
X26101Y16390D01*
X23746Y17870D01*
X21571Y19605D01*
X19605Y21571D01*
X17870Y23746D01*
X16390Y26101D01*
X15183Y28608D01*
X14265Y31233D01*
X13646Y33945D01*
X13464Y35561D01*
X35561Y35561D01*
X35561Y13464D01*
X33945Y13646D01*
G37*
%LPD*%
%LPC*%
G36*
X961045Y699446D02*
X961045Y699446D01*
X958333Y700065D01*
X955708Y700983D01*
X953201Y702190D01*
X950846Y703670D01*
X948671Y705405D01*
X946705Y707371D01*
X944970Y709546D01*
X943490Y711901D01*
X942283Y714408D01*
X941365Y717033D01*
X940746Y719745D01*
X940564Y721361D01*
X962661Y721361D01*
X962661Y699264D01*
X961045Y699446D01*
G37*
%LPD*%
%LPC*%
G36*
X33945Y699446D02*
X33945Y699446D01*
X31233Y700065D01*
X28608Y700983D01*
X26101Y702190D01*
X23746Y703670D01*
X21571Y705405D01*
X19605Y707371D01*
X17870Y709546D01*
X16390Y711901D01*
X15183Y714408D01*
X14265Y717033D01*
X13646Y719745D01*
X13464Y721361D01*
X35561Y721361D01*
X35561Y699264D01*
X33945Y699446D01*
G37*
%LPD*%
%LPC*%
G36*
X961045Y13646D02*
X961045Y13646D01*
X958333Y14265D01*
X955708Y15183D01*
X953201Y16390D01*
X950846Y17870D01*
X948671Y19605D01*
X946705Y21571D01*
X944970Y23746D01*
X943490Y26101D01*
X942283Y28608D01*
X941365Y31233D01*
X940746Y33945D01*
X940564Y35561D01*
X962661Y35561D01*
X962661Y13464D01*
X961045Y13646D01*
G37*
%LPD*%
%LPC*%
G36*
X38099Y723899D02*
X38099Y723899D01*
X38099Y723901D01*
X38101Y723901D01*
X38101Y723899D01*
X38099Y723899D01*
G37*
%LPD*%
%LPC*%
G36*
X38099Y38099D02*
X38099Y38099D01*
X38099Y38101D01*
X38101Y38101D01*
X38101Y38099D01*
X38099Y38099D01*
G37*
%LPD*%
%LPC*%
G36*
X965199Y38099D02*
X965199Y38099D01*
X965199Y38101D01*
X965201Y38101D01*
X965201Y38099D01*
X965199Y38099D01*
G37*
%LPD*%
%LPC*%
G36*
X965199Y723899D02*
X965199Y723899D01*
X965199Y723901D01*
X965201Y723901D01*
X965201Y723899D01*
X965199Y723899D01*
G37*
%LPD*%
D10*
X850900Y616700D03*
X850900Y551700D03*
D11*
X601300Y340100D03*
D12*
X601300Y365500D03*
X575900Y340100D03*
X575900Y365500D03*
X550500Y340100D03*
X550500Y365500D03*
X525100Y340100D03*
X525100Y365500D03*
X499700Y340100D03*
X499700Y365500D03*
X474300Y340100D03*
X474300Y365500D03*
X448900Y340100D03*
X448900Y365500D03*
X423500Y340100D03*
X423500Y365500D03*
X398100Y340100D03*
X398100Y365500D03*
X372700Y340100D03*
X372700Y365500D03*
X347300Y340100D03*
X347300Y365500D03*
X321900Y340100D03*
X321900Y365500D03*
X296500Y340100D03*
X296500Y365500D03*
X271100Y340100D03*
X271100Y365500D03*
X245700Y340100D03*
X245700Y365500D03*
X220300Y340100D03*
X220300Y365500D03*
X194900Y340100D03*
X194900Y365500D03*
X169500Y340100D03*
X169500Y365500D03*
D11*
X601300Y594100D03*
D12*
X601300Y619500D03*
X575900Y594100D03*
X575900Y619500D03*
X550500Y594100D03*
X550500Y619500D03*
X525100Y594100D03*
X525100Y619500D03*
X499700Y594100D03*
X499700Y619500D03*
X474300Y594100D03*
X474300Y619500D03*
X448900Y594100D03*
X448900Y619500D03*
X423500Y594100D03*
X423500Y619500D03*
X398100Y594100D03*
X398100Y619500D03*
X372700Y594100D03*
X372700Y619500D03*
X347300Y594100D03*
X347300Y619500D03*
X321900Y594100D03*
X321900Y619500D03*
X296500Y594100D03*
X296500Y619500D03*
X271100Y594100D03*
X271100Y619500D03*
X245700Y594100D03*
X245700Y619500D03*
X220300Y594100D03*
X220300Y619500D03*
X194900Y594100D03*
X194900Y619500D03*
X169500Y594100D03*
X169500Y619500D03*
D13*
X245999Y177800D03*
X262001Y177800D03*
D14*
X227600Y126600D03*
X227600Y76600D03*
X102600Y76600D03*
X102600Y126600D03*
D15*
X679450Y232410D03*
X679450Y707390D03*
X107950Y232410D03*
X107950Y707390D03*
D16*
X635000Y228600D03*
D17*
X406400Y228600D03*
X431800Y228600D03*
X457200Y228600D03*
X482600Y228600D03*
X508000Y228600D03*
X533400Y228600D03*
X558800Y228600D03*
X584200Y228600D03*
X609600Y228600D03*
X381000Y228600D03*
X355600Y228600D03*
X330200Y228600D03*
X304800Y228600D03*
X279400Y228600D03*
X254000Y228600D03*
X228600Y228600D03*
X203200Y228600D03*
X177800Y228600D03*
X152400Y228600D03*
X635000Y711200D03*
X609600Y711200D03*
X584200Y711200D03*
X558800Y711200D03*
X533400Y711200D03*
X508000Y711200D03*
X482600Y711200D03*
X457200Y711200D03*
X431800Y711200D03*
X406400Y711200D03*
X381000Y711200D03*
X355600Y711200D03*
X330200Y711200D03*
X304800Y711200D03*
X279400Y711200D03*
X254000Y711200D03*
X228600Y711200D03*
X203200Y711200D03*
X177800Y711200D03*
X152400Y711200D03*
D13*
X372999Y177800D03*
X389001Y177800D03*
D14*
X331200Y76600D03*
X331200Y126600D03*
X456200Y126600D03*
X456200Y76600D03*
D13*
X566801Y177800D03*
X550799Y177800D03*
D14*
X710200Y126600D03*
X710200Y76600D03*
X585200Y76600D03*
X585200Y126600D03*
D13*
X741299Y609600D03*
X757301Y609600D03*
D14*
X913400Y380600D03*
X913400Y330600D03*
X788400Y330600D03*
X788400Y380600D03*
D18*
X38100Y673100D03*
X38100Y673100D03*
X38100Y88900D03*
X965200Y673100D03*
D19*
X38100Y38100D03*
X38100Y723900D03*
X965200Y723900D03*
X965200Y38100D03*
D20*
X883412Y38100D03*
X894588Y38100D03*
D18*
X38100Y88900D03*
X965200Y673100D03*
D21*
X723900Y127000D03*
X241300Y127000D03*
X927100Y381000D03*
X850900Y647700D03*
X317500Y76200D03*
D22*
X883412Y38100D02*
X887730Y38100D01*
X887730Y42218D01*
X889000Y43488D01*
X889000Y63500D01*
D21*
X889000Y63500D03*
X635000Y749300D03*
D22*
X279400Y177800D02*
X262001Y177800D01*
D21*
X279400Y177800D03*
D22*
X389001Y177800D02*
X406400Y177800D01*
D21*
X406400Y177800D03*
D22*
X533400Y177800D02*
X550799Y177800D01*
D21*
X533400Y177800D03*
D22*
X757301Y609600D02*
X774700Y609600D01*
D21*
X774700Y609600D03*
D22*
X850900Y551700D02*
X850900Y520700D01*
D21*
X850900Y520700D03*
D22*
X153800Y177800D02*
X102600Y126600D01*
X153800Y177800D02*
X245999Y177800D01*
X358730Y351530D02*
X372700Y365500D01*
X358730Y351530D02*
X358730Y335366D01*
X264950Y224064D02*
X254000Y213114D01*
X264950Y241586D02*
X358730Y335366D01*
X264950Y241586D02*
X264950Y224064D01*
X254000Y185093D02*
X253441Y184534D01*
X253441Y177800D01*
X254000Y185093D02*
X254000Y213114D01*
X253441Y177800D02*
X245999Y177800D01*
X468150Y217650D02*
X482600Y203200D01*
X468150Y217650D02*
X468150Y233136D01*
X372700Y457865D02*
X372700Y594100D01*
X372700Y457865D02*
X460330Y370235D01*
X460330Y240956D02*
X468150Y233136D01*
X460330Y240956D02*
X460330Y370235D01*
X482600Y203200D02*
X596900Y203200D01*
X609600Y190500D01*
X609600Y50800D01*
X482000Y50800D01*
X456900Y75900D01*
X456200Y76600D01*
X456900Y93899D02*
X372999Y177800D01*
X456900Y93899D02*
X456900Y75900D01*
X566801Y144999D02*
X585200Y126600D01*
X566801Y144999D02*
X566801Y177800D01*
X333330Y471835D02*
X333330Y596900D01*
X333330Y471835D02*
X434930Y370235D01*
X434930Y240956D02*
X442750Y233136D01*
X442750Y204950D01*
X557127Y186766D02*
X559359Y184534D01*
X559359Y177800D01*
X557127Y186766D02*
X460934Y186766D01*
X434930Y240956D02*
X434930Y370235D01*
X442750Y204950D02*
X460934Y186766D01*
X559359Y177800D02*
X566801Y177800D01*
X333330Y596900D02*
X333330Y598835D01*
X321900Y610265D02*
X321900Y619500D01*
X321900Y610265D02*
X333330Y598835D01*
X347300Y619500D02*
X356536Y619500D01*
X367966Y630930D01*
X719969Y630930D02*
X741299Y609600D01*
X719969Y630930D02*
X367966Y630930D01*
X741299Y609600D02*
X741299Y427701D01*
X788400Y380600D01*
X194900Y365500D02*
X194900Y476336D01*
X278382Y559818D01*
X393700Y647700D02*
X457200Y711200D01*
X282530Y589366D02*
X278382Y585218D01*
X278382Y559818D01*
X282530Y621695D02*
X308536Y647700D01*
X282530Y621695D02*
X282530Y589366D01*
X308536Y647700D02*
X393700Y647700D01*
X160618Y626782D02*
X158070Y624235D01*
X160618Y626782D02*
X160618Y677582D01*
X158070Y605530D02*
X169500Y594100D01*
X158070Y605530D02*
X158070Y624235D01*
X160618Y677582D02*
X181536Y698500D01*
X395450Y715736D02*
X401864Y722150D01*
X404650Y722150D01*
X406400Y723900D01*
X395450Y710164D02*
X383786Y698500D01*
X395450Y710164D02*
X395450Y715736D01*
X406400Y723900D02*
X469900Y723900D01*
X482600Y711200D01*
X383786Y698500D02*
X181536Y698500D01*
X208870Y608070D02*
X194900Y594100D01*
X215900Y631265D02*
X215900Y635000D01*
X208870Y624235D02*
X208870Y608070D01*
X208870Y624235D02*
X215900Y631265D01*
X215900Y635000D02*
X266700Y685800D01*
X406400Y685800D01*
X431800Y711200D01*
X894588Y38100D02*
X965200Y38100D01*
M02*
