G04 EAGLE Gerber RS-274X export*
G75*
%MOMM*%
%FSLAX34Y34*%
%LPD*%
%INSilkscreen Top*%
%IPPOS*%
%AMOC8*
5,1,8,0,0,1.08239X$1,22.5*%
G01*
%ADD10C,0.203200*%
%ADD11C,0.127000*%
%ADD12C,0.101600*%
%ADD13C,0.152400*%
%ADD14C,0.254000*%
%ADD15R,0.406400X0.711200*%


D10*
X785202Y191516D02*
X790451Y207264D01*
X795700Y191516D01*
X794388Y195453D02*
X786514Y195453D01*
X801720Y194141D02*
X801720Y207264D01*
X801720Y194141D02*
X801722Y194040D01*
X801728Y193940D01*
X801737Y193840D01*
X801751Y193740D01*
X801768Y193641D01*
X801789Y193543D01*
X801814Y193445D01*
X801842Y193349D01*
X801875Y193254D01*
X801910Y193160D01*
X801950Y193067D01*
X801993Y192976D01*
X802039Y192887D01*
X802089Y192800D01*
X802142Y192714D01*
X802198Y192631D01*
X802257Y192550D01*
X802320Y192471D01*
X802385Y192395D01*
X802454Y192321D01*
X802525Y192250D01*
X802599Y192181D01*
X802675Y192116D01*
X802754Y192053D01*
X802835Y191994D01*
X802918Y191938D01*
X803004Y191885D01*
X803091Y191835D01*
X803180Y191789D01*
X803271Y191746D01*
X803364Y191706D01*
X803458Y191671D01*
X803553Y191638D01*
X803649Y191610D01*
X803747Y191585D01*
X803845Y191564D01*
X803944Y191547D01*
X804044Y191533D01*
X804144Y191524D01*
X804244Y191518D01*
X804345Y191516D01*
X812851Y197640D02*
X816788Y197640D01*
X812851Y197640D02*
X812742Y197638D01*
X812633Y197632D01*
X812524Y197622D01*
X812415Y197609D01*
X812307Y197591D01*
X812200Y197570D01*
X812094Y197545D01*
X811988Y197516D01*
X811884Y197483D01*
X811781Y197447D01*
X811679Y197407D01*
X811579Y197363D01*
X811480Y197316D01*
X811384Y197265D01*
X811289Y197211D01*
X811196Y197154D01*
X811105Y197093D01*
X811016Y197029D01*
X810930Y196962D01*
X810846Y196892D01*
X810764Y196819D01*
X810686Y196743D01*
X810610Y196665D01*
X810537Y196583D01*
X810467Y196499D01*
X810400Y196413D01*
X810336Y196324D01*
X810275Y196233D01*
X810218Y196140D01*
X810164Y196045D01*
X810113Y195949D01*
X810066Y195850D01*
X810022Y195750D01*
X809982Y195648D01*
X809946Y195545D01*
X809913Y195441D01*
X809884Y195335D01*
X809859Y195229D01*
X809838Y195122D01*
X809820Y195014D01*
X809807Y194905D01*
X809797Y194796D01*
X809791Y194687D01*
X809789Y194578D01*
X809791Y194469D01*
X809797Y194360D01*
X809807Y194251D01*
X809820Y194142D01*
X809838Y194034D01*
X809859Y193927D01*
X809884Y193821D01*
X809913Y193715D01*
X809946Y193611D01*
X809982Y193508D01*
X810022Y193406D01*
X810066Y193306D01*
X810113Y193207D01*
X810164Y193111D01*
X810218Y193016D01*
X810275Y192923D01*
X810336Y192832D01*
X810400Y192743D01*
X810467Y192657D01*
X810537Y192573D01*
X810610Y192491D01*
X810686Y192413D01*
X810764Y192337D01*
X810846Y192264D01*
X810930Y192194D01*
X811016Y192127D01*
X811105Y192063D01*
X811196Y192002D01*
X811289Y191945D01*
X811384Y191891D01*
X811480Y191840D01*
X811579Y191793D01*
X811679Y191749D01*
X811781Y191709D01*
X811884Y191673D01*
X811988Y191640D01*
X812094Y191611D01*
X812200Y191586D01*
X812307Y191565D01*
X812415Y191547D01*
X812524Y191534D01*
X812633Y191524D01*
X812742Y191518D01*
X812851Y191516D01*
X816788Y191516D01*
X816788Y199390D01*
X816789Y199390D02*
X816787Y199491D01*
X816781Y199591D01*
X816772Y199691D01*
X816758Y199791D01*
X816741Y199890D01*
X816720Y199988D01*
X816695Y200086D01*
X816667Y200182D01*
X816634Y200277D01*
X816599Y200371D01*
X816559Y200464D01*
X816516Y200555D01*
X816470Y200644D01*
X816420Y200731D01*
X816367Y200817D01*
X816311Y200900D01*
X816252Y200981D01*
X816189Y201060D01*
X816124Y201136D01*
X816055Y201210D01*
X815984Y201281D01*
X815910Y201350D01*
X815834Y201415D01*
X815755Y201478D01*
X815674Y201537D01*
X815591Y201593D01*
X815505Y201646D01*
X815418Y201696D01*
X815329Y201742D01*
X815238Y201785D01*
X815145Y201825D01*
X815051Y201860D01*
X814956Y201893D01*
X814860Y201921D01*
X814762Y201946D01*
X814664Y201967D01*
X814565Y201984D01*
X814465Y201998D01*
X814365Y202007D01*
X814265Y202013D01*
X814164Y202015D01*
X810664Y202015D01*
X824569Y202015D02*
X824569Y191516D01*
X824569Y202015D02*
X829818Y202015D01*
X829818Y200265D01*
X835743Y202015D02*
X835743Y191516D01*
X835743Y202015D02*
X843617Y202015D01*
X843718Y202013D01*
X843818Y202007D01*
X843918Y201998D01*
X844018Y201984D01*
X844117Y201967D01*
X844215Y201946D01*
X844313Y201921D01*
X844409Y201893D01*
X844504Y201860D01*
X844598Y201825D01*
X844691Y201785D01*
X844782Y201742D01*
X844871Y201696D01*
X844958Y201646D01*
X845044Y201593D01*
X845127Y201537D01*
X845208Y201478D01*
X845287Y201415D01*
X845363Y201350D01*
X845437Y201281D01*
X845508Y201210D01*
X845577Y201136D01*
X845642Y201060D01*
X845705Y200981D01*
X845764Y200900D01*
X845820Y200817D01*
X845873Y200731D01*
X845923Y200644D01*
X845969Y200555D01*
X846012Y200464D01*
X846052Y200371D01*
X846087Y200277D01*
X846120Y200182D01*
X846148Y200086D01*
X846173Y199988D01*
X846194Y199890D01*
X846211Y199791D01*
X846225Y199691D01*
X846234Y199591D01*
X846240Y199491D01*
X846242Y199390D01*
X846241Y199390D02*
X846241Y191516D01*
X840992Y191516D02*
X840992Y202015D01*
X865601Y191516D02*
X869100Y191516D01*
X865601Y191516D02*
X865484Y191518D01*
X865367Y191524D01*
X865251Y191534D01*
X865134Y191547D01*
X865019Y191565D01*
X864904Y191586D01*
X864790Y191611D01*
X864676Y191640D01*
X864564Y191673D01*
X864453Y191710D01*
X864343Y191750D01*
X864235Y191794D01*
X864128Y191841D01*
X864022Y191892D01*
X863919Y191947D01*
X863817Y192005D01*
X863718Y192066D01*
X863620Y192130D01*
X863525Y192198D01*
X863432Y192269D01*
X863341Y192343D01*
X863253Y192420D01*
X863168Y192500D01*
X863085Y192583D01*
X863005Y192668D01*
X862928Y192756D01*
X862854Y192847D01*
X862783Y192940D01*
X862715Y193035D01*
X862651Y193133D01*
X862590Y193232D01*
X862532Y193334D01*
X862477Y193437D01*
X862426Y193543D01*
X862379Y193650D01*
X862335Y193758D01*
X862295Y193868D01*
X862258Y193979D01*
X862225Y194091D01*
X862196Y194205D01*
X862171Y194319D01*
X862150Y194434D01*
X862132Y194549D01*
X862119Y194666D01*
X862109Y194782D01*
X862103Y194899D01*
X862101Y195016D01*
X862101Y203764D01*
X862103Y203881D01*
X862109Y203998D01*
X862119Y204114D01*
X862132Y204231D01*
X862150Y204346D01*
X862171Y204461D01*
X862196Y204575D01*
X862225Y204689D01*
X862258Y204801D01*
X862295Y204912D01*
X862335Y205022D01*
X862379Y205130D01*
X862426Y205237D01*
X862477Y205343D01*
X862532Y205446D01*
X862590Y205548D01*
X862651Y205647D01*
X862715Y205745D01*
X862783Y205840D01*
X862854Y205933D01*
X862928Y206024D01*
X863005Y206112D01*
X863085Y206197D01*
X863168Y206280D01*
X863253Y206360D01*
X863341Y206437D01*
X863432Y206511D01*
X863525Y206582D01*
X863620Y206650D01*
X863718Y206714D01*
X863817Y206775D01*
X863919Y206833D01*
X864022Y206888D01*
X864128Y206939D01*
X864235Y206986D01*
X864343Y207030D01*
X864453Y207070D01*
X864564Y207107D01*
X864676Y207140D01*
X864790Y207169D01*
X864904Y207194D01*
X865019Y207215D01*
X865134Y207233D01*
X865251Y207246D01*
X865367Y207256D01*
X865484Y207262D01*
X865601Y207264D01*
X869100Y207264D01*
X875187Y207264D02*
X875187Y194141D01*
X875186Y194141D02*
X875188Y194040D01*
X875194Y193940D01*
X875203Y193840D01*
X875217Y193740D01*
X875234Y193641D01*
X875255Y193543D01*
X875280Y193445D01*
X875308Y193349D01*
X875341Y193254D01*
X875376Y193160D01*
X875416Y193067D01*
X875459Y192976D01*
X875505Y192887D01*
X875555Y192800D01*
X875608Y192714D01*
X875664Y192631D01*
X875723Y192550D01*
X875786Y192471D01*
X875851Y192395D01*
X875920Y192321D01*
X875991Y192250D01*
X876065Y192181D01*
X876141Y192116D01*
X876220Y192053D01*
X876301Y191994D01*
X876384Y191938D01*
X876470Y191885D01*
X876557Y191835D01*
X876646Y191789D01*
X876737Y191746D01*
X876830Y191706D01*
X876924Y191671D01*
X877019Y191638D01*
X877115Y191610D01*
X877213Y191585D01*
X877311Y191564D01*
X877410Y191547D01*
X877510Y191533D01*
X877610Y191524D01*
X877710Y191518D01*
X877811Y191516D01*
X883344Y195016D02*
X883344Y198515D01*
X883346Y198633D01*
X883352Y198751D01*
X883362Y198869D01*
X883376Y198986D01*
X883394Y199103D01*
X883416Y199220D01*
X883441Y199335D01*
X883471Y199449D01*
X883505Y199563D01*
X883542Y199675D01*
X883583Y199786D01*
X883628Y199895D01*
X883676Y200003D01*
X883728Y200109D01*
X883784Y200214D01*
X883843Y200316D01*
X883905Y200416D01*
X883971Y200514D01*
X884040Y200610D01*
X884113Y200704D01*
X884188Y200795D01*
X884267Y200883D01*
X884348Y200969D01*
X884433Y201052D01*
X884520Y201132D01*
X884609Y201209D01*
X884702Y201283D01*
X884796Y201353D01*
X884893Y201421D01*
X884993Y201485D01*
X885094Y201546D01*
X885197Y201603D01*
X885303Y201657D01*
X885410Y201708D01*
X885518Y201754D01*
X885628Y201797D01*
X885740Y201836D01*
X885853Y201872D01*
X885967Y201903D01*
X886082Y201931D01*
X886197Y201955D01*
X886314Y201975D01*
X886431Y201991D01*
X886549Y202003D01*
X886667Y202011D01*
X886785Y202015D01*
X886903Y202015D01*
X887021Y202011D01*
X887139Y202003D01*
X887257Y201991D01*
X887374Y201975D01*
X887491Y201955D01*
X887606Y201931D01*
X887721Y201903D01*
X887835Y201872D01*
X887948Y201836D01*
X888060Y201797D01*
X888170Y201754D01*
X888278Y201708D01*
X888385Y201657D01*
X888491Y201603D01*
X888594Y201546D01*
X888695Y201485D01*
X888795Y201421D01*
X888892Y201353D01*
X888986Y201283D01*
X889079Y201209D01*
X889168Y201132D01*
X889255Y201052D01*
X889340Y200969D01*
X889421Y200883D01*
X889500Y200795D01*
X889575Y200704D01*
X889648Y200610D01*
X889717Y200514D01*
X889783Y200416D01*
X889845Y200316D01*
X889904Y200214D01*
X889960Y200109D01*
X890012Y200003D01*
X890060Y199895D01*
X890105Y199786D01*
X890146Y199675D01*
X890183Y199563D01*
X890217Y199449D01*
X890247Y199335D01*
X890272Y199220D01*
X890294Y199103D01*
X890312Y198986D01*
X890326Y198869D01*
X890336Y198751D01*
X890342Y198633D01*
X890344Y198515D01*
X890343Y198515D02*
X890343Y195016D01*
X890344Y195016D02*
X890342Y194898D01*
X890336Y194780D01*
X890326Y194662D01*
X890312Y194545D01*
X890294Y194428D01*
X890272Y194311D01*
X890247Y194196D01*
X890217Y194082D01*
X890183Y193968D01*
X890146Y193856D01*
X890105Y193745D01*
X890060Y193636D01*
X890012Y193528D01*
X889960Y193422D01*
X889904Y193317D01*
X889845Y193215D01*
X889783Y193115D01*
X889717Y193017D01*
X889648Y192921D01*
X889575Y192827D01*
X889500Y192736D01*
X889421Y192648D01*
X889340Y192562D01*
X889255Y192479D01*
X889168Y192399D01*
X889079Y192322D01*
X888986Y192248D01*
X888892Y192178D01*
X888795Y192110D01*
X888695Y192046D01*
X888594Y191985D01*
X888491Y191928D01*
X888385Y191874D01*
X888278Y191823D01*
X888170Y191777D01*
X888060Y191734D01*
X887948Y191695D01*
X887835Y191659D01*
X887721Y191628D01*
X887606Y191600D01*
X887491Y191576D01*
X887374Y191556D01*
X887257Y191540D01*
X887139Y191528D01*
X887021Y191520D01*
X886903Y191516D01*
X886785Y191516D01*
X886667Y191520D01*
X886549Y191528D01*
X886431Y191540D01*
X886314Y191556D01*
X886197Y191576D01*
X886082Y191600D01*
X885967Y191628D01*
X885853Y191659D01*
X885740Y191695D01*
X885628Y191734D01*
X885518Y191777D01*
X885410Y191823D01*
X885303Y191874D01*
X885197Y191928D01*
X885094Y191985D01*
X884993Y192046D01*
X884893Y192110D01*
X884796Y192178D01*
X884702Y192248D01*
X884609Y192322D01*
X884520Y192399D01*
X884433Y192479D01*
X884348Y192562D01*
X884267Y192648D01*
X884188Y192736D01*
X884113Y192827D01*
X884040Y192921D01*
X883971Y193017D01*
X883905Y193115D01*
X883843Y193215D01*
X883784Y193317D01*
X883728Y193422D01*
X883676Y193528D01*
X883628Y193636D01*
X883583Y193745D01*
X883542Y193856D01*
X883505Y193968D01*
X883471Y194082D01*
X883441Y194196D01*
X883416Y194311D01*
X883394Y194428D01*
X883376Y194545D01*
X883362Y194662D01*
X883352Y194780D01*
X883346Y194898D01*
X883344Y195016D01*
X899537Y191516D02*
X903036Y191516D01*
X899537Y191516D02*
X899436Y191518D01*
X899336Y191524D01*
X899236Y191533D01*
X899136Y191547D01*
X899037Y191564D01*
X898939Y191585D01*
X898841Y191610D01*
X898745Y191638D01*
X898650Y191671D01*
X898556Y191706D01*
X898463Y191746D01*
X898372Y191789D01*
X898283Y191835D01*
X898196Y191885D01*
X898110Y191938D01*
X898027Y191994D01*
X897946Y192053D01*
X897867Y192116D01*
X897791Y192181D01*
X897717Y192250D01*
X897646Y192321D01*
X897577Y192395D01*
X897512Y192471D01*
X897449Y192550D01*
X897390Y192631D01*
X897334Y192714D01*
X897281Y192800D01*
X897231Y192887D01*
X897185Y192976D01*
X897142Y193067D01*
X897102Y193160D01*
X897067Y193254D01*
X897034Y193349D01*
X897006Y193445D01*
X896981Y193543D01*
X896960Y193641D01*
X896943Y193740D01*
X896929Y193840D01*
X896920Y193940D01*
X896914Y194040D01*
X896912Y194141D01*
X896912Y199390D01*
X896914Y199491D01*
X896920Y199591D01*
X896929Y199691D01*
X896943Y199791D01*
X896960Y199890D01*
X896981Y199988D01*
X897006Y200086D01*
X897034Y200182D01*
X897067Y200277D01*
X897102Y200371D01*
X897142Y200464D01*
X897185Y200555D01*
X897231Y200644D01*
X897281Y200731D01*
X897334Y200817D01*
X897390Y200900D01*
X897449Y200981D01*
X897512Y201060D01*
X897577Y201136D01*
X897646Y201210D01*
X897717Y201281D01*
X897791Y201350D01*
X897867Y201415D01*
X897946Y201478D01*
X898027Y201537D01*
X898110Y201593D01*
X898196Y201646D01*
X898283Y201696D01*
X898372Y201742D01*
X898463Y201785D01*
X898556Y201825D01*
X898650Y201861D01*
X898745Y201893D01*
X898841Y201921D01*
X898939Y201946D01*
X899037Y201967D01*
X899136Y201984D01*
X899236Y201998D01*
X899336Y202007D01*
X899436Y202013D01*
X899537Y202015D01*
X903036Y202015D01*
X909599Y207264D02*
X909599Y191516D01*
X909599Y196765D02*
X916598Y202015D01*
X912661Y198953D02*
X916598Y191516D01*
X785229Y181864D02*
X785229Y166116D01*
X785229Y181864D02*
X789603Y181864D01*
X789734Y181862D01*
X789865Y181856D01*
X789995Y181846D01*
X790125Y181833D01*
X790255Y181815D01*
X790384Y181794D01*
X790512Y181768D01*
X790640Y181739D01*
X790767Y181706D01*
X790892Y181670D01*
X791017Y181629D01*
X791140Y181585D01*
X791262Y181537D01*
X791382Y181486D01*
X791501Y181431D01*
X791618Y181372D01*
X791733Y181310D01*
X791846Y181245D01*
X791958Y181176D01*
X792067Y181104D01*
X792174Y181029D01*
X792279Y180950D01*
X792381Y180869D01*
X792481Y180784D01*
X792578Y180696D01*
X792673Y180606D01*
X792765Y180513D01*
X792854Y180417D01*
X792940Y180318D01*
X793023Y180217D01*
X793103Y180114D01*
X793180Y180008D01*
X793253Y179900D01*
X793324Y179789D01*
X793391Y179677D01*
X793455Y179563D01*
X793515Y179447D01*
X793572Y179329D01*
X793625Y179209D01*
X793675Y179088D01*
X793721Y178965D01*
X793763Y178842D01*
X793801Y178717D01*
X793836Y178590D01*
X793867Y178463D01*
X793895Y178335D01*
X793918Y178207D01*
X793937Y178077D01*
X793953Y177947D01*
X793965Y177817D01*
X793973Y177686D01*
X793977Y177555D01*
X793977Y177425D01*
X793973Y177294D01*
X793965Y177163D01*
X793953Y177033D01*
X793937Y176903D01*
X793918Y176773D01*
X793895Y176645D01*
X793867Y176517D01*
X793836Y176390D01*
X793801Y176263D01*
X793763Y176138D01*
X793721Y176015D01*
X793675Y175892D01*
X793625Y175771D01*
X793572Y175651D01*
X793515Y175533D01*
X793455Y175417D01*
X793391Y175303D01*
X793324Y175191D01*
X793253Y175080D01*
X793180Y174972D01*
X793103Y174866D01*
X793023Y174763D01*
X792940Y174662D01*
X792854Y174563D01*
X792765Y174467D01*
X792673Y174374D01*
X792578Y174284D01*
X792481Y174196D01*
X792381Y174111D01*
X792279Y174030D01*
X792174Y173951D01*
X792067Y173876D01*
X791958Y173804D01*
X791846Y173735D01*
X791733Y173670D01*
X791618Y173608D01*
X791501Y173549D01*
X791382Y173494D01*
X791262Y173443D01*
X791140Y173395D01*
X791017Y173351D01*
X790892Y173310D01*
X790767Y173274D01*
X790640Y173241D01*
X790512Y173212D01*
X790384Y173186D01*
X790255Y173165D01*
X790125Y173147D01*
X789995Y173134D01*
X789865Y173124D01*
X789734Y173118D01*
X789603Y173116D01*
X789603Y173115D02*
X785229Y173115D01*
X790478Y173115D02*
X793978Y166116D01*
X803207Y166116D02*
X807582Y166116D01*
X803207Y166116D02*
X803106Y166118D01*
X803006Y166124D01*
X802906Y166133D01*
X802806Y166147D01*
X802707Y166164D01*
X802609Y166185D01*
X802511Y166210D01*
X802415Y166238D01*
X802320Y166271D01*
X802226Y166306D01*
X802133Y166346D01*
X802042Y166389D01*
X801953Y166435D01*
X801866Y166485D01*
X801780Y166538D01*
X801697Y166594D01*
X801616Y166653D01*
X801537Y166716D01*
X801461Y166781D01*
X801387Y166850D01*
X801316Y166921D01*
X801247Y166995D01*
X801182Y167071D01*
X801119Y167150D01*
X801060Y167231D01*
X801004Y167314D01*
X800951Y167400D01*
X800901Y167487D01*
X800855Y167576D01*
X800812Y167667D01*
X800772Y167760D01*
X800737Y167854D01*
X800704Y167949D01*
X800676Y168045D01*
X800651Y168143D01*
X800630Y168241D01*
X800613Y168340D01*
X800599Y168440D01*
X800590Y168540D01*
X800584Y168640D01*
X800582Y168741D01*
X800583Y168741D02*
X800583Y173115D01*
X800582Y173115D02*
X800584Y173233D01*
X800590Y173351D01*
X800600Y173469D01*
X800614Y173586D01*
X800632Y173703D01*
X800654Y173820D01*
X800679Y173935D01*
X800709Y174049D01*
X800743Y174163D01*
X800780Y174275D01*
X800821Y174386D01*
X800866Y174495D01*
X800914Y174603D01*
X800966Y174709D01*
X801022Y174814D01*
X801081Y174916D01*
X801143Y175016D01*
X801209Y175114D01*
X801278Y175210D01*
X801351Y175304D01*
X801426Y175395D01*
X801505Y175483D01*
X801586Y175569D01*
X801671Y175652D01*
X801758Y175732D01*
X801847Y175809D01*
X801940Y175883D01*
X802034Y175953D01*
X802131Y176021D01*
X802231Y176085D01*
X802332Y176146D01*
X802435Y176203D01*
X802541Y176257D01*
X802648Y176308D01*
X802756Y176354D01*
X802866Y176397D01*
X802978Y176436D01*
X803091Y176472D01*
X803205Y176503D01*
X803320Y176531D01*
X803435Y176555D01*
X803552Y176575D01*
X803669Y176591D01*
X803787Y176603D01*
X803905Y176611D01*
X804023Y176615D01*
X804141Y176615D01*
X804259Y176611D01*
X804377Y176603D01*
X804495Y176591D01*
X804612Y176575D01*
X804729Y176555D01*
X804844Y176531D01*
X804959Y176503D01*
X805073Y176472D01*
X805186Y176436D01*
X805298Y176397D01*
X805408Y176354D01*
X805516Y176308D01*
X805623Y176257D01*
X805729Y176203D01*
X805832Y176146D01*
X805933Y176085D01*
X806033Y176021D01*
X806130Y175953D01*
X806224Y175883D01*
X806317Y175809D01*
X806406Y175732D01*
X806493Y175652D01*
X806578Y175569D01*
X806659Y175483D01*
X806738Y175395D01*
X806813Y175304D01*
X806886Y175210D01*
X806955Y175114D01*
X807021Y175016D01*
X807083Y174916D01*
X807142Y174814D01*
X807198Y174709D01*
X807250Y174603D01*
X807298Y174495D01*
X807343Y174386D01*
X807384Y174275D01*
X807421Y174163D01*
X807455Y174049D01*
X807485Y173935D01*
X807510Y173820D01*
X807532Y173703D01*
X807550Y173586D01*
X807564Y173469D01*
X807574Y173351D01*
X807580Y173233D01*
X807582Y173115D01*
X807582Y171365D01*
X800583Y171365D01*
X813609Y176615D02*
X817108Y166116D01*
X820608Y176615D01*
X835139Y178364D02*
X839513Y181864D01*
X839513Y166116D01*
X835139Y166116D02*
X843887Y166116D01*
X850017Y166116D02*
X850017Y166991D01*
X850892Y166991D01*
X850892Y166116D01*
X850017Y166116D01*
X857022Y173990D02*
X857026Y174300D01*
X857037Y174609D01*
X857055Y174919D01*
X857081Y175227D01*
X857114Y175535D01*
X857155Y175843D01*
X857203Y176149D01*
X857258Y176454D01*
X857320Y176757D01*
X857390Y177059D01*
X857467Y177359D01*
X857551Y177657D01*
X857642Y177953D01*
X857740Y178247D01*
X857845Y178539D01*
X857957Y178828D01*
X858076Y179114D01*
X858202Y179397D01*
X858334Y179677D01*
X858335Y179677D02*
X858373Y179782D01*
X858415Y179885D01*
X858460Y179987D01*
X858508Y180088D01*
X858560Y180186D01*
X858616Y180283D01*
X858674Y180378D01*
X858736Y180471D01*
X858801Y180561D01*
X858870Y180649D01*
X858941Y180735D01*
X859015Y180819D01*
X859092Y180899D01*
X859171Y180978D01*
X859254Y181053D01*
X859339Y181125D01*
X859426Y181195D01*
X859516Y181261D01*
X859607Y181324D01*
X859701Y181384D01*
X859797Y181441D01*
X859895Y181495D01*
X859995Y181545D01*
X860096Y181591D01*
X860199Y181634D01*
X860304Y181674D01*
X860409Y181710D01*
X860516Y181742D01*
X860624Y181770D01*
X860733Y181795D01*
X860842Y181816D01*
X860952Y181833D01*
X861063Y181847D01*
X861174Y181856D01*
X861285Y181862D01*
X861397Y181864D01*
X861509Y181862D01*
X861620Y181856D01*
X861731Y181847D01*
X861842Y181833D01*
X861952Y181816D01*
X862062Y181795D01*
X862170Y181770D01*
X862278Y181742D01*
X862385Y181710D01*
X862490Y181674D01*
X862595Y181634D01*
X862698Y181591D01*
X862799Y181545D01*
X862899Y181495D01*
X862997Y181441D01*
X863093Y181384D01*
X863187Y181324D01*
X863278Y181261D01*
X863368Y181195D01*
X863455Y181125D01*
X863540Y181053D01*
X863623Y180978D01*
X863702Y180899D01*
X863779Y180819D01*
X863853Y180735D01*
X863924Y180649D01*
X863993Y180561D01*
X864058Y180471D01*
X864120Y180378D01*
X864178Y180283D01*
X864234Y180186D01*
X864286Y180088D01*
X864334Y179987D01*
X864379Y179885D01*
X864421Y179782D01*
X864459Y179677D01*
X864591Y179397D01*
X864717Y179113D01*
X864836Y178827D01*
X864948Y178538D01*
X865053Y178247D01*
X865151Y177953D01*
X865242Y177657D01*
X865326Y177359D01*
X865403Y177059D01*
X865473Y176757D01*
X865535Y176453D01*
X865590Y176149D01*
X865638Y175843D01*
X865679Y175535D01*
X865712Y175227D01*
X865738Y174919D01*
X865756Y174609D01*
X865767Y174300D01*
X865771Y173990D01*
X857022Y173990D02*
X857026Y173680D01*
X857037Y173371D01*
X857055Y173061D01*
X857081Y172753D01*
X857114Y172445D01*
X857155Y172137D01*
X857203Y171831D01*
X857258Y171526D01*
X857320Y171223D01*
X857390Y170921D01*
X857467Y170621D01*
X857551Y170323D01*
X857642Y170027D01*
X857740Y169733D01*
X857845Y169441D01*
X857957Y169152D01*
X858076Y168866D01*
X858202Y168583D01*
X858334Y168303D01*
X858335Y168303D02*
X858373Y168198D01*
X858415Y168095D01*
X858460Y167993D01*
X858508Y167892D01*
X858560Y167794D01*
X858616Y167697D01*
X858674Y167602D01*
X858736Y167509D01*
X858801Y167419D01*
X858870Y167331D01*
X858941Y167245D01*
X859015Y167161D01*
X859092Y167081D01*
X859171Y167002D01*
X859254Y166927D01*
X859339Y166855D01*
X859426Y166785D01*
X859516Y166719D01*
X859607Y166656D01*
X859701Y166596D01*
X859797Y166539D01*
X859895Y166485D01*
X859995Y166435D01*
X860096Y166389D01*
X860199Y166346D01*
X860304Y166306D01*
X860409Y166270D01*
X860516Y166238D01*
X860624Y166210D01*
X860733Y166185D01*
X860842Y166164D01*
X860952Y166147D01*
X861063Y166133D01*
X861174Y166124D01*
X861285Y166118D01*
X861397Y166116D01*
X864460Y168303D02*
X864592Y168583D01*
X864718Y168866D01*
X864837Y169152D01*
X864949Y169441D01*
X865054Y169733D01*
X865152Y170027D01*
X865243Y170323D01*
X865327Y170621D01*
X865404Y170921D01*
X865474Y171223D01*
X865536Y171526D01*
X865591Y171831D01*
X865639Y172137D01*
X865680Y172445D01*
X865713Y172753D01*
X865739Y173061D01*
X865757Y173371D01*
X865768Y173680D01*
X865772Y173990D01*
X864459Y168303D02*
X864421Y168198D01*
X864379Y168095D01*
X864334Y167993D01*
X864286Y167892D01*
X864234Y167794D01*
X864178Y167697D01*
X864120Y167602D01*
X864058Y167509D01*
X863993Y167419D01*
X863924Y167331D01*
X863853Y167245D01*
X863779Y167161D01*
X863702Y167081D01*
X863623Y167002D01*
X863540Y166927D01*
X863455Y166855D01*
X863368Y166785D01*
X863278Y166719D01*
X863187Y166656D01*
X863093Y166596D01*
X862997Y166539D01*
X862899Y166485D01*
X862799Y166435D01*
X862698Y166389D01*
X862595Y166346D01*
X862490Y166306D01*
X862385Y166270D01*
X862278Y166238D01*
X862170Y166210D01*
X862061Y166185D01*
X861952Y166164D01*
X861842Y166147D01*
X861731Y166133D01*
X861620Y166124D01*
X861509Y166118D01*
X861397Y166116D01*
X857897Y169616D02*
X864896Y178364D01*
X796532Y144216D02*
X796530Y144099D01*
X796524Y143982D01*
X796514Y143866D01*
X796501Y143749D01*
X796483Y143634D01*
X796462Y143519D01*
X796437Y143405D01*
X796408Y143291D01*
X796375Y143179D01*
X796338Y143068D01*
X796298Y142958D01*
X796254Y142850D01*
X796207Y142743D01*
X796156Y142637D01*
X796101Y142534D01*
X796043Y142432D01*
X795982Y142333D01*
X795918Y142235D01*
X795850Y142140D01*
X795779Y142047D01*
X795705Y141956D01*
X795628Y141868D01*
X795548Y141783D01*
X795465Y141700D01*
X795380Y141620D01*
X795292Y141543D01*
X795201Y141469D01*
X795108Y141398D01*
X795013Y141330D01*
X794915Y141266D01*
X794816Y141205D01*
X794714Y141147D01*
X794611Y141092D01*
X794505Y141041D01*
X794398Y140994D01*
X794290Y140950D01*
X794180Y140910D01*
X794069Y140873D01*
X793957Y140840D01*
X793843Y140811D01*
X793729Y140786D01*
X793614Y140765D01*
X793498Y140747D01*
X793382Y140734D01*
X793266Y140724D01*
X793149Y140718D01*
X793032Y140716D01*
X792855Y140718D01*
X792678Y140724D01*
X792502Y140735D01*
X792325Y140750D01*
X792150Y140769D01*
X791974Y140792D01*
X791800Y140819D01*
X791625Y140851D01*
X791452Y140887D01*
X791280Y140927D01*
X791109Y140971D01*
X790938Y141019D01*
X790769Y141071D01*
X790602Y141127D01*
X790435Y141187D01*
X790270Y141251D01*
X790107Y141319D01*
X789945Y141391D01*
X789786Y141467D01*
X789628Y141546D01*
X789472Y141630D01*
X789318Y141717D01*
X789166Y141807D01*
X789016Y141902D01*
X788869Y142000D01*
X788724Y142101D01*
X788581Y142206D01*
X788441Y142314D01*
X788304Y142425D01*
X788169Y142540D01*
X788038Y142658D01*
X787909Y142779D01*
X787783Y142903D01*
X788220Y152964D02*
X788222Y153081D01*
X788228Y153198D01*
X788238Y153314D01*
X788251Y153431D01*
X788269Y153546D01*
X788290Y153661D01*
X788315Y153775D01*
X788344Y153889D01*
X788377Y154001D01*
X788414Y154112D01*
X788454Y154222D01*
X788498Y154330D01*
X788545Y154437D01*
X788596Y154543D01*
X788651Y154646D01*
X788709Y154748D01*
X788770Y154847D01*
X788834Y154945D01*
X788902Y155040D01*
X788973Y155133D01*
X789047Y155224D01*
X789124Y155312D01*
X789204Y155397D01*
X789287Y155480D01*
X789372Y155560D01*
X789460Y155637D01*
X789551Y155711D01*
X789644Y155782D01*
X789739Y155850D01*
X789837Y155914D01*
X789936Y155975D01*
X790038Y156033D01*
X790141Y156088D01*
X790247Y156139D01*
X790354Y156186D01*
X790462Y156230D01*
X790572Y156270D01*
X790683Y156307D01*
X790795Y156340D01*
X790909Y156369D01*
X791023Y156394D01*
X791138Y156415D01*
X791253Y156433D01*
X791370Y156446D01*
X791486Y156456D01*
X791603Y156462D01*
X791720Y156464D01*
X791876Y156462D01*
X792033Y156457D01*
X792189Y156447D01*
X792345Y156434D01*
X792500Y156417D01*
X792655Y156397D01*
X792810Y156373D01*
X792964Y156345D01*
X793117Y156314D01*
X793269Y156279D01*
X793421Y156240D01*
X793571Y156197D01*
X793721Y156152D01*
X793869Y156102D01*
X794016Y156049D01*
X794162Y155993D01*
X794307Y155933D01*
X794450Y155869D01*
X794591Y155803D01*
X794731Y155733D01*
X794869Y155659D01*
X795005Y155582D01*
X795140Y155503D01*
X795272Y155419D01*
X795403Y155333D01*
X795531Y155244D01*
X795657Y155152D01*
X789971Y149902D02*
X789872Y149962D01*
X789776Y150026D01*
X789682Y150092D01*
X789590Y150161D01*
X789500Y150234D01*
X789412Y150309D01*
X789328Y150387D01*
X789245Y150468D01*
X789166Y150551D01*
X789089Y150637D01*
X789015Y150725D01*
X788943Y150816D01*
X788875Y150909D01*
X788810Y151004D01*
X788748Y151102D01*
X788689Y151201D01*
X788634Y151302D01*
X788581Y151405D01*
X788533Y151509D01*
X788487Y151615D01*
X788445Y151722D01*
X788406Y151831D01*
X788371Y151941D01*
X788340Y152052D01*
X788312Y152164D01*
X788288Y152276D01*
X788268Y152390D01*
X788251Y152504D01*
X788238Y152619D01*
X788228Y152734D01*
X788223Y152849D01*
X788221Y152964D01*
X794782Y147278D02*
X794881Y147218D01*
X794977Y147154D01*
X795071Y147088D01*
X795163Y147019D01*
X795253Y146946D01*
X795341Y146871D01*
X795425Y146793D01*
X795508Y146712D01*
X795587Y146629D01*
X795664Y146543D01*
X795738Y146455D01*
X795810Y146364D01*
X795878Y146271D01*
X795943Y146176D01*
X796005Y146078D01*
X796064Y145979D01*
X796119Y145878D01*
X796172Y145775D01*
X796221Y145671D01*
X796266Y145565D01*
X796308Y145458D01*
X796347Y145349D01*
X796382Y145239D01*
X796413Y145128D01*
X796441Y145016D01*
X796465Y144904D01*
X796485Y144790D01*
X796502Y144676D01*
X796515Y144561D01*
X796525Y144446D01*
X796530Y144331D01*
X796532Y144216D01*
X794782Y147278D02*
X789970Y149902D01*
X803668Y156464D02*
X803668Y140716D01*
X803668Y156464D02*
X808043Y156464D01*
X808174Y156462D01*
X808305Y156456D01*
X808435Y156446D01*
X808565Y156433D01*
X808695Y156415D01*
X808824Y156394D01*
X808952Y156368D01*
X809080Y156339D01*
X809207Y156306D01*
X809332Y156270D01*
X809457Y156229D01*
X809580Y156185D01*
X809702Y156137D01*
X809822Y156086D01*
X809941Y156031D01*
X810058Y155972D01*
X810173Y155910D01*
X810286Y155845D01*
X810398Y155776D01*
X810507Y155704D01*
X810614Y155629D01*
X810719Y155550D01*
X810821Y155469D01*
X810921Y155384D01*
X811018Y155296D01*
X811113Y155206D01*
X811205Y155113D01*
X811294Y155017D01*
X811380Y154918D01*
X811463Y154817D01*
X811543Y154714D01*
X811620Y154608D01*
X811693Y154500D01*
X811764Y154389D01*
X811831Y154277D01*
X811895Y154163D01*
X811955Y154047D01*
X812012Y153929D01*
X812065Y153809D01*
X812115Y153688D01*
X812161Y153565D01*
X812203Y153442D01*
X812241Y153317D01*
X812276Y153190D01*
X812307Y153063D01*
X812335Y152935D01*
X812358Y152807D01*
X812377Y152677D01*
X812393Y152547D01*
X812405Y152417D01*
X812413Y152286D01*
X812417Y152155D01*
X812417Y152025D01*
X812413Y151894D01*
X812405Y151763D01*
X812393Y151633D01*
X812377Y151503D01*
X812358Y151373D01*
X812335Y151245D01*
X812307Y151117D01*
X812276Y150990D01*
X812241Y150863D01*
X812203Y150738D01*
X812161Y150615D01*
X812115Y150492D01*
X812065Y150371D01*
X812012Y150251D01*
X811955Y150133D01*
X811895Y150017D01*
X811831Y149903D01*
X811764Y149791D01*
X811693Y149680D01*
X811620Y149572D01*
X811543Y149466D01*
X811463Y149363D01*
X811380Y149262D01*
X811294Y149163D01*
X811205Y149067D01*
X811113Y148974D01*
X811018Y148884D01*
X810921Y148796D01*
X810821Y148711D01*
X810719Y148630D01*
X810614Y148551D01*
X810507Y148476D01*
X810398Y148404D01*
X810286Y148335D01*
X810173Y148270D01*
X810058Y148208D01*
X809941Y148149D01*
X809822Y148094D01*
X809702Y148043D01*
X809580Y147995D01*
X809457Y147951D01*
X809332Y147910D01*
X809207Y147874D01*
X809080Y147841D01*
X808952Y147812D01*
X808824Y147786D01*
X808695Y147765D01*
X808565Y147747D01*
X808435Y147734D01*
X808305Y147724D01*
X808174Y147718D01*
X808043Y147716D01*
X808043Y147715D02*
X803668Y147715D01*
D11*
X790900Y584200D02*
X790918Y585672D01*
X790972Y587144D01*
X791063Y588614D01*
X791189Y590081D01*
X791351Y591545D01*
X791549Y593004D01*
X791783Y594458D01*
X792053Y595905D01*
X792358Y597346D01*
X792698Y598779D01*
X793073Y600203D01*
X793484Y601617D01*
X793928Y603021D01*
X794407Y604413D01*
X794920Y605794D01*
X795467Y607161D01*
X796047Y608514D01*
X796661Y609853D01*
X797307Y611177D01*
X797985Y612484D01*
X798695Y613774D01*
X799436Y615046D01*
X800209Y616300D01*
X801012Y617534D01*
X801845Y618748D01*
X802708Y619942D01*
X803599Y621114D01*
X804519Y622264D01*
X805467Y623390D01*
X806443Y624494D01*
X807445Y625572D01*
X808474Y626626D01*
X809528Y627655D01*
X810606Y628657D01*
X811710Y629633D01*
X812836Y630581D01*
X813986Y631501D01*
X815158Y632392D01*
X816352Y633255D01*
X817566Y634088D01*
X818800Y634891D01*
X820054Y635664D01*
X821326Y636405D01*
X822616Y637115D01*
X823923Y637793D01*
X825247Y638439D01*
X826586Y639053D01*
X827939Y639633D01*
X829306Y640180D01*
X830687Y640693D01*
X832079Y641172D01*
X833483Y641616D01*
X834897Y642027D01*
X836321Y642402D01*
X837754Y642742D01*
X839195Y643047D01*
X840642Y643317D01*
X842096Y643551D01*
X843555Y643749D01*
X845019Y643911D01*
X846486Y644037D01*
X847956Y644128D01*
X849428Y644182D01*
X850900Y644200D01*
X852372Y644182D01*
X853844Y644128D01*
X855314Y644037D01*
X856781Y643911D01*
X858245Y643749D01*
X859704Y643551D01*
X861158Y643317D01*
X862605Y643047D01*
X864046Y642742D01*
X865479Y642402D01*
X866903Y642027D01*
X868317Y641616D01*
X869721Y641172D01*
X871113Y640693D01*
X872494Y640180D01*
X873861Y639633D01*
X875214Y639053D01*
X876553Y638439D01*
X877877Y637793D01*
X879184Y637115D01*
X880474Y636405D01*
X881746Y635664D01*
X883000Y634891D01*
X884234Y634088D01*
X885448Y633255D01*
X886642Y632392D01*
X887814Y631501D01*
X888964Y630581D01*
X890090Y629633D01*
X891194Y628657D01*
X892272Y627655D01*
X893326Y626626D01*
X894355Y625572D01*
X895357Y624494D01*
X896333Y623390D01*
X897281Y622264D01*
X898201Y621114D01*
X899092Y619942D01*
X899955Y618748D01*
X900788Y617534D01*
X901591Y616300D01*
X902364Y615046D01*
X903105Y613774D01*
X903815Y612484D01*
X904493Y611177D01*
X905139Y609853D01*
X905753Y608514D01*
X906333Y607161D01*
X906880Y605794D01*
X907393Y604413D01*
X907872Y603021D01*
X908316Y601617D01*
X908727Y600203D01*
X909102Y598779D01*
X909442Y597346D01*
X909747Y595905D01*
X910017Y594458D01*
X910251Y593004D01*
X910449Y591545D01*
X910611Y590081D01*
X910737Y588614D01*
X910828Y587144D01*
X910882Y585672D01*
X910900Y584200D01*
X910882Y582728D01*
X910828Y581256D01*
X910737Y579786D01*
X910611Y578319D01*
X910449Y576855D01*
X910251Y575396D01*
X910017Y573942D01*
X909747Y572495D01*
X909442Y571054D01*
X909102Y569621D01*
X908727Y568197D01*
X908316Y566783D01*
X907872Y565379D01*
X907393Y563987D01*
X906880Y562606D01*
X906333Y561239D01*
X905753Y559886D01*
X905139Y558547D01*
X904493Y557223D01*
X903815Y555916D01*
X903105Y554626D01*
X902364Y553354D01*
X901591Y552100D01*
X900788Y550866D01*
X899955Y549652D01*
X899092Y548458D01*
X898201Y547286D01*
X897281Y546136D01*
X896333Y545010D01*
X895357Y543906D01*
X894355Y542828D01*
X893326Y541774D01*
X892272Y540745D01*
X891194Y539743D01*
X890090Y538767D01*
X888964Y537819D01*
X887814Y536899D01*
X886642Y536008D01*
X885448Y535145D01*
X884234Y534312D01*
X883000Y533509D01*
X881746Y532736D01*
X880474Y531995D01*
X879184Y531285D01*
X877877Y530607D01*
X876553Y529961D01*
X875214Y529347D01*
X873861Y528767D01*
X872494Y528220D01*
X871113Y527707D01*
X869721Y527228D01*
X868317Y526784D01*
X866903Y526373D01*
X865479Y525998D01*
X864046Y525658D01*
X862605Y525353D01*
X861158Y525083D01*
X859704Y524849D01*
X858245Y524651D01*
X856781Y524489D01*
X855314Y524363D01*
X853844Y524272D01*
X852372Y524218D01*
X850900Y524200D01*
X849428Y524218D01*
X847956Y524272D01*
X846486Y524363D01*
X845019Y524489D01*
X843555Y524651D01*
X842096Y524849D01*
X840642Y525083D01*
X839195Y525353D01*
X837754Y525658D01*
X836321Y525998D01*
X834897Y526373D01*
X833483Y526784D01*
X832079Y527228D01*
X830687Y527707D01*
X829306Y528220D01*
X827939Y528767D01*
X826586Y529347D01*
X825247Y529961D01*
X823923Y530607D01*
X822616Y531285D01*
X821326Y531995D01*
X820054Y532736D01*
X818800Y533509D01*
X817566Y534312D01*
X816352Y535145D01*
X815158Y536008D01*
X813986Y536899D01*
X812836Y537819D01*
X811710Y538767D01*
X810606Y539743D01*
X809528Y540745D01*
X808474Y541774D01*
X807445Y542828D01*
X806443Y543906D01*
X805467Y545010D01*
X804519Y546136D01*
X803599Y547286D01*
X802708Y548458D01*
X801845Y549652D01*
X801012Y550866D01*
X800209Y552100D01*
X799436Y553354D01*
X798695Y554626D01*
X797985Y555916D01*
X797307Y557223D01*
X796661Y558547D01*
X796047Y559886D01*
X795467Y561239D01*
X794920Y562606D01*
X794407Y563987D01*
X793928Y565379D01*
X793484Y566783D01*
X793073Y568197D01*
X792698Y569621D01*
X792358Y571054D01*
X792053Y572495D01*
X791783Y573942D01*
X791549Y575396D01*
X791351Y576855D01*
X791189Y578319D01*
X791063Y579786D01*
X790972Y581256D01*
X790918Y582728D01*
X790900Y584200D01*
X839400Y584200D02*
X839403Y584482D01*
X839414Y584764D01*
X839431Y585046D01*
X839455Y585327D01*
X839486Y585608D01*
X839524Y585887D01*
X839569Y586166D01*
X839621Y586444D01*
X839679Y586720D01*
X839745Y586994D01*
X839817Y587267D01*
X839895Y587538D01*
X839980Y587807D01*
X840072Y588074D01*
X840171Y588339D01*
X840275Y588601D01*
X840387Y588860D01*
X840504Y589117D01*
X840628Y589371D01*
X840758Y589621D01*
X840894Y589868D01*
X841036Y590112D01*
X841184Y590352D01*
X841338Y590589D01*
X841498Y590822D01*
X841663Y591051D01*
X841834Y591275D01*
X842010Y591496D01*
X842192Y591711D01*
X842379Y591923D01*
X842571Y592130D01*
X842768Y592332D01*
X842970Y592529D01*
X843177Y592721D01*
X843389Y592908D01*
X843604Y593090D01*
X843825Y593266D01*
X844049Y593437D01*
X844278Y593602D01*
X844511Y593762D01*
X844748Y593916D01*
X844988Y594064D01*
X845232Y594206D01*
X845479Y594342D01*
X845729Y594472D01*
X845983Y594596D01*
X846240Y594713D01*
X846499Y594825D01*
X846761Y594929D01*
X847026Y595028D01*
X847293Y595120D01*
X847562Y595205D01*
X847833Y595283D01*
X848106Y595355D01*
X848380Y595421D01*
X848656Y595479D01*
X848934Y595531D01*
X849213Y595576D01*
X849492Y595614D01*
X849773Y595645D01*
X850054Y595669D01*
X850336Y595686D01*
X850618Y595697D01*
X850900Y595700D01*
X851182Y595697D01*
X851464Y595686D01*
X851746Y595669D01*
X852027Y595645D01*
X852308Y595614D01*
X852587Y595576D01*
X852866Y595531D01*
X853144Y595479D01*
X853420Y595421D01*
X853694Y595355D01*
X853967Y595283D01*
X854238Y595205D01*
X854507Y595120D01*
X854774Y595028D01*
X855039Y594929D01*
X855301Y594825D01*
X855560Y594713D01*
X855817Y594596D01*
X856071Y594472D01*
X856321Y594342D01*
X856568Y594206D01*
X856812Y594064D01*
X857052Y593916D01*
X857289Y593762D01*
X857522Y593602D01*
X857751Y593437D01*
X857975Y593266D01*
X858196Y593090D01*
X858411Y592908D01*
X858623Y592721D01*
X858830Y592529D01*
X859032Y592332D01*
X859229Y592130D01*
X859421Y591923D01*
X859608Y591711D01*
X859790Y591496D01*
X859966Y591275D01*
X860137Y591051D01*
X860302Y590822D01*
X860462Y590589D01*
X860616Y590352D01*
X860764Y590112D01*
X860906Y589868D01*
X861042Y589621D01*
X861172Y589371D01*
X861296Y589117D01*
X861413Y588860D01*
X861525Y588601D01*
X861629Y588339D01*
X861728Y588074D01*
X861820Y587807D01*
X861905Y587538D01*
X861983Y587267D01*
X862055Y586994D01*
X862121Y586720D01*
X862179Y586444D01*
X862231Y586166D01*
X862276Y585887D01*
X862314Y585608D01*
X862345Y585327D01*
X862369Y585046D01*
X862386Y584764D01*
X862397Y584482D01*
X862400Y584200D01*
X862397Y583918D01*
X862386Y583636D01*
X862369Y583354D01*
X862345Y583073D01*
X862314Y582792D01*
X862276Y582513D01*
X862231Y582234D01*
X862179Y581956D01*
X862121Y581680D01*
X862055Y581406D01*
X861983Y581133D01*
X861905Y580862D01*
X861820Y580593D01*
X861728Y580326D01*
X861629Y580061D01*
X861525Y579799D01*
X861413Y579540D01*
X861296Y579283D01*
X861172Y579029D01*
X861042Y578779D01*
X860906Y578532D01*
X860764Y578288D01*
X860616Y578048D01*
X860462Y577811D01*
X860302Y577578D01*
X860137Y577349D01*
X859966Y577125D01*
X859790Y576904D01*
X859608Y576689D01*
X859421Y576477D01*
X859229Y576270D01*
X859032Y576068D01*
X858830Y575871D01*
X858623Y575679D01*
X858411Y575492D01*
X858196Y575310D01*
X857975Y575134D01*
X857751Y574963D01*
X857522Y574798D01*
X857289Y574638D01*
X857052Y574484D01*
X856812Y574336D01*
X856568Y574194D01*
X856321Y574058D01*
X856071Y573928D01*
X855817Y573804D01*
X855560Y573687D01*
X855301Y573575D01*
X855039Y573471D01*
X854774Y573372D01*
X854507Y573280D01*
X854238Y573195D01*
X853967Y573117D01*
X853694Y573045D01*
X853420Y572979D01*
X853144Y572921D01*
X852866Y572869D01*
X852587Y572824D01*
X852308Y572786D01*
X852027Y572755D01*
X851746Y572731D01*
X851464Y572714D01*
X851182Y572703D01*
X850900Y572700D01*
X850618Y572703D01*
X850336Y572714D01*
X850054Y572731D01*
X849773Y572755D01*
X849492Y572786D01*
X849213Y572824D01*
X848934Y572869D01*
X848656Y572921D01*
X848380Y572979D01*
X848106Y573045D01*
X847833Y573117D01*
X847562Y573195D01*
X847293Y573280D01*
X847026Y573372D01*
X846761Y573471D01*
X846499Y573575D01*
X846240Y573687D01*
X845983Y573804D01*
X845729Y573928D01*
X845479Y574058D01*
X845232Y574194D01*
X844988Y574336D01*
X844748Y574484D01*
X844511Y574638D01*
X844278Y574798D01*
X844049Y574963D01*
X843825Y575134D01*
X843604Y575310D01*
X843389Y575492D01*
X843177Y575679D01*
X842970Y575871D01*
X842768Y576068D01*
X842571Y576270D01*
X842379Y576477D01*
X842192Y576689D01*
X842010Y576904D01*
X841834Y577125D01*
X841663Y577349D01*
X841498Y577578D01*
X841338Y577811D01*
X841184Y578048D01*
X841036Y578288D01*
X840894Y578532D01*
X840758Y578779D01*
X840628Y579029D01*
X840504Y579283D01*
X840387Y579540D01*
X840275Y579799D01*
X840171Y580061D01*
X840072Y580326D01*
X839980Y580593D01*
X839895Y580862D01*
X839817Y581133D01*
X839745Y581406D01*
X839679Y581680D01*
X839621Y581956D01*
X839569Y582234D01*
X839524Y582513D01*
X839486Y582792D01*
X839455Y583073D01*
X839431Y583354D01*
X839414Y583636D01*
X839403Y583918D01*
X839400Y584200D01*
D12*
X834197Y551252D02*
X826408Y551252D01*
X830303Y555146D02*
X830303Y547357D01*
X834197Y616252D02*
X826408Y616252D01*
D13*
X826262Y502271D02*
X829366Y502271D01*
X829366Y502270D02*
X829477Y502268D01*
X829587Y502262D01*
X829698Y502252D01*
X829808Y502238D01*
X829917Y502221D01*
X830026Y502199D01*
X830134Y502174D01*
X830240Y502144D01*
X830346Y502111D01*
X830451Y502074D01*
X830554Y502034D01*
X830655Y501989D01*
X830755Y501942D01*
X830854Y501890D01*
X830950Y501835D01*
X831044Y501777D01*
X831136Y501716D01*
X831226Y501651D01*
X831314Y501583D01*
X831399Y501512D01*
X831481Y501438D01*
X831561Y501361D01*
X831638Y501281D01*
X831712Y501199D01*
X831783Y501114D01*
X831851Y501026D01*
X831916Y500936D01*
X831977Y500844D01*
X832035Y500750D01*
X832090Y500654D01*
X832142Y500555D01*
X832189Y500455D01*
X832234Y500354D01*
X832274Y500251D01*
X832311Y500146D01*
X832344Y500040D01*
X832374Y499934D01*
X832399Y499826D01*
X832421Y499717D01*
X832438Y499608D01*
X832452Y499498D01*
X832462Y499387D01*
X832468Y499277D01*
X832470Y499166D01*
X832468Y499055D01*
X832462Y498945D01*
X832452Y498834D01*
X832438Y498724D01*
X832421Y498615D01*
X832399Y498506D01*
X832374Y498398D01*
X832344Y498292D01*
X832311Y498186D01*
X832274Y498081D01*
X832234Y497978D01*
X832189Y497877D01*
X832142Y497777D01*
X832090Y497678D01*
X832035Y497582D01*
X831977Y497488D01*
X831916Y497396D01*
X831851Y497306D01*
X831783Y497218D01*
X831712Y497133D01*
X831638Y497051D01*
X831561Y496971D01*
X831481Y496894D01*
X831399Y496820D01*
X831314Y496749D01*
X831226Y496681D01*
X831136Y496616D01*
X831044Y496555D01*
X830950Y496497D01*
X830854Y496442D01*
X830755Y496390D01*
X830655Y496343D01*
X830554Y496298D01*
X830451Y496258D01*
X830346Y496221D01*
X830240Y496188D01*
X830134Y496158D01*
X830026Y496133D01*
X829917Y496111D01*
X829808Y496094D01*
X829698Y496080D01*
X829587Y496070D01*
X829477Y496064D01*
X829366Y496062D01*
X826262Y496062D01*
X826262Y507238D01*
X829366Y507238D01*
X829465Y507236D01*
X829563Y507230D01*
X829662Y507220D01*
X829759Y507207D01*
X829857Y507189D01*
X829953Y507168D01*
X830049Y507142D01*
X830143Y507113D01*
X830236Y507081D01*
X830328Y507044D01*
X830418Y507004D01*
X830507Y506960D01*
X830594Y506913D01*
X830679Y506863D01*
X830761Y506809D01*
X830842Y506752D01*
X830920Y506692D01*
X830996Y506628D01*
X831069Y506562D01*
X831140Y506493D01*
X831208Y506421D01*
X831272Y506346D01*
X831334Y506269D01*
X831393Y506190D01*
X831448Y506108D01*
X831501Y506024D01*
X831549Y505939D01*
X831595Y505851D01*
X831637Y505761D01*
X831675Y505670D01*
X831709Y505578D01*
X831740Y505484D01*
X831767Y505389D01*
X831791Y505293D01*
X831810Y505196D01*
X831826Y505099D01*
X831838Y505001D01*
X831846Y504902D01*
X831850Y504803D01*
X831850Y504705D01*
X831846Y504606D01*
X831838Y504507D01*
X831826Y504409D01*
X831810Y504312D01*
X831791Y504215D01*
X831767Y504119D01*
X831740Y504024D01*
X831709Y503930D01*
X831675Y503838D01*
X831637Y503747D01*
X831595Y503657D01*
X831549Y503569D01*
X831501Y503484D01*
X831448Y503400D01*
X831393Y503318D01*
X831334Y503239D01*
X831272Y503162D01*
X831208Y503087D01*
X831140Y503015D01*
X831069Y502946D01*
X830996Y502880D01*
X830920Y502816D01*
X830842Y502756D01*
X830761Y502699D01*
X830679Y502645D01*
X830594Y502595D01*
X830507Y502548D01*
X830418Y502504D01*
X830328Y502464D01*
X830236Y502427D01*
X830143Y502395D01*
X830049Y502366D01*
X829953Y502340D01*
X829857Y502319D01*
X829759Y502301D01*
X829662Y502288D01*
X829563Y502278D01*
X829465Y502272D01*
X829366Y502270D01*
X837480Y499166D02*
X837480Y507238D01*
X837481Y499166D02*
X837483Y499055D01*
X837489Y498945D01*
X837499Y498834D01*
X837513Y498724D01*
X837530Y498615D01*
X837552Y498506D01*
X837577Y498398D01*
X837607Y498292D01*
X837640Y498186D01*
X837677Y498081D01*
X837717Y497978D01*
X837762Y497877D01*
X837809Y497777D01*
X837861Y497678D01*
X837916Y497582D01*
X837974Y497488D01*
X838035Y497396D01*
X838100Y497306D01*
X838168Y497218D01*
X838239Y497133D01*
X838313Y497051D01*
X838390Y496971D01*
X838470Y496894D01*
X838552Y496820D01*
X838637Y496749D01*
X838725Y496681D01*
X838815Y496616D01*
X838907Y496555D01*
X839001Y496497D01*
X839097Y496442D01*
X839196Y496390D01*
X839296Y496343D01*
X839397Y496298D01*
X839500Y496258D01*
X839605Y496221D01*
X839711Y496188D01*
X839817Y496158D01*
X839925Y496133D01*
X840034Y496111D01*
X840143Y496094D01*
X840253Y496080D01*
X840364Y496070D01*
X840474Y496064D01*
X840585Y496062D01*
X840696Y496064D01*
X840806Y496070D01*
X840917Y496080D01*
X841027Y496094D01*
X841136Y496111D01*
X841245Y496133D01*
X841353Y496158D01*
X841459Y496188D01*
X841565Y496221D01*
X841670Y496258D01*
X841773Y496298D01*
X841874Y496343D01*
X841974Y496390D01*
X842073Y496442D01*
X842169Y496497D01*
X842263Y496555D01*
X842355Y496616D01*
X842445Y496681D01*
X842533Y496749D01*
X842618Y496820D01*
X842700Y496894D01*
X842780Y496971D01*
X842857Y497051D01*
X842931Y497133D01*
X843002Y497218D01*
X843070Y497306D01*
X843135Y497396D01*
X843196Y497488D01*
X843254Y497582D01*
X843309Y497678D01*
X843361Y497777D01*
X843408Y497877D01*
X843453Y497978D01*
X843493Y498081D01*
X843530Y498186D01*
X843563Y498292D01*
X843593Y498398D01*
X843618Y498506D01*
X843640Y498615D01*
X843657Y498724D01*
X843671Y498834D01*
X843681Y498945D01*
X843687Y499055D01*
X843689Y499166D01*
X843689Y507238D01*
X848910Y507238D02*
X855119Y507238D01*
X848910Y496062D01*
X855119Y496062D01*
X859578Y507238D02*
X865787Y507238D01*
X859578Y496062D01*
X865787Y496062D01*
X871037Y496062D02*
X876004Y496062D01*
X871037Y496062D02*
X871037Y507238D01*
X876004Y507238D01*
X874762Y502271D02*
X871037Y502271D01*
X881006Y507238D02*
X881006Y496062D01*
X881006Y507238D02*
X884111Y507238D01*
X884222Y507236D01*
X884332Y507230D01*
X884443Y507220D01*
X884553Y507206D01*
X884662Y507189D01*
X884771Y507167D01*
X884879Y507142D01*
X884985Y507112D01*
X885091Y507079D01*
X885196Y507042D01*
X885299Y507002D01*
X885400Y506957D01*
X885500Y506910D01*
X885599Y506858D01*
X885695Y506803D01*
X885789Y506745D01*
X885881Y506684D01*
X885971Y506619D01*
X886059Y506551D01*
X886144Y506480D01*
X886226Y506406D01*
X886306Y506329D01*
X886383Y506249D01*
X886457Y506167D01*
X886528Y506082D01*
X886596Y505994D01*
X886661Y505904D01*
X886722Y505812D01*
X886780Y505718D01*
X886835Y505622D01*
X886887Y505523D01*
X886934Y505423D01*
X886979Y505322D01*
X887019Y505219D01*
X887056Y505114D01*
X887089Y505008D01*
X887119Y504902D01*
X887144Y504794D01*
X887166Y504685D01*
X887183Y504576D01*
X887197Y504466D01*
X887207Y504355D01*
X887213Y504245D01*
X887215Y504134D01*
X887213Y504023D01*
X887207Y503913D01*
X887197Y503802D01*
X887183Y503692D01*
X887166Y503583D01*
X887144Y503474D01*
X887119Y503366D01*
X887089Y503260D01*
X887056Y503154D01*
X887019Y503049D01*
X886979Y502946D01*
X886934Y502845D01*
X886887Y502745D01*
X886835Y502646D01*
X886780Y502550D01*
X886722Y502456D01*
X886661Y502364D01*
X886596Y502274D01*
X886528Y502186D01*
X886457Y502101D01*
X886383Y502019D01*
X886306Y501939D01*
X886226Y501862D01*
X886144Y501788D01*
X886059Y501717D01*
X885971Y501649D01*
X885881Y501584D01*
X885789Y501523D01*
X885695Y501465D01*
X885599Y501410D01*
X885500Y501358D01*
X885400Y501311D01*
X885299Y501266D01*
X885196Y501226D01*
X885091Y501189D01*
X884985Y501156D01*
X884879Y501126D01*
X884771Y501101D01*
X884662Y501079D01*
X884553Y501062D01*
X884443Y501048D01*
X884332Y501038D01*
X884222Y501032D01*
X884111Y501030D01*
X884111Y501029D02*
X881006Y501029D01*
X884732Y501029D02*
X887215Y496062D01*
D11*
X254000Y182880D02*
X254000Y172720D01*
D13*
X254762Y164338D02*
X254762Y153162D01*
X254762Y164338D02*
X257866Y164338D01*
X257977Y164336D01*
X258087Y164330D01*
X258198Y164320D01*
X258308Y164306D01*
X258417Y164289D01*
X258526Y164267D01*
X258634Y164242D01*
X258740Y164212D01*
X258846Y164179D01*
X258951Y164142D01*
X259054Y164102D01*
X259155Y164057D01*
X259255Y164010D01*
X259354Y163958D01*
X259450Y163903D01*
X259544Y163845D01*
X259636Y163784D01*
X259726Y163719D01*
X259814Y163651D01*
X259899Y163580D01*
X259981Y163506D01*
X260061Y163429D01*
X260138Y163349D01*
X260212Y163267D01*
X260283Y163182D01*
X260351Y163094D01*
X260416Y163004D01*
X260477Y162912D01*
X260535Y162818D01*
X260590Y162722D01*
X260642Y162623D01*
X260689Y162523D01*
X260734Y162422D01*
X260774Y162319D01*
X260811Y162214D01*
X260844Y162108D01*
X260874Y162002D01*
X260899Y161894D01*
X260921Y161785D01*
X260938Y161676D01*
X260952Y161566D01*
X260962Y161455D01*
X260968Y161345D01*
X260970Y161234D01*
X260968Y161123D01*
X260962Y161013D01*
X260952Y160902D01*
X260938Y160792D01*
X260921Y160683D01*
X260899Y160574D01*
X260874Y160466D01*
X260844Y160360D01*
X260811Y160254D01*
X260774Y160149D01*
X260734Y160046D01*
X260689Y159945D01*
X260642Y159845D01*
X260590Y159746D01*
X260535Y159650D01*
X260477Y159556D01*
X260416Y159464D01*
X260351Y159374D01*
X260283Y159286D01*
X260212Y159201D01*
X260138Y159119D01*
X260061Y159039D01*
X259981Y158962D01*
X259899Y158888D01*
X259814Y158817D01*
X259726Y158749D01*
X259636Y158684D01*
X259544Y158623D01*
X259450Y158565D01*
X259354Y158510D01*
X259255Y158458D01*
X259155Y158411D01*
X259054Y158366D01*
X258951Y158326D01*
X258846Y158289D01*
X258740Y158256D01*
X258634Y158226D01*
X258526Y158201D01*
X258417Y158179D01*
X258308Y158162D01*
X258198Y158148D01*
X258087Y158138D01*
X257977Y158132D01*
X257866Y158130D01*
X257866Y158129D02*
X254762Y158129D01*
X258487Y158129D02*
X260971Y153162D01*
X266100Y161854D02*
X269204Y164338D01*
X269204Y153162D01*
X266100Y153162D02*
X272309Y153162D01*
D14*
X225100Y51600D02*
X225097Y51358D01*
X225088Y51117D01*
X225074Y50876D01*
X225053Y50635D01*
X225027Y50395D01*
X224995Y50155D01*
X224957Y49916D01*
X224914Y49679D01*
X224864Y49442D01*
X224809Y49207D01*
X224749Y48973D01*
X224682Y48741D01*
X224611Y48510D01*
X224533Y48281D01*
X224450Y48054D01*
X224362Y47829D01*
X224268Y47606D01*
X224169Y47386D01*
X224064Y47168D01*
X223955Y46953D01*
X223840Y46740D01*
X223720Y46530D01*
X223595Y46324D01*
X223465Y46120D01*
X223330Y45919D01*
X223190Y45722D01*
X223046Y45528D01*
X222897Y45338D01*
X222743Y45152D01*
X222585Y44969D01*
X222423Y44790D01*
X222256Y44615D01*
X222085Y44444D01*
X221910Y44277D01*
X221731Y44115D01*
X221548Y43957D01*
X221362Y43803D01*
X221172Y43654D01*
X220978Y43510D01*
X220781Y43370D01*
X220580Y43235D01*
X220376Y43105D01*
X220170Y42980D01*
X219960Y42860D01*
X219747Y42745D01*
X219532Y42636D01*
X219314Y42531D01*
X219094Y42432D01*
X218871Y42338D01*
X218646Y42250D01*
X218419Y42167D01*
X218190Y42089D01*
X217959Y42018D01*
X217727Y41951D01*
X217493Y41891D01*
X217258Y41836D01*
X217021Y41786D01*
X216784Y41743D01*
X216545Y41705D01*
X216305Y41673D01*
X216065Y41647D01*
X215824Y41626D01*
X215583Y41612D01*
X215342Y41603D01*
X215100Y41600D01*
X115100Y41600D01*
X114858Y41603D01*
X114617Y41612D01*
X114376Y41626D01*
X114135Y41647D01*
X113895Y41673D01*
X113655Y41705D01*
X113416Y41743D01*
X113179Y41786D01*
X112942Y41836D01*
X112707Y41891D01*
X112473Y41951D01*
X112241Y42018D01*
X112010Y42089D01*
X111781Y42167D01*
X111554Y42250D01*
X111329Y42338D01*
X111106Y42432D01*
X110886Y42531D01*
X110668Y42636D01*
X110453Y42745D01*
X110240Y42860D01*
X110030Y42980D01*
X109824Y43105D01*
X109620Y43235D01*
X109419Y43370D01*
X109222Y43510D01*
X109028Y43654D01*
X108838Y43803D01*
X108652Y43957D01*
X108469Y44115D01*
X108290Y44277D01*
X108115Y44444D01*
X107944Y44615D01*
X107777Y44790D01*
X107615Y44969D01*
X107457Y45152D01*
X107303Y45338D01*
X107154Y45528D01*
X107010Y45722D01*
X106870Y45919D01*
X106735Y46120D01*
X106605Y46324D01*
X106480Y46530D01*
X106360Y46740D01*
X106245Y46953D01*
X106136Y47168D01*
X106031Y47386D01*
X105932Y47606D01*
X105838Y47829D01*
X105750Y48054D01*
X105667Y48281D01*
X105589Y48510D01*
X105518Y48741D01*
X105451Y48973D01*
X105391Y49207D01*
X105336Y49442D01*
X105286Y49679D01*
X105243Y49916D01*
X105205Y50155D01*
X105173Y50395D01*
X105147Y50635D01*
X105126Y50876D01*
X105112Y51117D01*
X105103Y51358D01*
X105100Y51600D01*
X105100Y151600D02*
X105103Y151842D01*
X105112Y152083D01*
X105126Y152324D01*
X105147Y152565D01*
X105173Y152805D01*
X105205Y153045D01*
X105243Y153284D01*
X105286Y153521D01*
X105336Y153758D01*
X105391Y153993D01*
X105451Y154227D01*
X105518Y154459D01*
X105589Y154690D01*
X105667Y154919D01*
X105750Y155146D01*
X105838Y155371D01*
X105932Y155594D01*
X106031Y155814D01*
X106136Y156032D01*
X106245Y156247D01*
X106360Y156460D01*
X106480Y156670D01*
X106605Y156876D01*
X106735Y157080D01*
X106870Y157281D01*
X107010Y157478D01*
X107154Y157672D01*
X107303Y157862D01*
X107457Y158048D01*
X107615Y158231D01*
X107777Y158410D01*
X107944Y158585D01*
X108115Y158756D01*
X108290Y158923D01*
X108469Y159085D01*
X108652Y159243D01*
X108838Y159397D01*
X109028Y159546D01*
X109222Y159690D01*
X109419Y159830D01*
X109620Y159965D01*
X109824Y160095D01*
X110030Y160220D01*
X110240Y160340D01*
X110453Y160455D01*
X110668Y160564D01*
X110886Y160669D01*
X111106Y160768D01*
X111329Y160862D01*
X111554Y160950D01*
X111781Y161033D01*
X112010Y161111D01*
X112241Y161182D01*
X112473Y161249D01*
X112707Y161309D01*
X112942Y161364D01*
X113179Y161414D01*
X113416Y161457D01*
X113655Y161495D01*
X113895Y161527D01*
X114135Y161553D01*
X114376Y161574D01*
X114617Y161588D01*
X114858Y161597D01*
X115100Y161600D01*
X215100Y161600D01*
X215342Y161597D01*
X215583Y161588D01*
X215824Y161574D01*
X216065Y161553D01*
X216305Y161527D01*
X216545Y161495D01*
X216784Y161457D01*
X217021Y161414D01*
X217258Y161364D01*
X217493Y161309D01*
X217727Y161249D01*
X217959Y161182D01*
X218190Y161111D01*
X218419Y161033D01*
X218646Y160950D01*
X218871Y160862D01*
X219094Y160768D01*
X219314Y160669D01*
X219532Y160564D01*
X219747Y160455D01*
X219960Y160340D01*
X220170Y160220D01*
X220376Y160095D01*
X220580Y159965D01*
X220781Y159830D01*
X220978Y159690D01*
X221172Y159546D01*
X221362Y159397D01*
X221548Y159243D01*
X221731Y159085D01*
X221910Y158923D01*
X222085Y158756D01*
X222256Y158585D01*
X222423Y158410D01*
X222585Y158231D01*
X222743Y158048D01*
X222897Y157862D01*
X223046Y157672D01*
X223190Y157478D01*
X223330Y157281D01*
X223465Y157080D01*
X223595Y156876D01*
X223720Y156670D01*
X223840Y156460D01*
X223955Y156247D01*
X224064Y156032D01*
X224169Y155814D01*
X224268Y155594D01*
X224362Y155371D01*
X224450Y155146D01*
X224533Y154919D01*
X224611Y154690D01*
X224682Y154459D01*
X224749Y154227D01*
X224809Y153993D01*
X224864Y153758D01*
X224914Y153521D01*
X224957Y153284D01*
X224995Y153045D01*
X225027Y152805D01*
X225053Y152565D01*
X225074Y152324D01*
X225088Y152083D01*
X225097Y151842D01*
X225100Y151600D01*
X129745Y101600D02*
X129756Y102468D01*
X129788Y103335D01*
X129841Y104201D01*
X129915Y105065D01*
X130011Y105928D01*
X130128Y106788D01*
X130266Y107644D01*
X130424Y108497D01*
X130604Y109346D01*
X130805Y110191D01*
X131026Y111030D01*
X131267Y111863D01*
X131529Y112690D01*
X131812Y113511D01*
X132114Y114324D01*
X132436Y115130D01*
X132778Y115927D01*
X133139Y116716D01*
X133520Y117496D01*
X133920Y118266D01*
X134338Y119026D01*
X134775Y119776D01*
X135230Y120515D01*
X135703Y121242D01*
X136194Y121958D01*
X136703Y122661D01*
X137228Y123352D01*
X137770Y124029D01*
X138329Y124693D01*
X138904Y125343D01*
X139494Y125979D01*
X140100Y126600D01*
X140721Y127206D01*
X141357Y127796D01*
X142007Y128371D01*
X142671Y128930D01*
X143348Y129472D01*
X144039Y129997D01*
X144742Y130506D01*
X145458Y130997D01*
X146185Y131470D01*
X146924Y131925D01*
X147674Y132362D01*
X148434Y132780D01*
X149204Y133180D01*
X149984Y133561D01*
X150773Y133922D01*
X151570Y134264D01*
X152376Y134586D01*
X153189Y134888D01*
X154010Y135171D01*
X154837Y135433D01*
X155670Y135674D01*
X156509Y135895D01*
X157354Y136096D01*
X158203Y136276D01*
X159056Y136434D01*
X159912Y136572D01*
X160772Y136689D01*
X161635Y136785D01*
X162499Y136859D01*
X163365Y136912D01*
X164232Y136944D01*
X165100Y136955D01*
X165968Y136944D01*
X166835Y136912D01*
X167701Y136859D01*
X168565Y136785D01*
X169428Y136689D01*
X170288Y136572D01*
X171144Y136434D01*
X171997Y136276D01*
X172846Y136096D01*
X173691Y135895D01*
X174530Y135674D01*
X175363Y135433D01*
X176190Y135171D01*
X177011Y134888D01*
X177824Y134586D01*
X178630Y134264D01*
X179427Y133922D01*
X180216Y133561D01*
X180996Y133180D01*
X181766Y132780D01*
X182526Y132362D01*
X183276Y131925D01*
X184015Y131470D01*
X184742Y130997D01*
X185458Y130506D01*
X186161Y129997D01*
X186852Y129472D01*
X187529Y128930D01*
X188193Y128371D01*
X188843Y127796D01*
X189479Y127206D01*
X190100Y126600D01*
X190706Y125979D01*
X191296Y125343D01*
X191871Y124693D01*
X192430Y124029D01*
X192972Y123352D01*
X193497Y122661D01*
X194006Y121958D01*
X194497Y121242D01*
X194970Y120515D01*
X195425Y119776D01*
X195862Y119026D01*
X196280Y118266D01*
X196680Y117496D01*
X197061Y116716D01*
X197422Y115927D01*
X197764Y115130D01*
X198086Y114324D01*
X198388Y113511D01*
X198671Y112690D01*
X198933Y111863D01*
X199174Y111030D01*
X199395Y110191D01*
X199596Y109346D01*
X199776Y108497D01*
X199934Y107644D01*
X200072Y106788D01*
X200189Y105928D01*
X200285Y105065D01*
X200359Y104201D01*
X200412Y103335D01*
X200444Y102468D01*
X200455Y101600D01*
X200444Y100732D01*
X200412Y99865D01*
X200359Y98999D01*
X200285Y98135D01*
X200189Y97272D01*
X200072Y96412D01*
X199934Y95556D01*
X199776Y94703D01*
X199596Y93854D01*
X199395Y93009D01*
X199174Y92170D01*
X198933Y91337D01*
X198671Y90510D01*
X198388Y89689D01*
X198086Y88876D01*
X197764Y88070D01*
X197422Y87273D01*
X197061Y86484D01*
X196680Y85704D01*
X196280Y84934D01*
X195862Y84174D01*
X195425Y83424D01*
X194970Y82685D01*
X194497Y81958D01*
X194006Y81242D01*
X193497Y80539D01*
X192972Y79848D01*
X192430Y79171D01*
X191871Y78507D01*
X191296Y77857D01*
X190706Y77221D01*
X190100Y76600D01*
X189479Y75994D01*
X188843Y75404D01*
X188193Y74829D01*
X187529Y74270D01*
X186852Y73728D01*
X186161Y73203D01*
X185458Y72694D01*
X184742Y72203D01*
X184015Y71730D01*
X183276Y71275D01*
X182526Y70838D01*
X181766Y70420D01*
X180996Y70020D01*
X180216Y69639D01*
X179427Y69278D01*
X178630Y68936D01*
X177824Y68614D01*
X177011Y68312D01*
X176190Y68029D01*
X175363Y67767D01*
X174530Y67526D01*
X173691Y67305D01*
X172846Y67104D01*
X171997Y66924D01*
X171144Y66766D01*
X170288Y66628D01*
X169428Y66511D01*
X168565Y66415D01*
X167701Y66341D01*
X166835Y66288D01*
X165968Y66256D01*
X165100Y66245D01*
X164232Y66256D01*
X163365Y66288D01*
X162499Y66341D01*
X161635Y66415D01*
X160772Y66511D01*
X159912Y66628D01*
X159056Y66766D01*
X158203Y66924D01*
X157354Y67104D01*
X156509Y67305D01*
X155670Y67526D01*
X154837Y67767D01*
X154010Y68029D01*
X153189Y68312D01*
X152376Y68614D01*
X151570Y68936D01*
X150773Y69278D01*
X149984Y69639D01*
X149204Y70020D01*
X148434Y70420D01*
X147674Y70838D01*
X146924Y71275D01*
X146185Y71730D01*
X145458Y72203D01*
X144742Y72694D01*
X144039Y73203D01*
X143348Y73728D01*
X142671Y74270D01*
X142007Y74829D01*
X141357Y75404D01*
X140721Y75994D01*
X140100Y76600D01*
X139494Y77221D01*
X138904Y77857D01*
X138329Y78507D01*
X137770Y79171D01*
X137228Y79848D01*
X136703Y80539D01*
X136194Y81242D01*
X135703Y81958D01*
X135230Y82685D01*
X134775Y83424D01*
X134338Y84174D01*
X133920Y84934D01*
X133520Y85704D01*
X133139Y86484D01*
X132778Y87273D01*
X132436Y88070D01*
X132114Y88876D01*
X131812Y89689D01*
X131529Y90510D01*
X131267Y91337D01*
X131026Y92170D01*
X130805Y93009D01*
X130604Y93854D01*
X130424Y94703D01*
X130266Y95556D01*
X130128Y96412D01*
X130011Y97272D01*
X129915Y98135D01*
X129841Y98999D01*
X129788Y99865D01*
X129756Y100732D01*
X129745Y101600D01*
X145100Y121600D02*
X185100Y121600D01*
X185100Y81600D01*
X145100Y81600D01*
X145100Y121600D01*
X105100Y139100D02*
X105100Y151600D01*
X105100Y114100D02*
X105100Y89100D01*
X105100Y64100D02*
X105100Y51600D01*
X225100Y139100D02*
X225100Y151600D01*
X225100Y114100D02*
X225100Y89100D01*
X225100Y64100D02*
X225100Y51600D01*
D13*
X121271Y15946D02*
X121269Y15848D01*
X121263Y15751D01*
X121254Y15654D01*
X121240Y15557D01*
X121223Y15461D01*
X121202Y15366D01*
X121178Y15272D01*
X121149Y15178D01*
X121117Y15086D01*
X121082Y14995D01*
X121043Y14906D01*
X121000Y14818D01*
X120954Y14732D01*
X120905Y14648D01*
X120852Y14566D01*
X120797Y14486D01*
X120738Y14408D01*
X120676Y14333D01*
X120611Y14260D01*
X120543Y14190D01*
X120473Y14122D01*
X120400Y14057D01*
X120325Y13995D01*
X120247Y13936D01*
X120167Y13881D01*
X120085Y13828D01*
X120001Y13779D01*
X119915Y13733D01*
X119827Y13690D01*
X119738Y13651D01*
X119647Y13616D01*
X119555Y13584D01*
X119461Y13555D01*
X119367Y13531D01*
X119272Y13510D01*
X119176Y13493D01*
X119079Y13479D01*
X118982Y13470D01*
X118884Y13464D01*
X118787Y13462D01*
X118644Y13464D01*
X118501Y13470D01*
X118359Y13479D01*
X118217Y13493D01*
X118075Y13511D01*
X117934Y13532D01*
X117793Y13557D01*
X117653Y13586D01*
X117514Y13619D01*
X117376Y13655D01*
X117239Y13696D01*
X117103Y13740D01*
X116968Y13787D01*
X116835Y13839D01*
X116703Y13894D01*
X116573Y13952D01*
X116444Y14014D01*
X116317Y14080D01*
X116192Y14149D01*
X116069Y14221D01*
X115948Y14297D01*
X115829Y14375D01*
X115712Y14458D01*
X115597Y14543D01*
X115485Y14631D01*
X115375Y14723D01*
X115268Y14817D01*
X115163Y14914D01*
X115061Y15014D01*
X115372Y22154D02*
X115374Y22252D01*
X115380Y22349D01*
X115389Y22446D01*
X115403Y22543D01*
X115420Y22639D01*
X115441Y22734D01*
X115465Y22828D01*
X115494Y22922D01*
X115526Y23014D01*
X115561Y23105D01*
X115600Y23194D01*
X115643Y23282D01*
X115689Y23368D01*
X115738Y23452D01*
X115791Y23534D01*
X115846Y23614D01*
X115905Y23692D01*
X115967Y23767D01*
X116032Y23840D01*
X116100Y23910D01*
X116170Y23978D01*
X116243Y24043D01*
X116318Y24105D01*
X116396Y24164D01*
X116476Y24219D01*
X116558Y24272D01*
X116642Y24321D01*
X116728Y24367D01*
X116816Y24410D01*
X116905Y24449D01*
X116996Y24484D01*
X117088Y24516D01*
X117182Y24545D01*
X117276Y24569D01*
X117371Y24590D01*
X117467Y24607D01*
X117564Y24621D01*
X117661Y24630D01*
X117758Y24636D01*
X117856Y24638D01*
X117986Y24636D01*
X118116Y24631D01*
X118246Y24622D01*
X118376Y24609D01*
X118505Y24593D01*
X118634Y24573D01*
X118762Y24549D01*
X118890Y24522D01*
X119016Y24491D01*
X119142Y24457D01*
X119267Y24419D01*
X119390Y24378D01*
X119513Y24333D01*
X119634Y24285D01*
X119754Y24234D01*
X119872Y24179D01*
X119988Y24121D01*
X120103Y24060D01*
X120217Y23995D01*
X120328Y23928D01*
X120437Y23857D01*
X120545Y23783D01*
X120650Y23707D01*
X116615Y19981D02*
X116532Y20032D01*
X116451Y20086D01*
X116373Y20143D01*
X116297Y20203D01*
X116223Y20266D01*
X116152Y20332D01*
X116083Y20400D01*
X116017Y20471D01*
X115953Y20544D01*
X115893Y20620D01*
X115836Y20698D01*
X115781Y20779D01*
X115730Y20861D01*
X115682Y20945D01*
X115637Y21031D01*
X115595Y21119D01*
X115557Y21208D01*
X115523Y21298D01*
X115491Y21390D01*
X115464Y21483D01*
X115440Y21577D01*
X115419Y21672D01*
X115403Y21768D01*
X115390Y21864D01*
X115380Y21960D01*
X115375Y22057D01*
X115373Y22154D01*
X120028Y18119D02*
X120111Y18068D01*
X120192Y18014D01*
X120270Y17957D01*
X120346Y17897D01*
X120420Y17834D01*
X120491Y17768D01*
X120560Y17700D01*
X120626Y17629D01*
X120690Y17556D01*
X120750Y17480D01*
X120807Y17402D01*
X120862Y17321D01*
X120913Y17239D01*
X120961Y17155D01*
X121006Y17069D01*
X121048Y16981D01*
X121086Y16892D01*
X121120Y16802D01*
X121152Y16710D01*
X121179Y16617D01*
X121203Y16523D01*
X121224Y16428D01*
X121240Y16332D01*
X121253Y16236D01*
X121263Y16140D01*
X121268Y16043D01*
X121270Y15946D01*
X120029Y18119D02*
X116614Y19981D01*
X126520Y13462D02*
X131487Y13462D01*
X126520Y13462D02*
X126520Y24638D01*
X131487Y24638D01*
X130246Y19671D02*
X126520Y19671D01*
X138359Y24638D02*
X138359Y13462D01*
X135255Y24638D02*
X141464Y24638D01*
X145401Y12220D02*
X150368Y12220D01*
X154446Y13462D02*
X158171Y24638D01*
X161897Y13462D01*
X160965Y16256D02*
X155377Y16256D01*
X166906Y13462D02*
X166906Y24638D01*
X166906Y13462D02*
X171873Y13462D01*
X175782Y13462D02*
X179507Y24638D01*
X183233Y13462D01*
X182301Y16256D02*
X176713Y16256D01*
X188306Y13462D02*
X188306Y24638D01*
X191410Y24638D01*
X191521Y24636D01*
X191631Y24630D01*
X191742Y24620D01*
X191852Y24606D01*
X191961Y24589D01*
X192070Y24567D01*
X192178Y24542D01*
X192284Y24512D01*
X192390Y24479D01*
X192495Y24442D01*
X192598Y24402D01*
X192699Y24357D01*
X192799Y24310D01*
X192898Y24258D01*
X192994Y24203D01*
X193088Y24145D01*
X193180Y24084D01*
X193270Y24019D01*
X193358Y23951D01*
X193443Y23880D01*
X193525Y23806D01*
X193605Y23729D01*
X193682Y23649D01*
X193756Y23567D01*
X193827Y23482D01*
X193895Y23394D01*
X193960Y23304D01*
X194021Y23212D01*
X194079Y23118D01*
X194134Y23022D01*
X194186Y22923D01*
X194233Y22823D01*
X194278Y22722D01*
X194318Y22619D01*
X194355Y22514D01*
X194388Y22408D01*
X194418Y22302D01*
X194443Y22194D01*
X194465Y22085D01*
X194482Y21976D01*
X194496Y21866D01*
X194506Y21755D01*
X194512Y21645D01*
X194514Y21534D01*
X194512Y21423D01*
X194506Y21313D01*
X194496Y21202D01*
X194482Y21092D01*
X194465Y20983D01*
X194443Y20874D01*
X194418Y20766D01*
X194388Y20660D01*
X194355Y20554D01*
X194318Y20449D01*
X194278Y20346D01*
X194233Y20245D01*
X194186Y20145D01*
X194134Y20046D01*
X194079Y19950D01*
X194021Y19856D01*
X193960Y19764D01*
X193895Y19674D01*
X193827Y19586D01*
X193756Y19501D01*
X193682Y19419D01*
X193605Y19339D01*
X193525Y19262D01*
X193443Y19188D01*
X193358Y19117D01*
X193270Y19049D01*
X193180Y18984D01*
X193088Y18923D01*
X192994Y18865D01*
X192898Y18810D01*
X192799Y18758D01*
X192699Y18711D01*
X192598Y18666D01*
X192495Y18626D01*
X192390Y18589D01*
X192284Y18556D01*
X192178Y18526D01*
X192070Y18501D01*
X191961Y18479D01*
X191852Y18462D01*
X191742Y18448D01*
X191631Y18438D01*
X191521Y18432D01*
X191410Y18430D01*
X191410Y18429D02*
X188306Y18429D01*
X192031Y18429D02*
X194515Y13462D01*
X200166Y13462D02*
X200166Y24638D01*
X203891Y18429D01*
X207617Y24638D01*
X207617Y13462D01*
D11*
X83820Y207010D02*
X706120Y207010D01*
X706120Y732790D01*
X83820Y732790D02*
X83820Y207010D01*
X83820Y732790D02*
X706120Y732790D01*
D12*
X634267Y180139D02*
X634267Y178307D01*
X634267Y180139D02*
X640374Y180139D01*
X640374Y176475D01*
X640372Y176377D01*
X640366Y176278D01*
X640356Y176181D01*
X640342Y176083D01*
X640325Y175986D01*
X640303Y175890D01*
X640278Y175795D01*
X640248Y175701D01*
X640215Y175609D01*
X640179Y175517D01*
X640138Y175428D01*
X640094Y175340D01*
X640047Y175254D01*
X639996Y175169D01*
X639942Y175087D01*
X639884Y175007D01*
X639823Y174930D01*
X639760Y174855D01*
X639693Y174783D01*
X639623Y174713D01*
X639551Y174646D01*
X639476Y174583D01*
X639399Y174522D01*
X639319Y174464D01*
X639237Y174410D01*
X639153Y174359D01*
X639066Y174312D01*
X638978Y174268D01*
X638889Y174227D01*
X638797Y174191D01*
X638705Y174158D01*
X638611Y174128D01*
X638516Y174103D01*
X638420Y174081D01*
X638323Y174064D01*
X638225Y174050D01*
X638128Y174040D01*
X638029Y174034D01*
X637931Y174032D01*
X631824Y174032D01*
X631726Y174034D01*
X631627Y174040D01*
X631530Y174050D01*
X631432Y174064D01*
X631335Y174081D01*
X631239Y174103D01*
X631144Y174128D01*
X631050Y174158D01*
X630958Y174191D01*
X630866Y174227D01*
X630777Y174268D01*
X630689Y174312D01*
X630603Y174359D01*
X630518Y174410D01*
X630436Y174464D01*
X630356Y174522D01*
X630279Y174583D01*
X630204Y174646D01*
X630132Y174713D01*
X630062Y174783D01*
X629995Y174855D01*
X629932Y174930D01*
X629871Y175007D01*
X629813Y175087D01*
X629759Y175169D01*
X629708Y175253D01*
X629661Y175340D01*
X629617Y175428D01*
X629576Y175517D01*
X629540Y175609D01*
X629507Y175701D01*
X629477Y175795D01*
X629452Y175890D01*
X629430Y175986D01*
X629413Y176083D01*
X629399Y176181D01*
X629389Y176278D01*
X629383Y176377D01*
X629381Y176475D01*
X629381Y180139D01*
X629381Y185560D02*
X640374Y185560D01*
X640374Y191667D02*
X629381Y185560D01*
X629381Y191667D02*
X640374Y191667D01*
X640374Y197089D02*
X629381Y197089D01*
X629381Y200142D01*
X629383Y200251D01*
X629389Y200360D01*
X629398Y200468D01*
X629412Y200577D01*
X629430Y200684D01*
X629451Y200791D01*
X629476Y200897D01*
X629505Y201002D01*
X629537Y201106D01*
X629574Y201209D01*
X629613Y201311D01*
X629657Y201411D01*
X629704Y201509D01*
X629755Y201606D01*
X629809Y201700D01*
X629866Y201793D01*
X629926Y201884D01*
X629990Y201972D01*
X630057Y202058D01*
X630127Y202142D01*
X630200Y202223D01*
X630276Y202302D01*
X630354Y202377D01*
X630435Y202450D01*
X630519Y202520D01*
X630605Y202587D01*
X630693Y202651D01*
X630784Y202711D01*
X630877Y202768D01*
X630971Y202822D01*
X631068Y202873D01*
X631166Y202920D01*
X631266Y202964D01*
X631368Y203003D01*
X631471Y203040D01*
X631575Y203072D01*
X631680Y203101D01*
X631786Y203126D01*
X631893Y203147D01*
X632000Y203165D01*
X632109Y203179D01*
X632217Y203188D01*
X632326Y203194D01*
X632435Y203196D01*
X637320Y203196D01*
X637429Y203194D01*
X637538Y203188D01*
X637646Y203179D01*
X637755Y203165D01*
X637862Y203147D01*
X637969Y203126D01*
X638075Y203101D01*
X638180Y203072D01*
X638284Y203040D01*
X638387Y203003D01*
X638489Y202964D01*
X638589Y202920D01*
X638687Y202873D01*
X638784Y202822D01*
X638878Y202768D01*
X638971Y202711D01*
X639062Y202651D01*
X639150Y202587D01*
X639236Y202520D01*
X639320Y202450D01*
X639401Y202377D01*
X639480Y202302D01*
X639555Y202223D01*
X639628Y202142D01*
X639698Y202058D01*
X639765Y201972D01*
X639829Y201884D01*
X639889Y201793D01*
X639946Y201700D01*
X640000Y201606D01*
X640051Y201509D01*
X640098Y201411D01*
X640142Y201311D01*
X640181Y201209D01*
X640218Y201106D01*
X640250Y201002D01*
X640279Y200897D01*
X640304Y200791D01*
X640325Y200684D01*
X640343Y200577D01*
X640357Y200468D01*
X640366Y200360D01*
X640372Y200251D01*
X640374Y200142D01*
X640374Y197089D01*
X634212Y750664D02*
X634212Y752495D01*
X640317Y752495D01*
X640317Y748832D01*
X640315Y748734D01*
X640309Y748636D01*
X640299Y748538D01*
X640285Y748440D01*
X640268Y748344D01*
X640246Y748248D01*
X640221Y748153D01*
X640191Y748059D01*
X640158Y747966D01*
X640122Y747875D01*
X640081Y747785D01*
X640037Y747697D01*
X639990Y747611D01*
X639939Y747527D01*
X639885Y747445D01*
X639827Y747365D01*
X639767Y747288D01*
X639703Y747213D01*
X639636Y747140D01*
X639567Y747071D01*
X639494Y747004D01*
X639419Y746940D01*
X639342Y746880D01*
X639262Y746822D01*
X639180Y746768D01*
X639096Y746717D01*
X639010Y746670D01*
X638922Y746626D01*
X638832Y746585D01*
X638741Y746549D01*
X638648Y746516D01*
X638554Y746486D01*
X638459Y746461D01*
X638363Y746439D01*
X638267Y746422D01*
X638169Y746408D01*
X638072Y746398D01*
X637973Y746392D01*
X637875Y746390D01*
X631769Y746390D01*
X631671Y746392D01*
X631573Y746398D01*
X631475Y746408D01*
X631377Y746422D01*
X631281Y746439D01*
X631185Y746461D01*
X631090Y746486D01*
X630996Y746516D01*
X630903Y746549D01*
X630812Y746585D01*
X630722Y746626D01*
X630634Y746670D01*
X630548Y746717D01*
X630464Y746768D01*
X630382Y746822D01*
X630302Y746880D01*
X630225Y746940D01*
X630150Y747004D01*
X630077Y747071D01*
X630008Y747140D01*
X629941Y747213D01*
X629877Y747288D01*
X629817Y747365D01*
X629759Y747445D01*
X629705Y747527D01*
X629654Y747611D01*
X629607Y747697D01*
X629563Y747785D01*
X629522Y747875D01*
X629486Y747966D01*
X629453Y748059D01*
X629423Y748153D01*
X629398Y748248D01*
X629376Y748344D01*
X629359Y748440D01*
X629345Y748538D01*
X629335Y748635D01*
X629329Y748734D01*
X629327Y748832D01*
X629327Y752495D01*
X629327Y757916D02*
X640317Y757916D01*
X640317Y764021D02*
X629327Y757916D01*
X629327Y764021D02*
X640317Y764021D01*
X640317Y769441D02*
X629327Y769441D01*
X629327Y772494D01*
X629329Y772603D01*
X629335Y772712D01*
X629344Y772820D01*
X629358Y772928D01*
X629376Y773036D01*
X629397Y773143D01*
X629422Y773249D01*
X629451Y773354D01*
X629483Y773458D01*
X629519Y773561D01*
X629559Y773662D01*
X629603Y773762D01*
X629650Y773861D01*
X629700Y773957D01*
X629754Y774052D01*
X629812Y774145D01*
X629872Y774235D01*
X629936Y774324D01*
X630003Y774410D01*
X630073Y774493D01*
X630146Y774574D01*
X630221Y774653D01*
X630300Y774728D01*
X630381Y774801D01*
X630464Y774871D01*
X630550Y774938D01*
X630639Y775002D01*
X630729Y775062D01*
X630822Y775120D01*
X630917Y775174D01*
X631013Y775224D01*
X631112Y775271D01*
X631212Y775315D01*
X631313Y775355D01*
X631416Y775391D01*
X631520Y775423D01*
X631625Y775452D01*
X631731Y775477D01*
X631838Y775498D01*
X631946Y775516D01*
X632054Y775530D01*
X632162Y775539D01*
X632271Y775545D01*
X632380Y775547D01*
X637264Y775547D01*
X637373Y775545D01*
X637482Y775539D01*
X637590Y775530D01*
X637698Y775516D01*
X637806Y775498D01*
X637913Y775477D01*
X638019Y775452D01*
X638124Y775423D01*
X638228Y775391D01*
X638331Y775355D01*
X638432Y775315D01*
X638532Y775271D01*
X638631Y775224D01*
X638727Y775174D01*
X638822Y775120D01*
X638915Y775062D01*
X639005Y775002D01*
X639094Y774938D01*
X639180Y774871D01*
X639263Y774801D01*
X639344Y774728D01*
X639423Y774653D01*
X639498Y774574D01*
X639571Y774493D01*
X639641Y774410D01*
X639708Y774324D01*
X639772Y774235D01*
X639832Y774145D01*
X639890Y774052D01*
X639944Y773957D01*
X639994Y773861D01*
X640041Y773762D01*
X640085Y773662D01*
X640125Y773561D01*
X640161Y773458D01*
X640193Y773354D01*
X640222Y773249D01*
X640247Y773143D01*
X640268Y773036D01*
X640286Y772928D01*
X640300Y772820D01*
X640309Y772712D01*
X640315Y772603D01*
X640317Y772494D01*
X640317Y769441D01*
X687054Y200241D02*
X687054Y191797D01*
X687056Y191685D01*
X687062Y191573D01*
X687071Y191461D01*
X687085Y191350D01*
X687102Y191239D01*
X687123Y191129D01*
X687148Y191020D01*
X687177Y190911D01*
X687210Y190804D01*
X687246Y190698D01*
X687285Y190593D01*
X687329Y190490D01*
X687376Y190388D01*
X687426Y190288D01*
X687480Y190189D01*
X687537Y190093D01*
X687597Y189998D01*
X687661Y189906D01*
X687728Y189816D01*
X687798Y189728D01*
X687871Y189643D01*
X687947Y189561D01*
X688025Y189481D01*
X688107Y189403D01*
X688190Y189329D01*
X688277Y189258D01*
X688366Y189189D01*
X688457Y189124D01*
X688550Y189062D01*
X688646Y189003D01*
X688743Y188948D01*
X688842Y188895D01*
X688943Y188847D01*
X689046Y188802D01*
X689150Y188760D01*
X689256Y188722D01*
X689363Y188688D01*
X689470Y188657D01*
X689579Y188630D01*
X689689Y188607D01*
X689799Y188588D01*
X689910Y188573D01*
X690022Y188561D01*
X690134Y188553D01*
X690246Y188549D01*
X690358Y188549D01*
X690470Y188553D01*
X690582Y188561D01*
X690694Y188573D01*
X690805Y188588D01*
X690915Y188607D01*
X691025Y188630D01*
X691134Y188657D01*
X691241Y188688D01*
X691348Y188722D01*
X691454Y188760D01*
X691558Y188802D01*
X691661Y188847D01*
X691762Y188895D01*
X691861Y188948D01*
X691958Y189003D01*
X692054Y189062D01*
X692147Y189124D01*
X692238Y189189D01*
X692327Y189258D01*
X692414Y189329D01*
X692497Y189403D01*
X692579Y189481D01*
X692657Y189561D01*
X692733Y189643D01*
X692806Y189728D01*
X692876Y189816D01*
X692943Y189906D01*
X693007Y189998D01*
X693067Y190093D01*
X693124Y190189D01*
X693178Y190288D01*
X693228Y190388D01*
X693275Y190490D01*
X693319Y190593D01*
X693358Y190698D01*
X693394Y190804D01*
X693427Y190911D01*
X693456Y191020D01*
X693481Y191129D01*
X693502Y191239D01*
X693519Y191350D01*
X693533Y191461D01*
X693542Y191573D01*
X693548Y191685D01*
X693550Y191797D01*
X693549Y191797D02*
X693549Y200241D01*
X698872Y188550D02*
X702119Y188550D01*
X702119Y188549D02*
X702231Y188551D01*
X702343Y188557D01*
X702455Y188566D01*
X702566Y188580D01*
X702677Y188597D01*
X702787Y188618D01*
X702896Y188643D01*
X703005Y188672D01*
X703112Y188705D01*
X703218Y188741D01*
X703323Y188780D01*
X703426Y188824D01*
X703528Y188871D01*
X703628Y188921D01*
X703727Y188975D01*
X703823Y189032D01*
X703918Y189092D01*
X704010Y189156D01*
X704100Y189223D01*
X704188Y189293D01*
X704273Y189366D01*
X704355Y189442D01*
X704435Y189520D01*
X704513Y189602D01*
X704587Y189685D01*
X704658Y189772D01*
X704727Y189861D01*
X704792Y189952D01*
X704854Y190045D01*
X704913Y190141D01*
X704968Y190238D01*
X705021Y190337D01*
X705069Y190438D01*
X705114Y190541D01*
X705156Y190645D01*
X705194Y190751D01*
X705228Y190858D01*
X705259Y190965D01*
X705286Y191074D01*
X705309Y191184D01*
X705328Y191294D01*
X705343Y191405D01*
X705355Y191517D01*
X705363Y191629D01*
X705367Y191741D01*
X705367Y191853D01*
X705363Y191965D01*
X705355Y192077D01*
X705343Y192189D01*
X705328Y192300D01*
X705309Y192410D01*
X705286Y192520D01*
X705259Y192629D01*
X705228Y192736D01*
X705194Y192843D01*
X705156Y192949D01*
X705114Y193053D01*
X705069Y193156D01*
X705021Y193257D01*
X704968Y193356D01*
X704913Y193453D01*
X704854Y193549D01*
X704792Y193642D01*
X704727Y193733D01*
X704658Y193822D01*
X704587Y193909D01*
X704513Y193992D01*
X704435Y194074D01*
X704355Y194152D01*
X704273Y194228D01*
X704188Y194301D01*
X704100Y194371D01*
X704010Y194438D01*
X703918Y194502D01*
X703823Y194562D01*
X703727Y194619D01*
X703628Y194673D01*
X703528Y194723D01*
X703426Y194770D01*
X703323Y194814D01*
X703218Y194853D01*
X703112Y194889D01*
X703005Y194922D01*
X702896Y194951D01*
X702787Y194976D01*
X702677Y194997D01*
X702566Y195014D01*
X702455Y195028D01*
X702343Y195037D01*
X702231Y195043D01*
X702119Y195045D01*
X702769Y200241D02*
X698872Y200241D01*
X702769Y200241D02*
X702870Y200239D01*
X702970Y200233D01*
X703071Y200223D01*
X703170Y200210D01*
X703270Y200192D01*
X703368Y200171D01*
X703466Y200146D01*
X703562Y200117D01*
X703658Y200084D01*
X703752Y200048D01*
X703844Y200008D01*
X703935Y199965D01*
X704024Y199918D01*
X704111Y199867D01*
X704197Y199814D01*
X704280Y199757D01*
X704361Y199696D01*
X704439Y199633D01*
X704515Y199567D01*
X704588Y199498D01*
X704659Y199426D01*
X704726Y199351D01*
X704791Y199274D01*
X704853Y199194D01*
X704912Y199112D01*
X704967Y199028D01*
X705019Y198942D01*
X705068Y198854D01*
X705113Y198764D01*
X705155Y198672D01*
X705193Y198579D01*
X705227Y198484D01*
X705258Y198388D01*
X705285Y198291D01*
X705308Y198193D01*
X705328Y198094D01*
X705343Y197995D01*
X705355Y197895D01*
X705363Y197794D01*
X705367Y197693D01*
X705367Y197593D01*
X705363Y197492D01*
X705355Y197391D01*
X705343Y197291D01*
X705328Y197192D01*
X705308Y197093D01*
X705285Y196995D01*
X705258Y196898D01*
X705227Y196802D01*
X705193Y196707D01*
X705155Y196614D01*
X705113Y196522D01*
X705068Y196432D01*
X705019Y196344D01*
X704967Y196258D01*
X704912Y196174D01*
X704853Y196092D01*
X704791Y196012D01*
X704726Y195935D01*
X704659Y195860D01*
X704588Y195788D01*
X704515Y195719D01*
X704439Y195653D01*
X704361Y195590D01*
X704280Y195529D01*
X704197Y195472D01*
X704111Y195419D01*
X704024Y195368D01*
X703935Y195321D01*
X703844Y195278D01*
X703752Y195238D01*
X703658Y195202D01*
X703562Y195169D01*
X703466Y195140D01*
X703368Y195115D01*
X703270Y195094D01*
X703170Y195076D01*
X703071Y195063D01*
X702970Y195053D01*
X702870Y195047D01*
X702769Y195045D01*
X700171Y195045D01*
D11*
X381000Y182880D02*
X381000Y172720D01*
D13*
X343662Y178562D02*
X343662Y189738D01*
X346766Y189738D01*
X346877Y189736D01*
X346987Y189730D01*
X347098Y189720D01*
X347208Y189706D01*
X347317Y189689D01*
X347426Y189667D01*
X347534Y189642D01*
X347640Y189612D01*
X347746Y189579D01*
X347851Y189542D01*
X347954Y189502D01*
X348055Y189457D01*
X348155Y189410D01*
X348254Y189358D01*
X348350Y189303D01*
X348444Y189245D01*
X348536Y189184D01*
X348626Y189119D01*
X348714Y189051D01*
X348799Y188980D01*
X348881Y188906D01*
X348961Y188829D01*
X349038Y188749D01*
X349112Y188667D01*
X349183Y188582D01*
X349251Y188494D01*
X349316Y188404D01*
X349377Y188312D01*
X349435Y188218D01*
X349490Y188122D01*
X349542Y188023D01*
X349589Y187923D01*
X349634Y187822D01*
X349674Y187719D01*
X349711Y187614D01*
X349744Y187508D01*
X349774Y187402D01*
X349799Y187294D01*
X349821Y187185D01*
X349838Y187076D01*
X349852Y186966D01*
X349862Y186855D01*
X349868Y186745D01*
X349870Y186634D01*
X349868Y186523D01*
X349862Y186413D01*
X349852Y186302D01*
X349838Y186192D01*
X349821Y186083D01*
X349799Y185974D01*
X349774Y185866D01*
X349744Y185760D01*
X349711Y185654D01*
X349674Y185549D01*
X349634Y185446D01*
X349589Y185345D01*
X349542Y185245D01*
X349490Y185146D01*
X349435Y185050D01*
X349377Y184956D01*
X349316Y184864D01*
X349251Y184774D01*
X349183Y184686D01*
X349112Y184601D01*
X349038Y184519D01*
X348961Y184439D01*
X348881Y184362D01*
X348799Y184288D01*
X348714Y184217D01*
X348626Y184149D01*
X348536Y184084D01*
X348444Y184023D01*
X348350Y183965D01*
X348254Y183910D01*
X348155Y183858D01*
X348055Y183811D01*
X347954Y183766D01*
X347851Y183726D01*
X347746Y183689D01*
X347640Y183656D01*
X347534Y183626D01*
X347426Y183601D01*
X347317Y183579D01*
X347208Y183562D01*
X347098Y183548D01*
X346987Y183538D01*
X346877Y183532D01*
X346766Y183530D01*
X346766Y183529D02*
X343662Y183529D01*
X347387Y183529D02*
X349871Y178562D01*
X358415Y189738D02*
X358519Y189736D01*
X358624Y189730D01*
X358728Y189720D01*
X358831Y189707D01*
X358934Y189689D01*
X359037Y189668D01*
X359138Y189643D01*
X359239Y189614D01*
X359338Y189581D01*
X359436Y189545D01*
X359532Y189505D01*
X359627Y189461D01*
X359721Y189414D01*
X359812Y189364D01*
X359901Y189310D01*
X359989Y189253D01*
X360074Y189192D01*
X360157Y189128D01*
X360237Y189062D01*
X360315Y188992D01*
X360391Y188920D01*
X360463Y188844D01*
X360533Y188766D01*
X360599Y188686D01*
X360663Y188603D01*
X360724Y188518D01*
X360781Y188430D01*
X360835Y188341D01*
X360885Y188250D01*
X360932Y188156D01*
X360976Y188061D01*
X361016Y187965D01*
X361052Y187867D01*
X361085Y187768D01*
X361114Y187667D01*
X361139Y187566D01*
X361160Y187463D01*
X361178Y187360D01*
X361191Y187257D01*
X361201Y187153D01*
X361207Y187048D01*
X361209Y186944D01*
X358415Y189739D02*
X358296Y189737D01*
X358178Y189731D01*
X358059Y189721D01*
X357941Y189708D01*
X357824Y189690D01*
X357707Y189668D01*
X357591Y189643D01*
X357476Y189614D01*
X357361Y189581D01*
X357248Y189544D01*
X357137Y189504D01*
X357026Y189460D01*
X356918Y189412D01*
X356811Y189361D01*
X356705Y189306D01*
X356602Y189247D01*
X356500Y189186D01*
X356401Y189121D01*
X356303Y189052D01*
X356209Y188981D01*
X356116Y188906D01*
X356026Y188829D01*
X355939Y188748D01*
X355854Y188665D01*
X355772Y188579D01*
X355693Y188490D01*
X355617Y188399D01*
X355544Y188305D01*
X355475Y188209D01*
X355408Y188110D01*
X355345Y188010D01*
X355285Y187907D01*
X355228Y187803D01*
X355176Y187696D01*
X355126Y187588D01*
X355080Y187479D01*
X355038Y187367D01*
X355000Y187255D01*
X360278Y184771D02*
X360353Y184845D01*
X360425Y184922D01*
X360495Y185001D01*
X360562Y185083D01*
X360626Y185167D01*
X360687Y185253D01*
X360745Y185341D01*
X360800Y185432D01*
X360852Y185524D01*
X360900Y185618D01*
X360945Y185713D01*
X360987Y185811D01*
X361025Y185909D01*
X361060Y186009D01*
X361091Y186110D01*
X361118Y186212D01*
X361142Y186315D01*
X361163Y186418D01*
X361179Y186523D01*
X361192Y186628D01*
X361202Y186733D01*
X361207Y186838D01*
X361209Y186944D01*
X360278Y184771D02*
X355000Y178562D01*
X361209Y178562D01*
D14*
X343700Y161600D02*
X343458Y161597D01*
X343217Y161588D01*
X342976Y161574D01*
X342735Y161553D01*
X342495Y161527D01*
X342255Y161495D01*
X342016Y161457D01*
X341779Y161414D01*
X341542Y161364D01*
X341307Y161309D01*
X341073Y161249D01*
X340841Y161182D01*
X340610Y161111D01*
X340381Y161033D01*
X340154Y160950D01*
X339929Y160862D01*
X339706Y160768D01*
X339486Y160669D01*
X339268Y160564D01*
X339053Y160455D01*
X338840Y160340D01*
X338630Y160220D01*
X338424Y160095D01*
X338220Y159965D01*
X338019Y159830D01*
X337822Y159690D01*
X337628Y159546D01*
X337438Y159397D01*
X337252Y159243D01*
X337069Y159085D01*
X336890Y158923D01*
X336715Y158756D01*
X336544Y158585D01*
X336377Y158410D01*
X336215Y158231D01*
X336057Y158048D01*
X335903Y157862D01*
X335754Y157672D01*
X335610Y157478D01*
X335470Y157281D01*
X335335Y157080D01*
X335205Y156876D01*
X335080Y156670D01*
X334960Y156460D01*
X334845Y156247D01*
X334736Y156032D01*
X334631Y155814D01*
X334532Y155594D01*
X334438Y155371D01*
X334350Y155146D01*
X334267Y154919D01*
X334189Y154690D01*
X334118Y154459D01*
X334051Y154227D01*
X333991Y153993D01*
X333936Y153758D01*
X333886Y153521D01*
X333843Y153284D01*
X333805Y153045D01*
X333773Y152805D01*
X333747Y152565D01*
X333726Y152324D01*
X333712Y152083D01*
X333703Y151842D01*
X333700Y151600D01*
X343700Y161600D02*
X443700Y161600D01*
X443942Y161597D01*
X444183Y161588D01*
X444424Y161574D01*
X444665Y161553D01*
X444905Y161527D01*
X445145Y161495D01*
X445384Y161457D01*
X445621Y161414D01*
X445858Y161364D01*
X446093Y161309D01*
X446327Y161249D01*
X446559Y161182D01*
X446790Y161111D01*
X447019Y161033D01*
X447246Y160950D01*
X447471Y160862D01*
X447694Y160768D01*
X447914Y160669D01*
X448132Y160564D01*
X448347Y160455D01*
X448560Y160340D01*
X448770Y160220D01*
X448976Y160095D01*
X449180Y159965D01*
X449381Y159830D01*
X449578Y159690D01*
X449772Y159546D01*
X449962Y159397D01*
X450148Y159243D01*
X450331Y159085D01*
X450510Y158923D01*
X450685Y158756D01*
X450856Y158585D01*
X451023Y158410D01*
X451185Y158231D01*
X451343Y158048D01*
X451497Y157862D01*
X451646Y157672D01*
X451790Y157478D01*
X451930Y157281D01*
X452065Y157080D01*
X452195Y156876D01*
X452320Y156670D01*
X452440Y156460D01*
X452555Y156247D01*
X452664Y156032D01*
X452769Y155814D01*
X452868Y155594D01*
X452962Y155371D01*
X453050Y155146D01*
X453133Y154919D01*
X453211Y154690D01*
X453282Y154459D01*
X453349Y154227D01*
X453409Y153993D01*
X453464Y153758D01*
X453514Y153521D01*
X453557Y153284D01*
X453595Y153045D01*
X453627Y152805D01*
X453653Y152565D01*
X453674Y152324D01*
X453688Y152083D01*
X453697Y151842D01*
X453700Y151600D01*
X453700Y51600D02*
X453697Y51358D01*
X453688Y51117D01*
X453674Y50876D01*
X453653Y50635D01*
X453627Y50395D01*
X453595Y50155D01*
X453557Y49916D01*
X453514Y49679D01*
X453464Y49442D01*
X453409Y49207D01*
X453349Y48973D01*
X453282Y48741D01*
X453211Y48510D01*
X453133Y48281D01*
X453050Y48054D01*
X452962Y47829D01*
X452868Y47606D01*
X452769Y47386D01*
X452664Y47168D01*
X452555Y46953D01*
X452440Y46740D01*
X452320Y46530D01*
X452195Y46324D01*
X452065Y46120D01*
X451930Y45919D01*
X451790Y45722D01*
X451646Y45528D01*
X451497Y45338D01*
X451343Y45152D01*
X451185Y44969D01*
X451023Y44790D01*
X450856Y44615D01*
X450685Y44444D01*
X450510Y44277D01*
X450331Y44115D01*
X450148Y43957D01*
X449962Y43803D01*
X449772Y43654D01*
X449578Y43510D01*
X449381Y43370D01*
X449180Y43235D01*
X448976Y43105D01*
X448770Y42980D01*
X448560Y42860D01*
X448347Y42745D01*
X448132Y42636D01*
X447914Y42531D01*
X447694Y42432D01*
X447471Y42338D01*
X447246Y42250D01*
X447019Y42167D01*
X446790Y42089D01*
X446559Y42018D01*
X446327Y41951D01*
X446093Y41891D01*
X445858Y41836D01*
X445621Y41786D01*
X445384Y41743D01*
X445145Y41705D01*
X444905Y41673D01*
X444665Y41647D01*
X444424Y41626D01*
X444183Y41612D01*
X443942Y41603D01*
X443700Y41600D01*
X343700Y41600D01*
X343458Y41603D01*
X343217Y41612D01*
X342976Y41626D01*
X342735Y41647D01*
X342495Y41673D01*
X342255Y41705D01*
X342016Y41743D01*
X341779Y41786D01*
X341542Y41836D01*
X341307Y41891D01*
X341073Y41951D01*
X340841Y42018D01*
X340610Y42089D01*
X340381Y42167D01*
X340154Y42250D01*
X339929Y42338D01*
X339706Y42432D01*
X339486Y42531D01*
X339268Y42636D01*
X339053Y42745D01*
X338840Y42860D01*
X338630Y42980D01*
X338424Y43105D01*
X338220Y43235D01*
X338019Y43370D01*
X337822Y43510D01*
X337628Y43654D01*
X337438Y43803D01*
X337252Y43957D01*
X337069Y44115D01*
X336890Y44277D01*
X336715Y44444D01*
X336544Y44615D01*
X336377Y44790D01*
X336215Y44969D01*
X336057Y45152D01*
X335903Y45338D01*
X335754Y45528D01*
X335610Y45722D01*
X335470Y45919D01*
X335335Y46120D01*
X335205Y46324D01*
X335080Y46530D01*
X334960Y46740D01*
X334845Y46953D01*
X334736Y47168D01*
X334631Y47386D01*
X334532Y47606D01*
X334438Y47829D01*
X334350Y48054D01*
X334267Y48281D01*
X334189Y48510D01*
X334118Y48741D01*
X334051Y48973D01*
X333991Y49207D01*
X333936Y49442D01*
X333886Y49679D01*
X333843Y49916D01*
X333805Y50155D01*
X333773Y50395D01*
X333747Y50635D01*
X333726Y50876D01*
X333712Y51117D01*
X333703Y51358D01*
X333700Y51600D01*
X358345Y101600D02*
X358356Y102468D01*
X358388Y103335D01*
X358441Y104201D01*
X358515Y105065D01*
X358611Y105928D01*
X358728Y106788D01*
X358866Y107644D01*
X359024Y108497D01*
X359204Y109346D01*
X359405Y110191D01*
X359626Y111030D01*
X359867Y111863D01*
X360129Y112690D01*
X360412Y113511D01*
X360714Y114324D01*
X361036Y115130D01*
X361378Y115927D01*
X361739Y116716D01*
X362120Y117496D01*
X362520Y118266D01*
X362938Y119026D01*
X363375Y119776D01*
X363830Y120515D01*
X364303Y121242D01*
X364794Y121958D01*
X365303Y122661D01*
X365828Y123352D01*
X366370Y124029D01*
X366929Y124693D01*
X367504Y125343D01*
X368094Y125979D01*
X368700Y126600D01*
X369321Y127206D01*
X369957Y127796D01*
X370607Y128371D01*
X371271Y128930D01*
X371948Y129472D01*
X372639Y129997D01*
X373342Y130506D01*
X374058Y130997D01*
X374785Y131470D01*
X375524Y131925D01*
X376274Y132362D01*
X377034Y132780D01*
X377804Y133180D01*
X378584Y133561D01*
X379373Y133922D01*
X380170Y134264D01*
X380976Y134586D01*
X381789Y134888D01*
X382610Y135171D01*
X383437Y135433D01*
X384270Y135674D01*
X385109Y135895D01*
X385954Y136096D01*
X386803Y136276D01*
X387656Y136434D01*
X388512Y136572D01*
X389372Y136689D01*
X390235Y136785D01*
X391099Y136859D01*
X391965Y136912D01*
X392832Y136944D01*
X393700Y136955D01*
X394568Y136944D01*
X395435Y136912D01*
X396301Y136859D01*
X397165Y136785D01*
X398028Y136689D01*
X398888Y136572D01*
X399744Y136434D01*
X400597Y136276D01*
X401446Y136096D01*
X402291Y135895D01*
X403130Y135674D01*
X403963Y135433D01*
X404790Y135171D01*
X405611Y134888D01*
X406424Y134586D01*
X407230Y134264D01*
X408027Y133922D01*
X408816Y133561D01*
X409596Y133180D01*
X410366Y132780D01*
X411126Y132362D01*
X411876Y131925D01*
X412615Y131470D01*
X413342Y130997D01*
X414058Y130506D01*
X414761Y129997D01*
X415452Y129472D01*
X416129Y128930D01*
X416793Y128371D01*
X417443Y127796D01*
X418079Y127206D01*
X418700Y126600D01*
X419306Y125979D01*
X419896Y125343D01*
X420471Y124693D01*
X421030Y124029D01*
X421572Y123352D01*
X422097Y122661D01*
X422606Y121958D01*
X423097Y121242D01*
X423570Y120515D01*
X424025Y119776D01*
X424462Y119026D01*
X424880Y118266D01*
X425280Y117496D01*
X425661Y116716D01*
X426022Y115927D01*
X426364Y115130D01*
X426686Y114324D01*
X426988Y113511D01*
X427271Y112690D01*
X427533Y111863D01*
X427774Y111030D01*
X427995Y110191D01*
X428196Y109346D01*
X428376Y108497D01*
X428534Y107644D01*
X428672Y106788D01*
X428789Y105928D01*
X428885Y105065D01*
X428959Y104201D01*
X429012Y103335D01*
X429044Y102468D01*
X429055Y101600D01*
X429044Y100732D01*
X429012Y99865D01*
X428959Y98999D01*
X428885Y98135D01*
X428789Y97272D01*
X428672Y96412D01*
X428534Y95556D01*
X428376Y94703D01*
X428196Y93854D01*
X427995Y93009D01*
X427774Y92170D01*
X427533Y91337D01*
X427271Y90510D01*
X426988Y89689D01*
X426686Y88876D01*
X426364Y88070D01*
X426022Y87273D01*
X425661Y86484D01*
X425280Y85704D01*
X424880Y84934D01*
X424462Y84174D01*
X424025Y83424D01*
X423570Y82685D01*
X423097Y81958D01*
X422606Y81242D01*
X422097Y80539D01*
X421572Y79848D01*
X421030Y79171D01*
X420471Y78507D01*
X419896Y77857D01*
X419306Y77221D01*
X418700Y76600D01*
X418079Y75994D01*
X417443Y75404D01*
X416793Y74829D01*
X416129Y74270D01*
X415452Y73728D01*
X414761Y73203D01*
X414058Y72694D01*
X413342Y72203D01*
X412615Y71730D01*
X411876Y71275D01*
X411126Y70838D01*
X410366Y70420D01*
X409596Y70020D01*
X408816Y69639D01*
X408027Y69278D01*
X407230Y68936D01*
X406424Y68614D01*
X405611Y68312D01*
X404790Y68029D01*
X403963Y67767D01*
X403130Y67526D01*
X402291Y67305D01*
X401446Y67104D01*
X400597Y66924D01*
X399744Y66766D01*
X398888Y66628D01*
X398028Y66511D01*
X397165Y66415D01*
X396301Y66341D01*
X395435Y66288D01*
X394568Y66256D01*
X393700Y66245D01*
X392832Y66256D01*
X391965Y66288D01*
X391099Y66341D01*
X390235Y66415D01*
X389372Y66511D01*
X388512Y66628D01*
X387656Y66766D01*
X386803Y66924D01*
X385954Y67104D01*
X385109Y67305D01*
X384270Y67526D01*
X383437Y67767D01*
X382610Y68029D01*
X381789Y68312D01*
X380976Y68614D01*
X380170Y68936D01*
X379373Y69278D01*
X378584Y69639D01*
X377804Y70020D01*
X377034Y70420D01*
X376274Y70838D01*
X375524Y71275D01*
X374785Y71730D01*
X374058Y72203D01*
X373342Y72694D01*
X372639Y73203D01*
X371948Y73728D01*
X371271Y74270D01*
X370607Y74829D01*
X369957Y75404D01*
X369321Y75994D01*
X368700Y76600D01*
X368094Y77221D01*
X367504Y77857D01*
X366929Y78507D01*
X366370Y79171D01*
X365828Y79848D01*
X365303Y80539D01*
X364794Y81242D01*
X364303Y81958D01*
X363830Y82685D01*
X363375Y83424D01*
X362938Y84174D01*
X362520Y84934D01*
X362120Y85704D01*
X361739Y86484D01*
X361378Y87273D01*
X361036Y88070D01*
X360714Y88876D01*
X360412Y89689D01*
X360129Y90510D01*
X359867Y91337D01*
X359626Y92170D01*
X359405Y93009D01*
X359204Y93854D01*
X359024Y94703D01*
X358866Y95556D01*
X358728Y96412D01*
X358611Y97272D01*
X358515Y98135D01*
X358441Y98999D01*
X358388Y99865D01*
X358356Y100732D01*
X358345Y101600D01*
X373700Y81600D02*
X413700Y81600D01*
X373700Y81600D02*
X373700Y121600D01*
X413700Y121600D01*
X413700Y81600D01*
X453700Y64100D02*
X453700Y51600D01*
X453700Y89100D02*
X453700Y114100D01*
X453700Y139100D02*
X453700Y151600D01*
X333700Y64100D02*
X333700Y51600D01*
X333700Y89100D02*
X333700Y114100D01*
X333700Y139100D02*
X333700Y151600D01*
D13*
X376223Y24638D02*
X376223Y13462D01*
X376223Y19671D02*
X382432Y19671D01*
X382432Y24638D02*
X382432Y13462D01*
X388034Y16566D02*
X388034Y21534D01*
X388035Y21534D02*
X388037Y21645D01*
X388043Y21755D01*
X388053Y21866D01*
X388067Y21976D01*
X388084Y22085D01*
X388106Y22194D01*
X388131Y22302D01*
X388161Y22408D01*
X388194Y22514D01*
X388231Y22619D01*
X388271Y22722D01*
X388316Y22823D01*
X388363Y22923D01*
X388415Y23022D01*
X388470Y23118D01*
X388528Y23212D01*
X388589Y23304D01*
X388654Y23394D01*
X388722Y23482D01*
X388793Y23567D01*
X388867Y23649D01*
X388944Y23729D01*
X389024Y23806D01*
X389106Y23880D01*
X389191Y23951D01*
X389279Y24019D01*
X389369Y24084D01*
X389461Y24145D01*
X389555Y24203D01*
X389651Y24258D01*
X389750Y24310D01*
X389850Y24357D01*
X389951Y24402D01*
X390054Y24442D01*
X390159Y24479D01*
X390265Y24512D01*
X390371Y24542D01*
X390479Y24567D01*
X390588Y24589D01*
X390697Y24606D01*
X390807Y24620D01*
X390918Y24630D01*
X391028Y24636D01*
X391139Y24638D01*
X391250Y24636D01*
X391360Y24630D01*
X391471Y24620D01*
X391581Y24606D01*
X391690Y24589D01*
X391799Y24567D01*
X391907Y24542D01*
X392013Y24512D01*
X392119Y24479D01*
X392224Y24442D01*
X392327Y24402D01*
X392428Y24357D01*
X392528Y24310D01*
X392627Y24258D01*
X392723Y24203D01*
X392817Y24145D01*
X392909Y24084D01*
X392999Y24019D01*
X393087Y23951D01*
X393172Y23880D01*
X393254Y23806D01*
X393334Y23729D01*
X393411Y23649D01*
X393485Y23567D01*
X393556Y23482D01*
X393624Y23394D01*
X393689Y23304D01*
X393750Y23212D01*
X393808Y23118D01*
X393863Y23022D01*
X393915Y22923D01*
X393962Y22823D01*
X394007Y22722D01*
X394047Y22619D01*
X394084Y22514D01*
X394117Y22408D01*
X394147Y22302D01*
X394172Y22194D01*
X394194Y22085D01*
X394211Y21976D01*
X394225Y21866D01*
X394235Y21755D01*
X394241Y21645D01*
X394243Y21534D01*
X394243Y16566D01*
X394241Y16455D01*
X394235Y16345D01*
X394225Y16234D01*
X394211Y16124D01*
X394194Y16015D01*
X394172Y15906D01*
X394147Y15798D01*
X394117Y15692D01*
X394084Y15586D01*
X394047Y15481D01*
X394007Y15378D01*
X393962Y15277D01*
X393915Y15177D01*
X393863Y15078D01*
X393808Y14982D01*
X393750Y14888D01*
X393689Y14796D01*
X393624Y14706D01*
X393556Y14618D01*
X393485Y14533D01*
X393411Y14451D01*
X393334Y14371D01*
X393254Y14294D01*
X393172Y14220D01*
X393087Y14149D01*
X392999Y14081D01*
X392909Y14016D01*
X392817Y13955D01*
X392723Y13897D01*
X392627Y13842D01*
X392528Y13790D01*
X392428Y13743D01*
X392327Y13698D01*
X392224Y13658D01*
X392119Y13621D01*
X392013Y13588D01*
X391907Y13558D01*
X391799Y13533D01*
X391690Y13511D01*
X391581Y13494D01*
X391471Y13480D01*
X391360Y13470D01*
X391250Y13464D01*
X391139Y13462D01*
X391028Y13464D01*
X390918Y13470D01*
X390807Y13480D01*
X390697Y13494D01*
X390588Y13511D01*
X390479Y13533D01*
X390371Y13558D01*
X390265Y13588D01*
X390159Y13621D01*
X390054Y13658D01*
X389951Y13698D01*
X389850Y13743D01*
X389750Y13790D01*
X389651Y13842D01*
X389555Y13897D01*
X389461Y13955D01*
X389369Y14016D01*
X389279Y14081D01*
X389191Y14149D01*
X389106Y14220D01*
X389024Y14294D01*
X388944Y14371D01*
X388867Y14451D01*
X388793Y14533D01*
X388722Y14618D01*
X388654Y14706D01*
X388589Y14796D01*
X388528Y14888D01*
X388470Y14982D01*
X388415Y15078D01*
X388363Y15177D01*
X388316Y15277D01*
X388271Y15378D01*
X388231Y15481D01*
X388194Y15586D01*
X388161Y15692D01*
X388131Y15798D01*
X388106Y15906D01*
X388084Y16015D01*
X388067Y16124D01*
X388053Y16234D01*
X388043Y16345D01*
X388037Y16455D01*
X388035Y16566D01*
X399845Y16566D02*
X399845Y24638D01*
X399846Y16566D02*
X399848Y16455D01*
X399854Y16345D01*
X399864Y16234D01*
X399878Y16124D01*
X399895Y16015D01*
X399917Y15906D01*
X399942Y15798D01*
X399972Y15692D01*
X400005Y15586D01*
X400042Y15481D01*
X400082Y15378D01*
X400127Y15277D01*
X400174Y15177D01*
X400226Y15078D01*
X400281Y14982D01*
X400339Y14888D01*
X400400Y14796D01*
X400465Y14706D01*
X400533Y14618D01*
X400604Y14533D01*
X400678Y14451D01*
X400755Y14371D01*
X400835Y14294D01*
X400917Y14220D01*
X401002Y14149D01*
X401090Y14081D01*
X401180Y14016D01*
X401272Y13955D01*
X401366Y13897D01*
X401462Y13842D01*
X401561Y13790D01*
X401661Y13743D01*
X401762Y13698D01*
X401865Y13658D01*
X401970Y13621D01*
X402076Y13588D01*
X402182Y13558D01*
X402290Y13533D01*
X402399Y13511D01*
X402508Y13494D01*
X402618Y13480D01*
X402729Y13470D01*
X402839Y13464D01*
X402950Y13462D01*
X403061Y13464D01*
X403171Y13470D01*
X403282Y13480D01*
X403392Y13494D01*
X403501Y13511D01*
X403610Y13533D01*
X403718Y13558D01*
X403824Y13588D01*
X403930Y13621D01*
X404035Y13658D01*
X404138Y13698D01*
X404239Y13743D01*
X404339Y13790D01*
X404438Y13842D01*
X404534Y13897D01*
X404628Y13955D01*
X404720Y14016D01*
X404810Y14081D01*
X404898Y14149D01*
X404983Y14220D01*
X405065Y14294D01*
X405145Y14371D01*
X405222Y14451D01*
X405296Y14533D01*
X405367Y14618D01*
X405435Y14706D01*
X405500Y14796D01*
X405561Y14888D01*
X405619Y14982D01*
X405674Y15078D01*
X405726Y15177D01*
X405773Y15277D01*
X405818Y15378D01*
X405858Y15481D01*
X405895Y15586D01*
X405928Y15692D01*
X405958Y15798D01*
X405983Y15906D01*
X406005Y16015D01*
X406022Y16124D01*
X406036Y16234D01*
X406046Y16345D01*
X406052Y16455D01*
X406054Y16566D01*
X406054Y24638D01*
X412129Y24638D02*
X412129Y13462D01*
X412129Y24638D02*
X415234Y24638D01*
X415345Y24636D01*
X415455Y24630D01*
X415566Y24620D01*
X415676Y24606D01*
X415785Y24589D01*
X415894Y24567D01*
X416002Y24542D01*
X416108Y24512D01*
X416214Y24479D01*
X416319Y24442D01*
X416422Y24402D01*
X416523Y24357D01*
X416623Y24310D01*
X416722Y24258D01*
X416818Y24203D01*
X416912Y24145D01*
X417004Y24084D01*
X417094Y24019D01*
X417182Y23951D01*
X417267Y23880D01*
X417349Y23806D01*
X417429Y23729D01*
X417506Y23649D01*
X417580Y23567D01*
X417651Y23482D01*
X417719Y23394D01*
X417784Y23304D01*
X417845Y23212D01*
X417903Y23118D01*
X417958Y23022D01*
X418010Y22923D01*
X418057Y22823D01*
X418102Y22722D01*
X418142Y22619D01*
X418179Y22514D01*
X418212Y22408D01*
X418242Y22302D01*
X418267Y22194D01*
X418289Y22085D01*
X418306Y21976D01*
X418320Y21866D01*
X418330Y21755D01*
X418336Y21645D01*
X418338Y21534D01*
X418336Y21423D01*
X418330Y21313D01*
X418320Y21202D01*
X418306Y21092D01*
X418289Y20983D01*
X418267Y20874D01*
X418242Y20766D01*
X418212Y20660D01*
X418179Y20554D01*
X418142Y20449D01*
X418102Y20346D01*
X418057Y20245D01*
X418010Y20145D01*
X417958Y20046D01*
X417903Y19950D01*
X417845Y19856D01*
X417784Y19764D01*
X417719Y19674D01*
X417651Y19586D01*
X417580Y19501D01*
X417506Y19419D01*
X417429Y19339D01*
X417349Y19262D01*
X417267Y19188D01*
X417182Y19117D01*
X417094Y19049D01*
X417004Y18984D01*
X416912Y18923D01*
X416818Y18865D01*
X416722Y18810D01*
X416623Y18758D01*
X416523Y18711D01*
X416422Y18666D01*
X416319Y18626D01*
X416214Y18589D01*
X416108Y18556D01*
X416002Y18526D01*
X415894Y18501D01*
X415785Y18479D01*
X415676Y18462D01*
X415566Y18448D01*
X415455Y18438D01*
X415345Y18432D01*
X415234Y18430D01*
X415234Y18429D02*
X412129Y18429D01*
X415854Y18429D02*
X418338Y13462D01*
D11*
X558800Y172720D02*
X558800Y182880D01*
D13*
X578591Y178562D02*
X578591Y189738D01*
X581696Y189738D01*
X581807Y189736D01*
X581917Y189730D01*
X582028Y189720D01*
X582138Y189706D01*
X582247Y189689D01*
X582356Y189667D01*
X582464Y189642D01*
X582570Y189612D01*
X582676Y189579D01*
X582781Y189542D01*
X582884Y189502D01*
X582985Y189457D01*
X583085Y189410D01*
X583184Y189358D01*
X583280Y189303D01*
X583374Y189245D01*
X583466Y189184D01*
X583556Y189119D01*
X583644Y189051D01*
X583729Y188980D01*
X583811Y188906D01*
X583891Y188829D01*
X583968Y188749D01*
X584042Y188667D01*
X584113Y188582D01*
X584181Y188494D01*
X584246Y188404D01*
X584307Y188312D01*
X584365Y188218D01*
X584420Y188122D01*
X584472Y188023D01*
X584519Y187923D01*
X584564Y187822D01*
X584604Y187719D01*
X584641Y187614D01*
X584674Y187508D01*
X584704Y187402D01*
X584729Y187294D01*
X584751Y187185D01*
X584768Y187076D01*
X584782Y186966D01*
X584792Y186855D01*
X584798Y186745D01*
X584800Y186634D01*
X584798Y186523D01*
X584792Y186413D01*
X584782Y186302D01*
X584768Y186192D01*
X584751Y186083D01*
X584729Y185974D01*
X584704Y185866D01*
X584674Y185760D01*
X584641Y185654D01*
X584604Y185549D01*
X584564Y185446D01*
X584519Y185345D01*
X584472Y185245D01*
X584420Y185146D01*
X584365Y185050D01*
X584307Y184956D01*
X584246Y184864D01*
X584181Y184774D01*
X584113Y184686D01*
X584042Y184601D01*
X583968Y184519D01*
X583891Y184439D01*
X583811Y184362D01*
X583729Y184288D01*
X583644Y184217D01*
X583556Y184149D01*
X583466Y184084D01*
X583374Y184023D01*
X583280Y183965D01*
X583184Y183910D01*
X583085Y183858D01*
X582985Y183811D01*
X582884Y183766D01*
X582781Y183726D01*
X582676Y183689D01*
X582570Y183656D01*
X582464Y183626D01*
X582356Y183601D01*
X582247Y183579D01*
X582138Y183562D01*
X582028Y183548D01*
X581917Y183538D01*
X581807Y183532D01*
X581696Y183530D01*
X581696Y183529D02*
X578591Y183529D01*
X582316Y183529D02*
X584800Y178562D01*
X589929Y178562D02*
X593034Y178562D01*
X593145Y178564D01*
X593255Y178570D01*
X593366Y178580D01*
X593476Y178594D01*
X593585Y178611D01*
X593694Y178633D01*
X593802Y178658D01*
X593908Y178688D01*
X594014Y178721D01*
X594119Y178758D01*
X594222Y178798D01*
X594323Y178843D01*
X594423Y178890D01*
X594522Y178942D01*
X594618Y178997D01*
X594712Y179055D01*
X594804Y179116D01*
X594894Y179181D01*
X594982Y179249D01*
X595067Y179320D01*
X595149Y179394D01*
X595229Y179471D01*
X595306Y179551D01*
X595380Y179633D01*
X595451Y179718D01*
X595519Y179806D01*
X595584Y179896D01*
X595645Y179988D01*
X595703Y180082D01*
X595758Y180178D01*
X595810Y180277D01*
X595857Y180377D01*
X595902Y180478D01*
X595942Y180581D01*
X595979Y180686D01*
X596012Y180792D01*
X596042Y180898D01*
X596067Y181006D01*
X596089Y181115D01*
X596106Y181224D01*
X596120Y181334D01*
X596130Y181445D01*
X596136Y181555D01*
X596138Y181666D01*
X596136Y181777D01*
X596130Y181887D01*
X596120Y181998D01*
X596106Y182108D01*
X596089Y182217D01*
X596067Y182326D01*
X596042Y182434D01*
X596012Y182540D01*
X595979Y182646D01*
X595942Y182751D01*
X595902Y182854D01*
X595857Y182955D01*
X595810Y183055D01*
X595758Y183154D01*
X595703Y183250D01*
X595645Y183344D01*
X595584Y183436D01*
X595519Y183526D01*
X595451Y183614D01*
X595380Y183699D01*
X595306Y183781D01*
X595229Y183861D01*
X595149Y183938D01*
X595067Y184012D01*
X594982Y184083D01*
X594894Y184151D01*
X594804Y184216D01*
X594712Y184277D01*
X594618Y184335D01*
X594522Y184390D01*
X594423Y184442D01*
X594323Y184489D01*
X594222Y184534D01*
X594119Y184574D01*
X594014Y184611D01*
X593908Y184644D01*
X593802Y184674D01*
X593694Y184699D01*
X593585Y184721D01*
X593476Y184738D01*
X593366Y184752D01*
X593255Y184762D01*
X593145Y184768D01*
X593034Y184770D01*
X593654Y189738D02*
X589929Y189738D01*
X593654Y189738D02*
X593753Y189736D01*
X593851Y189730D01*
X593950Y189720D01*
X594047Y189707D01*
X594145Y189689D01*
X594241Y189668D01*
X594337Y189642D01*
X594431Y189613D01*
X594524Y189581D01*
X594616Y189544D01*
X594706Y189504D01*
X594795Y189460D01*
X594882Y189413D01*
X594967Y189363D01*
X595049Y189309D01*
X595130Y189252D01*
X595208Y189192D01*
X595284Y189128D01*
X595357Y189062D01*
X595428Y188993D01*
X595496Y188921D01*
X595560Y188846D01*
X595622Y188769D01*
X595681Y188690D01*
X595736Y188608D01*
X595789Y188524D01*
X595837Y188439D01*
X595883Y188351D01*
X595925Y188261D01*
X595963Y188170D01*
X595997Y188078D01*
X596028Y187984D01*
X596055Y187889D01*
X596079Y187793D01*
X596098Y187696D01*
X596114Y187599D01*
X596126Y187501D01*
X596134Y187402D01*
X596138Y187303D01*
X596138Y187205D01*
X596134Y187106D01*
X596126Y187007D01*
X596114Y186909D01*
X596098Y186812D01*
X596079Y186715D01*
X596055Y186619D01*
X596028Y186524D01*
X595997Y186430D01*
X595963Y186338D01*
X595925Y186247D01*
X595883Y186157D01*
X595837Y186069D01*
X595789Y185984D01*
X595736Y185900D01*
X595681Y185818D01*
X595622Y185739D01*
X595560Y185662D01*
X595496Y185587D01*
X595428Y185515D01*
X595357Y185446D01*
X595284Y185380D01*
X595208Y185316D01*
X595130Y185256D01*
X595049Y185199D01*
X594967Y185145D01*
X594882Y185095D01*
X594795Y185048D01*
X594706Y185004D01*
X594616Y184964D01*
X594524Y184927D01*
X594431Y184895D01*
X594337Y184866D01*
X594241Y184840D01*
X594145Y184819D01*
X594047Y184801D01*
X593950Y184788D01*
X593851Y184778D01*
X593753Y184772D01*
X593654Y184770D01*
X593654Y184771D02*
X591171Y184771D01*
D14*
X707700Y51600D02*
X707697Y51358D01*
X707688Y51117D01*
X707674Y50876D01*
X707653Y50635D01*
X707627Y50395D01*
X707595Y50155D01*
X707557Y49916D01*
X707514Y49679D01*
X707464Y49442D01*
X707409Y49207D01*
X707349Y48973D01*
X707282Y48741D01*
X707211Y48510D01*
X707133Y48281D01*
X707050Y48054D01*
X706962Y47829D01*
X706868Y47606D01*
X706769Y47386D01*
X706664Y47168D01*
X706555Y46953D01*
X706440Y46740D01*
X706320Y46530D01*
X706195Y46324D01*
X706065Y46120D01*
X705930Y45919D01*
X705790Y45722D01*
X705646Y45528D01*
X705497Y45338D01*
X705343Y45152D01*
X705185Y44969D01*
X705023Y44790D01*
X704856Y44615D01*
X704685Y44444D01*
X704510Y44277D01*
X704331Y44115D01*
X704148Y43957D01*
X703962Y43803D01*
X703772Y43654D01*
X703578Y43510D01*
X703381Y43370D01*
X703180Y43235D01*
X702976Y43105D01*
X702770Y42980D01*
X702560Y42860D01*
X702347Y42745D01*
X702132Y42636D01*
X701914Y42531D01*
X701694Y42432D01*
X701471Y42338D01*
X701246Y42250D01*
X701019Y42167D01*
X700790Y42089D01*
X700559Y42018D01*
X700327Y41951D01*
X700093Y41891D01*
X699858Y41836D01*
X699621Y41786D01*
X699384Y41743D01*
X699145Y41705D01*
X698905Y41673D01*
X698665Y41647D01*
X698424Y41626D01*
X698183Y41612D01*
X697942Y41603D01*
X697700Y41600D01*
X597700Y41600D01*
X597458Y41603D01*
X597217Y41612D01*
X596976Y41626D01*
X596735Y41647D01*
X596495Y41673D01*
X596255Y41705D01*
X596016Y41743D01*
X595779Y41786D01*
X595542Y41836D01*
X595307Y41891D01*
X595073Y41951D01*
X594841Y42018D01*
X594610Y42089D01*
X594381Y42167D01*
X594154Y42250D01*
X593929Y42338D01*
X593706Y42432D01*
X593486Y42531D01*
X593268Y42636D01*
X593053Y42745D01*
X592840Y42860D01*
X592630Y42980D01*
X592424Y43105D01*
X592220Y43235D01*
X592019Y43370D01*
X591822Y43510D01*
X591628Y43654D01*
X591438Y43803D01*
X591252Y43957D01*
X591069Y44115D01*
X590890Y44277D01*
X590715Y44444D01*
X590544Y44615D01*
X590377Y44790D01*
X590215Y44969D01*
X590057Y45152D01*
X589903Y45338D01*
X589754Y45528D01*
X589610Y45722D01*
X589470Y45919D01*
X589335Y46120D01*
X589205Y46324D01*
X589080Y46530D01*
X588960Y46740D01*
X588845Y46953D01*
X588736Y47168D01*
X588631Y47386D01*
X588532Y47606D01*
X588438Y47829D01*
X588350Y48054D01*
X588267Y48281D01*
X588189Y48510D01*
X588118Y48741D01*
X588051Y48973D01*
X587991Y49207D01*
X587936Y49442D01*
X587886Y49679D01*
X587843Y49916D01*
X587805Y50155D01*
X587773Y50395D01*
X587747Y50635D01*
X587726Y50876D01*
X587712Y51117D01*
X587703Y51358D01*
X587700Y51600D01*
X587700Y151600D02*
X587703Y151842D01*
X587712Y152083D01*
X587726Y152324D01*
X587747Y152565D01*
X587773Y152805D01*
X587805Y153045D01*
X587843Y153284D01*
X587886Y153521D01*
X587936Y153758D01*
X587991Y153993D01*
X588051Y154227D01*
X588118Y154459D01*
X588189Y154690D01*
X588267Y154919D01*
X588350Y155146D01*
X588438Y155371D01*
X588532Y155594D01*
X588631Y155814D01*
X588736Y156032D01*
X588845Y156247D01*
X588960Y156460D01*
X589080Y156670D01*
X589205Y156876D01*
X589335Y157080D01*
X589470Y157281D01*
X589610Y157478D01*
X589754Y157672D01*
X589903Y157862D01*
X590057Y158048D01*
X590215Y158231D01*
X590377Y158410D01*
X590544Y158585D01*
X590715Y158756D01*
X590890Y158923D01*
X591069Y159085D01*
X591252Y159243D01*
X591438Y159397D01*
X591628Y159546D01*
X591822Y159690D01*
X592019Y159830D01*
X592220Y159965D01*
X592424Y160095D01*
X592630Y160220D01*
X592840Y160340D01*
X593053Y160455D01*
X593268Y160564D01*
X593486Y160669D01*
X593706Y160768D01*
X593929Y160862D01*
X594154Y160950D01*
X594381Y161033D01*
X594610Y161111D01*
X594841Y161182D01*
X595073Y161249D01*
X595307Y161309D01*
X595542Y161364D01*
X595779Y161414D01*
X596016Y161457D01*
X596255Y161495D01*
X596495Y161527D01*
X596735Y161553D01*
X596976Y161574D01*
X597217Y161588D01*
X597458Y161597D01*
X597700Y161600D01*
X697700Y161600D01*
X697942Y161597D01*
X698183Y161588D01*
X698424Y161574D01*
X698665Y161553D01*
X698905Y161527D01*
X699145Y161495D01*
X699384Y161457D01*
X699621Y161414D01*
X699858Y161364D01*
X700093Y161309D01*
X700327Y161249D01*
X700559Y161182D01*
X700790Y161111D01*
X701019Y161033D01*
X701246Y160950D01*
X701471Y160862D01*
X701694Y160768D01*
X701914Y160669D01*
X702132Y160564D01*
X702347Y160455D01*
X702560Y160340D01*
X702770Y160220D01*
X702976Y160095D01*
X703180Y159965D01*
X703381Y159830D01*
X703578Y159690D01*
X703772Y159546D01*
X703962Y159397D01*
X704148Y159243D01*
X704331Y159085D01*
X704510Y158923D01*
X704685Y158756D01*
X704856Y158585D01*
X705023Y158410D01*
X705185Y158231D01*
X705343Y158048D01*
X705497Y157862D01*
X705646Y157672D01*
X705790Y157478D01*
X705930Y157281D01*
X706065Y157080D01*
X706195Y156876D01*
X706320Y156670D01*
X706440Y156460D01*
X706555Y156247D01*
X706664Y156032D01*
X706769Y155814D01*
X706868Y155594D01*
X706962Y155371D01*
X707050Y155146D01*
X707133Y154919D01*
X707211Y154690D01*
X707282Y154459D01*
X707349Y154227D01*
X707409Y153993D01*
X707464Y153758D01*
X707514Y153521D01*
X707557Y153284D01*
X707595Y153045D01*
X707627Y152805D01*
X707653Y152565D01*
X707674Y152324D01*
X707688Y152083D01*
X707697Y151842D01*
X707700Y151600D01*
X612345Y101600D02*
X612356Y102468D01*
X612388Y103335D01*
X612441Y104201D01*
X612515Y105065D01*
X612611Y105928D01*
X612728Y106788D01*
X612866Y107644D01*
X613024Y108497D01*
X613204Y109346D01*
X613405Y110191D01*
X613626Y111030D01*
X613867Y111863D01*
X614129Y112690D01*
X614412Y113511D01*
X614714Y114324D01*
X615036Y115130D01*
X615378Y115927D01*
X615739Y116716D01*
X616120Y117496D01*
X616520Y118266D01*
X616938Y119026D01*
X617375Y119776D01*
X617830Y120515D01*
X618303Y121242D01*
X618794Y121958D01*
X619303Y122661D01*
X619828Y123352D01*
X620370Y124029D01*
X620929Y124693D01*
X621504Y125343D01*
X622094Y125979D01*
X622700Y126600D01*
X623321Y127206D01*
X623957Y127796D01*
X624607Y128371D01*
X625271Y128930D01*
X625948Y129472D01*
X626639Y129997D01*
X627342Y130506D01*
X628058Y130997D01*
X628785Y131470D01*
X629524Y131925D01*
X630274Y132362D01*
X631034Y132780D01*
X631804Y133180D01*
X632584Y133561D01*
X633373Y133922D01*
X634170Y134264D01*
X634976Y134586D01*
X635789Y134888D01*
X636610Y135171D01*
X637437Y135433D01*
X638270Y135674D01*
X639109Y135895D01*
X639954Y136096D01*
X640803Y136276D01*
X641656Y136434D01*
X642512Y136572D01*
X643372Y136689D01*
X644235Y136785D01*
X645099Y136859D01*
X645965Y136912D01*
X646832Y136944D01*
X647700Y136955D01*
X648568Y136944D01*
X649435Y136912D01*
X650301Y136859D01*
X651165Y136785D01*
X652028Y136689D01*
X652888Y136572D01*
X653744Y136434D01*
X654597Y136276D01*
X655446Y136096D01*
X656291Y135895D01*
X657130Y135674D01*
X657963Y135433D01*
X658790Y135171D01*
X659611Y134888D01*
X660424Y134586D01*
X661230Y134264D01*
X662027Y133922D01*
X662816Y133561D01*
X663596Y133180D01*
X664366Y132780D01*
X665126Y132362D01*
X665876Y131925D01*
X666615Y131470D01*
X667342Y130997D01*
X668058Y130506D01*
X668761Y129997D01*
X669452Y129472D01*
X670129Y128930D01*
X670793Y128371D01*
X671443Y127796D01*
X672079Y127206D01*
X672700Y126600D01*
X673306Y125979D01*
X673896Y125343D01*
X674471Y124693D01*
X675030Y124029D01*
X675572Y123352D01*
X676097Y122661D01*
X676606Y121958D01*
X677097Y121242D01*
X677570Y120515D01*
X678025Y119776D01*
X678462Y119026D01*
X678880Y118266D01*
X679280Y117496D01*
X679661Y116716D01*
X680022Y115927D01*
X680364Y115130D01*
X680686Y114324D01*
X680988Y113511D01*
X681271Y112690D01*
X681533Y111863D01*
X681774Y111030D01*
X681995Y110191D01*
X682196Y109346D01*
X682376Y108497D01*
X682534Y107644D01*
X682672Y106788D01*
X682789Y105928D01*
X682885Y105065D01*
X682959Y104201D01*
X683012Y103335D01*
X683044Y102468D01*
X683055Y101600D01*
X683044Y100732D01*
X683012Y99865D01*
X682959Y98999D01*
X682885Y98135D01*
X682789Y97272D01*
X682672Y96412D01*
X682534Y95556D01*
X682376Y94703D01*
X682196Y93854D01*
X681995Y93009D01*
X681774Y92170D01*
X681533Y91337D01*
X681271Y90510D01*
X680988Y89689D01*
X680686Y88876D01*
X680364Y88070D01*
X680022Y87273D01*
X679661Y86484D01*
X679280Y85704D01*
X678880Y84934D01*
X678462Y84174D01*
X678025Y83424D01*
X677570Y82685D01*
X677097Y81958D01*
X676606Y81242D01*
X676097Y80539D01*
X675572Y79848D01*
X675030Y79171D01*
X674471Y78507D01*
X673896Y77857D01*
X673306Y77221D01*
X672700Y76600D01*
X672079Y75994D01*
X671443Y75404D01*
X670793Y74829D01*
X670129Y74270D01*
X669452Y73728D01*
X668761Y73203D01*
X668058Y72694D01*
X667342Y72203D01*
X666615Y71730D01*
X665876Y71275D01*
X665126Y70838D01*
X664366Y70420D01*
X663596Y70020D01*
X662816Y69639D01*
X662027Y69278D01*
X661230Y68936D01*
X660424Y68614D01*
X659611Y68312D01*
X658790Y68029D01*
X657963Y67767D01*
X657130Y67526D01*
X656291Y67305D01*
X655446Y67104D01*
X654597Y66924D01*
X653744Y66766D01*
X652888Y66628D01*
X652028Y66511D01*
X651165Y66415D01*
X650301Y66341D01*
X649435Y66288D01*
X648568Y66256D01*
X647700Y66245D01*
X646832Y66256D01*
X645965Y66288D01*
X645099Y66341D01*
X644235Y66415D01*
X643372Y66511D01*
X642512Y66628D01*
X641656Y66766D01*
X640803Y66924D01*
X639954Y67104D01*
X639109Y67305D01*
X638270Y67526D01*
X637437Y67767D01*
X636610Y68029D01*
X635789Y68312D01*
X634976Y68614D01*
X634170Y68936D01*
X633373Y69278D01*
X632584Y69639D01*
X631804Y70020D01*
X631034Y70420D01*
X630274Y70838D01*
X629524Y71275D01*
X628785Y71730D01*
X628058Y72203D01*
X627342Y72694D01*
X626639Y73203D01*
X625948Y73728D01*
X625271Y74270D01*
X624607Y74829D01*
X623957Y75404D01*
X623321Y75994D01*
X622700Y76600D01*
X622094Y77221D01*
X621504Y77857D01*
X620929Y78507D01*
X620370Y79171D01*
X619828Y79848D01*
X619303Y80539D01*
X618794Y81242D01*
X618303Y81958D01*
X617830Y82685D01*
X617375Y83424D01*
X616938Y84174D01*
X616520Y84934D01*
X616120Y85704D01*
X615739Y86484D01*
X615378Y87273D01*
X615036Y88070D01*
X614714Y88876D01*
X614412Y89689D01*
X614129Y90510D01*
X613867Y91337D01*
X613626Y92170D01*
X613405Y93009D01*
X613204Y93854D01*
X613024Y94703D01*
X612866Y95556D01*
X612728Y96412D01*
X612611Y97272D01*
X612515Y98135D01*
X612441Y98999D01*
X612388Y99865D01*
X612356Y100732D01*
X612345Y101600D01*
X627700Y121600D02*
X667700Y121600D01*
X667700Y81600D01*
X627700Y81600D01*
X627700Y121600D01*
X587700Y139100D02*
X587700Y151600D01*
X587700Y114100D02*
X587700Y89100D01*
X587700Y64100D02*
X587700Y51600D01*
X707700Y139100D02*
X707700Y151600D01*
X707700Y114100D02*
X707700Y89100D01*
X707700Y64100D02*
X707700Y51600D01*
D13*
X623062Y24638D02*
X623062Y13462D01*
X626787Y18429D02*
X623062Y24638D01*
X626787Y18429D02*
X630513Y24638D01*
X630513Y13462D01*
X637074Y13462D02*
X637074Y24638D01*
X635833Y13462D02*
X638316Y13462D01*
X638316Y24638D02*
X635833Y24638D01*
X643495Y24638D02*
X643495Y13462D01*
X649704Y13462D02*
X643495Y24638D01*
X649704Y24638D02*
X649704Y13462D01*
X655687Y16566D02*
X655687Y24638D01*
X655687Y16566D02*
X655689Y16455D01*
X655695Y16345D01*
X655705Y16234D01*
X655719Y16124D01*
X655736Y16015D01*
X655758Y15906D01*
X655783Y15798D01*
X655813Y15692D01*
X655846Y15586D01*
X655883Y15481D01*
X655923Y15378D01*
X655968Y15277D01*
X656015Y15177D01*
X656067Y15078D01*
X656122Y14982D01*
X656180Y14888D01*
X656241Y14796D01*
X656306Y14706D01*
X656374Y14618D01*
X656445Y14533D01*
X656519Y14451D01*
X656596Y14371D01*
X656676Y14294D01*
X656758Y14220D01*
X656843Y14149D01*
X656931Y14081D01*
X657021Y14016D01*
X657113Y13955D01*
X657207Y13897D01*
X657303Y13842D01*
X657402Y13790D01*
X657502Y13743D01*
X657603Y13698D01*
X657706Y13658D01*
X657811Y13621D01*
X657917Y13588D01*
X658023Y13558D01*
X658131Y13533D01*
X658240Y13511D01*
X658349Y13494D01*
X658459Y13480D01*
X658570Y13470D01*
X658680Y13464D01*
X658791Y13462D01*
X658902Y13464D01*
X659012Y13470D01*
X659123Y13480D01*
X659233Y13494D01*
X659342Y13511D01*
X659451Y13533D01*
X659559Y13558D01*
X659665Y13588D01*
X659771Y13621D01*
X659876Y13658D01*
X659979Y13698D01*
X660080Y13743D01*
X660180Y13790D01*
X660279Y13842D01*
X660375Y13897D01*
X660469Y13955D01*
X660561Y14016D01*
X660651Y14081D01*
X660739Y14149D01*
X660824Y14220D01*
X660906Y14294D01*
X660986Y14371D01*
X661063Y14451D01*
X661137Y14533D01*
X661208Y14618D01*
X661276Y14706D01*
X661341Y14796D01*
X661402Y14888D01*
X661460Y14982D01*
X661515Y15078D01*
X661567Y15177D01*
X661614Y15277D01*
X661659Y15378D01*
X661699Y15481D01*
X661736Y15586D01*
X661769Y15692D01*
X661799Y15798D01*
X661824Y15906D01*
X661846Y16015D01*
X661863Y16124D01*
X661877Y16234D01*
X661887Y16345D01*
X661893Y16455D01*
X661895Y16566D01*
X661896Y16566D02*
X661896Y24638D01*
X669840Y24638D02*
X669840Y13462D01*
X666736Y24638D02*
X672945Y24638D01*
X677813Y13462D02*
X682780Y13462D01*
X677813Y13462D02*
X677813Y24638D01*
X682780Y24638D01*
X681538Y19671D02*
X677813Y19671D01*
D11*
X749300Y604520D02*
X749300Y614680D01*
D13*
X750062Y623062D02*
X750062Y634238D01*
X753166Y634238D01*
X753277Y634236D01*
X753387Y634230D01*
X753498Y634220D01*
X753608Y634206D01*
X753717Y634189D01*
X753826Y634167D01*
X753934Y634142D01*
X754040Y634112D01*
X754146Y634079D01*
X754251Y634042D01*
X754354Y634002D01*
X754455Y633957D01*
X754555Y633910D01*
X754654Y633858D01*
X754750Y633803D01*
X754844Y633745D01*
X754936Y633684D01*
X755026Y633619D01*
X755114Y633551D01*
X755199Y633480D01*
X755281Y633406D01*
X755361Y633329D01*
X755438Y633249D01*
X755512Y633167D01*
X755583Y633082D01*
X755651Y632994D01*
X755716Y632904D01*
X755777Y632812D01*
X755835Y632718D01*
X755890Y632622D01*
X755942Y632523D01*
X755989Y632423D01*
X756034Y632322D01*
X756074Y632219D01*
X756111Y632114D01*
X756144Y632008D01*
X756174Y631902D01*
X756199Y631794D01*
X756221Y631685D01*
X756238Y631576D01*
X756252Y631466D01*
X756262Y631355D01*
X756268Y631245D01*
X756270Y631134D01*
X756268Y631023D01*
X756262Y630913D01*
X756252Y630802D01*
X756238Y630692D01*
X756221Y630583D01*
X756199Y630474D01*
X756174Y630366D01*
X756144Y630260D01*
X756111Y630154D01*
X756074Y630049D01*
X756034Y629946D01*
X755989Y629845D01*
X755942Y629745D01*
X755890Y629646D01*
X755835Y629550D01*
X755777Y629456D01*
X755716Y629364D01*
X755651Y629274D01*
X755583Y629186D01*
X755512Y629101D01*
X755438Y629019D01*
X755361Y628939D01*
X755281Y628862D01*
X755199Y628788D01*
X755114Y628717D01*
X755026Y628649D01*
X754936Y628584D01*
X754844Y628523D01*
X754750Y628465D01*
X754654Y628410D01*
X754555Y628358D01*
X754455Y628311D01*
X754354Y628266D01*
X754251Y628226D01*
X754146Y628189D01*
X754040Y628156D01*
X753934Y628126D01*
X753826Y628101D01*
X753717Y628079D01*
X753608Y628062D01*
X753498Y628048D01*
X753387Y628038D01*
X753277Y628032D01*
X753166Y628030D01*
X753166Y628029D02*
X750062Y628029D01*
X753787Y628029D02*
X756271Y623062D01*
X761400Y625546D02*
X763884Y634238D01*
X761400Y625546D02*
X767609Y625546D01*
X765746Y628029D02*
X765746Y623062D01*
D14*
X910900Y305600D02*
X910897Y305358D01*
X910888Y305117D01*
X910874Y304876D01*
X910853Y304635D01*
X910827Y304395D01*
X910795Y304155D01*
X910757Y303916D01*
X910714Y303679D01*
X910664Y303442D01*
X910609Y303207D01*
X910549Y302973D01*
X910482Y302741D01*
X910411Y302510D01*
X910333Y302281D01*
X910250Y302054D01*
X910162Y301829D01*
X910068Y301606D01*
X909969Y301386D01*
X909864Y301168D01*
X909755Y300953D01*
X909640Y300740D01*
X909520Y300530D01*
X909395Y300324D01*
X909265Y300120D01*
X909130Y299919D01*
X908990Y299722D01*
X908846Y299528D01*
X908697Y299338D01*
X908543Y299152D01*
X908385Y298969D01*
X908223Y298790D01*
X908056Y298615D01*
X907885Y298444D01*
X907710Y298277D01*
X907531Y298115D01*
X907348Y297957D01*
X907162Y297803D01*
X906972Y297654D01*
X906778Y297510D01*
X906581Y297370D01*
X906380Y297235D01*
X906176Y297105D01*
X905970Y296980D01*
X905760Y296860D01*
X905547Y296745D01*
X905332Y296636D01*
X905114Y296531D01*
X904894Y296432D01*
X904671Y296338D01*
X904446Y296250D01*
X904219Y296167D01*
X903990Y296089D01*
X903759Y296018D01*
X903527Y295951D01*
X903293Y295891D01*
X903058Y295836D01*
X902821Y295786D01*
X902584Y295743D01*
X902345Y295705D01*
X902105Y295673D01*
X901865Y295647D01*
X901624Y295626D01*
X901383Y295612D01*
X901142Y295603D01*
X900900Y295600D01*
X800900Y295600D01*
X800658Y295603D01*
X800417Y295612D01*
X800176Y295626D01*
X799935Y295647D01*
X799695Y295673D01*
X799455Y295705D01*
X799216Y295743D01*
X798979Y295786D01*
X798742Y295836D01*
X798507Y295891D01*
X798273Y295951D01*
X798041Y296018D01*
X797810Y296089D01*
X797581Y296167D01*
X797354Y296250D01*
X797129Y296338D01*
X796906Y296432D01*
X796686Y296531D01*
X796468Y296636D01*
X796253Y296745D01*
X796040Y296860D01*
X795830Y296980D01*
X795624Y297105D01*
X795420Y297235D01*
X795219Y297370D01*
X795022Y297510D01*
X794828Y297654D01*
X794638Y297803D01*
X794452Y297957D01*
X794269Y298115D01*
X794090Y298277D01*
X793915Y298444D01*
X793744Y298615D01*
X793577Y298790D01*
X793415Y298969D01*
X793257Y299152D01*
X793103Y299338D01*
X792954Y299528D01*
X792810Y299722D01*
X792670Y299919D01*
X792535Y300120D01*
X792405Y300324D01*
X792280Y300530D01*
X792160Y300740D01*
X792045Y300953D01*
X791936Y301168D01*
X791831Y301386D01*
X791732Y301606D01*
X791638Y301829D01*
X791550Y302054D01*
X791467Y302281D01*
X791389Y302510D01*
X791318Y302741D01*
X791251Y302973D01*
X791191Y303207D01*
X791136Y303442D01*
X791086Y303679D01*
X791043Y303916D01*
X791005Y304155D01*
X790973Y304395D01*
X790947Y304635D01*
X790926Y304876D01*
X790912Y305117D01*
X790903Y305358D01*
X790900Y305600D01*
X790900Y405600D02*
X790903Y405842D01*
X790912Y406083D01*
X790926Y406324D01*
X790947Y406565D01*
X790973Y406805D01*
X791005Y407045D01*
X791043Y407284D01*
X791086Y407521D01*
X791136Y407758D01*
X791191Y407993D01*
X791251Y408227D01*
X791318Y408459D01*
X791389Y408690D01*
X791467Y408919D01*
X791550Y409146D01*
X791638Y409371D01*
X791732Y409594D01*
X791831Y409814D01*
X791936Y410032D01*
X792045Y410247D01*
X792160Y410460D01*
X792280Y410670D01*
X792405Y410876D01*
X792535Y411080D01*
X792670Y411281D01*
X792810Y411478D01*
X792954Y411672D01*
X793103Y411862D01*
X793257Y412048D01*
X793415Y412231D01*
X793577Y412410D01*
X793744Y412585D01*
X793915Y412756D01*
X794090Y412923D01*
X794269Y413085D01*
X794452Y413243D01*
X794638Y413397D01*
X794828Y413546D01*
X795022Y413690D01*
X795219Y413830D01*
X795420Y413965D01*
X795624Y414095D01*
X795830Y414220D01*
X796040Y414340D01*
X796253Y414455D01*
X796468Y414564D01*
X796686Y414669D01*
X796906Y414768D01*
X797129Y414862D01*
X797354Y414950D01*
X797581Y415033D01*
X797810Y415111D01*
X798041Y415182D01*
X798273Y415249D01*
X798507Y415309D01*
X798742Y415364D01*
X798979Y415414D01*
X799216Y415457D01*
X799455Y415495D01*
X799695Y415527D01*
X799935Y415553D01*
X800176Y415574D01*
X800417Y415588D01*
X800658Y415597D01*
X800900Y415600D01*
X900900Y415600D01*
X901142Y415597D01*
X901383Y415588D01*
X901624Y415574D01*
X901865Y415553D01*
X902105Y415527D01*
X902345Y415495D01*
X902584Y415457D01*
X902821Y415414D01*
X903058Y415364D01*
X903293Y415309D01*
X903527Y415249D01*
X903759Y415182D01*
X903990Y415111D01*
X904219Y415033D01*
X904446Y414950D01*
X904671Y414862D01*
X904894Y414768D01*
X905114Y414669D01*
X905332Y414564D01*
X905547Y414455D01*
X905760Y414340D01*
X905970Y414220D01*
X906176Y414095D01*
X906380Y413965D01*
X906581Y413830D01*
X906778Y413690D01*
X906972Y413546D01*
X907162Y413397D01*
X907348Y413243D01*
X907531Y413085D01*
X907710Y412923D01*
X907885Y412756D01*
X908056Y412585D01*
X908223Y412410D01*
X908385Y412231D01*
X908543Y412048D01*
X908697Y411862D01*
X908846Y411672D01*
X908990Y411478D01*
X909130Y411281D01*
X909265Y411080D01*
X909395Y410876D01*
X909520Y410670D01*
X909640Y410460D01*
X909755Y410247D01*
X909864Y410032D01*
X909969Y409814D01*
X910068Y409594D01*
X910162Y409371D01*
X910250Y409146D01*
X910333Y408919D01*
X910411Y408690D01*
X910482Y408459D01*
X910549Y408227D01*
X910609Y407993D01*
X910664Y407758D01*
X910714Y407521D01*
X910757Y407284D01*
X910795Y407045D01*
X910827Y406805D01*
X910853Y406565D01*
X910874Y406324D01*
X910888Y406083D01*
X910897Y405842D01*
X910900Y405600D01*
X815545Y355600D02*
X815556Y356468D01*
X815588Y357335D01*
X815641Y358201D01*
X815715Y359065D01*
X815811Y359928D01*
X815928Y360788D01*
X816066Y361644D01*
X816224Y362497D01*
X816404Y363346D01*
X816605Y364191D01*
X816826Y365030D01*
X817067Y365863D01*
X817329Y366690D01*
X817612Y367511D01*
X817914Y368324D01*
X818236Y369130D01*
X818578Y369927D01*
X818939Y370716D01*
X819320Y371496D01*
X819720Y372266D01*
X820138Y373026D01*
X820575Y373776D01*
X821030Y374515D01*
X821503Y375242D01*
X821994Y375958D01*
X822503Y376661D01*
X823028Y377352D01*
X823570Y378029D01*
X824129Y378693D01*
X824704Y379343D01*
X825294Y379979D01*
X825900Y380600D01*
X826521Y381206D01*
X827157Y381796D01*
X827807Y382371D01*
X828471Y382930D01*
X829148Y383472D01*
X829839Y383997D01*
X830542Y384506D01*
X831258Y384997D01*
X831985Y385470D01*
X832724Y385925D01*
X833474Y386362D01*
X834234Y386780D01*
X835004Y387180D01*
X835784Y387561D01*
X836573Y387922D01*
X837370Y388264D01*
X838176Y388586D01*
X838989Y388888D01*
X839810Y389171D01*
X840637Y389433D01*
X841470Y389674D01*
X842309Y389895D01*
X843154Y390096D01*
X844003Y390276D01*
X844856Y390434D01*
X845712Y390572D01*
X846572Y390689D01*
X847435Y390785D01*
X848299Y390859D01*
X849165Y390912D01*
X850032Y390944D01*
X850900Y390955D01*
X851768Y390944D01*
X852635Y390912D01*
X853501Y390859D01*
X854365Y390785D01*
X855228Y390689D01*
X856088Y390572D01*
X856944Y390434D01*
X857797Y390276D01*
X858646Y390096D01*
X859491Y389895D01*
X860330Y389674D01*
X861163Y389433D01*
X861990Y389171D01*
X862811Y388888D01*
X863624Y388586D01*
X864430Y388264D01*
X865227Y387922D01*
X866016Y387561D01*
X866796Y387180D01*
X867566Y386780D01*
X868326Y386362D01*
X869076Y385925D01*
X869815Y385470D01*
X870542Y384997D01*
X871258Y384506D01*
X871961Y383997D01*
X872652Y383472D01*
X873329Y382930D01*
X873993Y382371D01*
X874643Y381796D01*
X875279Y381206D01*
X875900Y380600D01*
X876506Y379979D01*
X877096Y379343D01*
X877671Y378693D01*
X878230Y378029D01*
X878772Y377352D01*
X879297Y376661D01*
X879806Y375958D01*
X880297Y375242D01*
X880770Y374515D01*
X881225Y373776D01*
X881662Y373026D01*
X882080Y372266D01*
X882480Y371496D01*
X882861Y370716D01*
X883222Y369927D01*
X883564Y369130D01*
X883886Y368324D01*
X884188Y367511D01*
X884471Y366690D01*
X884733Y365863D01*
X884974Y365030D01*
X885195Y364191D01*
X885396Y363346D01*
X885576Y362497D01*
X885734Y361644D01*
X885872Y360788D01*
X885989Y359928D01*
X886085Y359065D01*
X886159Y358201D01*
X886212Y357335D01*
X886244Y356468D01*
X886255Y355600D01*
X886244Y354732D01*
X886212Y353865D01*
X886159Y352999D01*
X886085Y352135D01*
X885989Y351272D01*
X885872Y350412D01*
X885734Y349556D01*
X885576Y348703D01*
X885396Y347854D01*
X885195Y347009D01*
X884974Y346170D01*
X884733Y345337D01*
X884471Y344510D01*
X884188Y343689D01*
X883886Y342876D01*
X883564Y342070D01*
X883222Y341273D01*
X882861Y340484D01*
X882480Y339704D01*
X882080Y338934D01*
X881662Y338174D01*
X881225Y337424D01*
X880770Y336685D01*
X880297Y335958D01*
X879806Y335242D01*
X879297Y334539D01*
X878772Y333848D01*
X878230Y333171D01*
X877671Y332507D01*
X877096Y331857D01*
X876506Y331221D01*
X875900Y330600D01*
X875279Y329994D01*
X874643Y329404D01*
X873993Y328829D01*
X873329Y328270D01*
X872652Y327728D01*
X871961Y327203D01*
X871258Y326694D01*
X870542Y326203D01*
X869815Y325730D01*
X869076Y325275D01*
X868326Y324838D01*
X867566Y324420D01*
X866796Y324020D01*
X866016Y323639D01*
X865227Y323278D01*
X864430Y322936D01*
X863624Y322614D01*
X862811Y322312D01*
X861990Y322029D01*
X861163Y321767D01*
X860330Y321526D01*
X859491Y321305D01*
X858646Y321104D01*
X857797Y320924D01*
X856944Y320766D01*
X856088Y320628D01*
X855228Y320511D01*
X854365Y320415D01*
X853501Y320341D01*
X852635Y320288D01*
X851768Y320256D01*
X850900Y320245D01*
X850032Y320256D01*
X849165Y320288D01*
X848299Y320341D01*
X847435Y320415D01*
X846572Y320511D01*
X845712Y320628D01*
X844856Y320766D01*
X844003Y320924D01*
X843154Y321104D01*
X842309Y321305D01*
X841470Y321526D01*
X840637Y321767D01*
X839810Y322029D01*
X838989Y322312D01*
X838176Y322614D01*
X837370Y322936D01*
X836573Y323278D01*
X835784Y323639D01*
X835004Y324020D01*
X834234Y324420D01*
X833474Y324838D01*
X832724Y325275D01*
X831985Y325730D01*
X831258Y326203D01*
X830542Y326694D01*
X829839Y327203D01*
X829148Y327728D01*
X828471Y328270D01*
X827807Y328829D01*
X827157Y329404D01*
X826521Y329994D01*
X825900Y330600D01*
X825294Y331221D01*
X824704Y331857D01*
X824129Y332507D01*
X823570Y333171D01*
X823028Y333848D01*
X822503Y334539D01*
X821994Y335242D01*
X821503Y335958D01*
X821030Y336685D01*
X820575Y337424D01*
X820138Y338174D01*
X819720Y338934D01*
X819320Y339704D01*
X818939Y340484D01*
X818578Y341273D01*
X818236Y342070D01*
X817914Y342876D01*
X817612Y343689D01*
X817329Y344510D01*
X817067Y345337D01*
X816826Y346170D01*
X816605Y347009D01*
X816404Y347854D01*
X816224Y348703D01*
X816066Y349556D01*
X815928Y350412D01*
X815811Y351272D01*
X815715Y352135D01*
X815641Y352999D01*
X815588Y353865D01*
X815556Y354732D01*
X815545Y355600D01*
X830900Y375600D02*
X870900Y375600D01*
X870900Y335600D01*
X830900Y335600D01*
X830900Y375600D01*
X790900Y393100D02*
X790900Y405600D01*
X790900Y368100D02*
X790900Y343100D01*
X790900Y318100D02*
X790900Y305600D01*
X910900Y393100D02*
X910900Y405600D01*
X910900Y368100D02*
X910900Y343100D01*
X910900Y318100D02*
X910900Y305600D01*
D13*
X807071Y269946D02*
X807069Y269848D01*
X807063Y269751D01*
X807054Y269654D01*
X807040Y269557D01*
X807023Y269461D01*
X807002Y269366D01*
X806978Y269272D01*
X806949Y269178D01*
X806917Y269086D01*
X806882Y268995D01*
X806843Y268906D01*
X806800Y268818D01*
X806754Y268732D01*
X806705Y268648D01*
X806652Y268566D01*
X806597Y268486D01*
X806538Y268408D01*
X806476Y268333D01*
X806411Y268260D01*
X806343Y268190D01*
X806273Y268122D01*
X806200Y268057D01*
X806125Y267995D01*
X806047Y267936D01*
X805967Y267881D01*
X805885Y267828D01*
X805801Y267779D01*
X805715Y267733D01*
X805627Y267690D01*
X805538Y267651D01*
X805447Y267616D01*
X805355Y267584D01*
X805261Y267555D01*
X805167Y267531D01*
X805072Y267510D01*
X804976Y267493D01*
X804879Y267479D01*
X804782Y267470D01*
X804684Y267464D01*
X804587Y267462D01*
X804444Y267464D01*
X804301Y267470D01*
X804159Y267479D01*
X804017Y267493D01*
X803875Y267511D01*
X803734Y267532D01*
X803593Y267557D01*
X803453Y267586D01*
X803314Y267619D01*
X803176Y267655D01*
X803039Y267696D01*
X802903Y267740D01*
X802768Y267787D01*
X802635Y267839D01*
X802503Y267894D01*
X802373Y267952D01*
X802244Y268014D01*
X802117Y268080D01*
X801992Y268149D01*
X801869Y268221D01*
X801748Y268297D01*
X801629Y268375D01*
X801512Y268458D01*
X801397Y268543D01*
X801285Y268631D01*
X801175Y268723D01*
X801068Y268817D01*
X800963Y268914D01*
X800861Y269014D01*
X801172Y276154D02*
X801174Y276252D01*
X801180Y276349D01*
X801189Y276446D01*
X801203Y276543D01*
X801220Y276639D01*
X801241Y276734D01*
X801265Y276828D01*
X801294Y276922D01*
X801326Y277014D01*
X801361Y277105D01*
X801400Y277194D01*
X801443Y277282D01*
X801489Y277368D01*
X801538Y277452D01*
X801591Y277534D01*
X801646Y277614D01*
X801705Y277692D01*
X801767Y277767D01*
X801832Y277840D01*
X801900Y277910D01*
X801970Y277978D01*
X802043Y278043D01*
X802118Y278105D01*
X802196Y278164D01*
X802276Y278219D01*
X802358Y278272D01*
X802442Y278321D01*
X802528Y278367D01*
X802616Y278410D01*
X802705Y278449D01*
X802796Y278484D01*
X802888Y278516D01*
X802982Y278545D01*
X803076Y278569D01*
X803171Y278590D01*
X803267Y278607D01*
X803364Y278621D01*
X803461Y278630D01*
X803558Y278636D01*
X803656Y278638D01*
X803786Y278636D01*
X803916Y278631D01*
X804046Y278622D01*
X804176Y278609D01*
X804305Y278593D01*
X804434Y278573D01*
X804562Y278549D01*
X804690Y278522D01*
X804816Y278491D01*
X804942Y278457D01*
X805067Y278419D01*
X805190Y278378D01*
X805313Y278333D01*
X805434Y278285D01*
X805554Y278234D01*
X805672Y278179D01*
X805788Y278121D01*
X805903Y278060D01*
X806017Y277995D01*
X806128Y277928D01*
X806237Y277857D01*
X806345Y277783D01*
X806450Y277707D01*
X802415Y273981D02*
X802332Y274032D01*
X802251Y274086D01*
X802173Y274143D01*
X802097Y274203D01*
X802023Y274266D01*
X801952Y274332D01*
X801883Y274400D01*
X801817Y274471D01*
X801753Y274544D01*
X801693Y274620D01*
X801636Y274698D01*
X801581Y274779D01*
X801530Y274861D01*
X801482Y274945D01*
X801437Y275031D01*
X801395Y275119D01*
X801357Y275208D01*
X801323Y275298D01*
X801291Y275390D01*
X801264Y275483D01*
X801240Y275577D01*
X801219Y275672D01*
X801203Y275768D01*
X801190Y275864D01*
X801180Y275960D01*
X801175Y276057D01*
X801173Y276154D01*
X805828Y272119D02*
X805911Y272068D01*
X805992Y272014D01*
X806070Y271957D01*
X806146Y271897D01*
X806220Y271834D01*
X806291Y271768D01*
X806360Y271700D01*
X806426Y271629D01*
X806490Y271556D01*
X806550Y271480D01*
X806607Y271402D01*
X806662Y271321D01*
X806713Y271239D01*
X806761Y271155D01*
X806806Y271069D01*
X806848Y270981D01*
X806886Y270892D01*
X806920Y270802D01*
X806952Y270710D01*
X806979Y270617D01*
X807003Y270523D01*
X807024Y270428D01*
X807040Y270332D01*
X807053Y270236D01*
X807063Y270140D01*
X807068Y270043D01*
X807070Y269946D01*
X805829Y272119D02*
X802414Y273981D01*
X814253Y278638D02*
X814253Y267462D01*
X811149Y278638D02*
X817358Y278638D01*
X821817Y275534D02*
X821817Y270566D01*
X821817Y275534D02*
X821819Y275645D01*
X821825Y275755D01*
X821835Y275866D01*
X821849Y275976D01*
X821866Y276085D01*
X821888Y276194D01*
X821913Y276302D01*
X821943Y276408D01*
X821976Y276514D01*
X822013Y276619D01*
X822053Y276722D01*
X822098Y276823D01*
X822145Y276923D01*
X822197Y277022D01*
X822252Y277118D01*
X822310Y277212D01*
X822371Y277304D01*
X822436Y277394D01*
X822504Y277482D01*
X822575Y277567D01*
X822649Y277649D01*
X822726Y277729D01*
X822806Y277806D01*
X822888Y277880D01*
X822973Y277951D01*
X823061Y278019D01*
X823151Y278084D01*
X823243Y278145D01*
X823337Y278203D01*
X823433Y278258D01*
X823532Y278310D01*
X823632Y278357D01*
X823733Y278402D01*
X823836Y278442D01*
X823941Y278479D01*
X824047Y278512D01*
X824153Y278542D01*
X824261Y278567D01*
X824370Y278589D01*
X824479Y278606D01*
X824589Y278620D01*
X824700Y278630D01*
X824810Y278636D01*
X824921Y278638D01*
X825032Y278636D01*
X825142Y278630D01*
X825253Y278620D01*
X825363Y278606D01*
X825472Y278589D01*
X825581Y278567D01*
X825689Y278542D01*
X825795Y278512D01*
X825901Y278479D01*
X826006Y278442D01*
X826109Y278402D01*
X826210Y278357D01*
X826310Y278310D01*
X826409Y278258D01*
X826505Y278203D01*
X826599Y278145D01*
X826691Y278084D01*
X826781Y278019D01*
X826869Y277951D01*
X826954Y277880D01*
X827036Y277806D01*
X827116Y277729D01*
X827193Y277649D01*
X827267Y277567D01*
X827338Y277482D01*
X827406Y277394D01*
X827471Y277304D01*
X827532Y277212D01*
X827590Y277118D01*
X827645Y277022D01*
X827697Y276923D01*
X827744Y276823D01*
X827789Y276722D01*
X827829Y276619D01*
X827866Y276514D01*
X827899Y276408D01*
X827929Y276302D01*
X827954Y276194D01*
X827976Y276085D01*
X827993Y275976D01*
X828007Y275866D01*
X828017Y275755D01*
X828023Y275645D01*
X828025Y275534D01*
X828026Y275534D02*
X828026Y270566D01*
X828025Y270566D02*
X828023Y270455D01*
X828017Y270345D01*
X828007Y270234D01*
X827993Y270124D01*
X827976Y270015D01*
X827954Y269906D01*
X827929Y269798D01*
X827899Y269692D01*
X827866Y269586D01*
X827829Y269481D01*
X827789Y269378D01*
X827744Y269277D01*
X827697Y269177D01*
X827645Y269078D01*
X827590Y268982D01*
X827532Y268888D01*
X827471Y268796D01*
X827406Y268706D01*
X827338Y268618D01*
X827267Y268533D01*
X827193Y268451D01*
X827116Y268371D01*
X827036Y268294D01*
X826954Y268220D01*
X826869Y268149D01*
X826781Y268081D01*
X826691Y268016D01*
X826599Y267955D01*
X826505Y267897D01*
X826409Y267842D01*
X826310Y267790D01*
X826210Y267743D01*
X826109Y267698D01*
X826006Y267658D01*
X825901Y267621D01*
X825795Y267588D01*
X825689Y267558D01*
X825581Y267533D01*
X825472Y267511D01*
X825363Y267494D01*
X825253Y267480D01*
X825142Y267470D01*
X825032Y267464D01*
X824921Y267462D01*
X824810Y267464D01*
X824700Y267470D01*
X824589Y267480D01*
X824479Y267494D01*
X824370Y267511D01*
X824261Y267533D01*
X824153Y267558D01*
X824047Y267588D01*
X823941Y267621D01*
X823836Y267658D01*
X823733Y267698D01*
X823632Y267743D01*
X823532Y267790D01*
X823433Y267842D01*
X823337Y267897D01*
X823243Y267955D01*
X823151Y268016D01*
X823061Y268081D01*
X822973Y268149D01*
X822888Y268220D01*
X822806Y268294D01*
X822726Y268371D01*
X822649Y268451D01*
X822575Y268533D01*
X822504Y268618D01*
X822436Y268706D01*
X822371Y268796D01*
X822310Y268888D01*
X822252Y268982D01*
X822197Y269078D01*
X822145Y269177D01*
X822098Y269277D01*
X822053Y269378D01*
X822013Y269481D01*
X821976Y269586D01*
X821943Y269692D01*
X821913Y269798D01*
X821888Y269906D01*
X821866Y270015D01*
X821849Y270124D01*
X821835Y270234D01*
X821825Y270345D01*
X821819Y270455D01*
X821817Y270566D01*
X833840Y267462D02*
X833840Y278638D01*
X836944Y278638D01*
X837055Y278636D01*
X837165Y278630D01*
X837276Y278620D01*
X837386Y278606D01*
X837495Y278589D01*
X837604Y278567D01*
X837712Y278542D01*
X837818Y278512D01*
X837924Y278479D01*
X838029Y278442D01*
X838132Y278402D01*
X838233Y278357D01*
X838333Y278310D01*
X838432Y278258D01*
X838528Y278203D01*
X838622Y278145D01*
X838714Y278084D01*
X838804Y278019D01*
X838892Y277951D01*
X838977Y277880D01*
X839059Y277806D01*
X839139Y277729D01*
X839216Y277649D01*
X839290Y277567D01*
X839361Y277482D01*
X839429Y277394D01*
X839494Y277304D01*
X839555Y277212D01*
X839613Y277118D01*
X839668Y277022D01*
X839720Y276923D01*
X839767Y276823D01*
X839812Y276722D01*
X839852Y276619D01*
X839889Y276514D01*
X839922Y276408D01*
X839952Y276302D01*
X839977Y276194D01*
X839999Y276085D01*
X840016Y275976D01*
X840030Y275866D01*
X840040Y275755D01*
X840046Y275645D01*
X840048Y275534D01*
X840046Y275423D01*
X840040Y275313D01*
X840030Y275202D01*
X840016Y275092D01*
X839999Y274983D01*
X839977Y274874D01*
X839952Y274766D01*
X839922Y274660D01*
X839889Y274554D01*
X839852Y274449D01*
X839812Y274346D01*
X839767Y274245D01*
X839720Y274145D01*
X839668Y274046D01*
X839613Y273950D01*
X839555Y273856D01*
X839494Y273764D01*
X839429Y273674D01*
X839361Y273586D01*
X839290Y273501D01*
X839216Y273419D01*
X839139Y273339D01*
X839059Y273262D01*
X838977Y273188D01*
X838892Y273117D01*
X838804Y273049D01*
X838714Y272984D01*
X838622Y272923D01*
X838528Y272865D01*
X838432Y272810D01*
X838333Y272758D01*
X838233Y272711D01*
X838132Y272666D01*
X838029Y272626D01*
X837924Y272589D01*
X837818Y272556D01*
X837712Y272526D01*
X837604Y272501D01*
X837495Y272479D01*
X837386Y272462D01*
X837276Y272448D01*
X837165Y272438D01*
X837055Y272432D01*
X836944Y272430D01*
X836944Y272429D02*
X833840Y272429D01*
X844155Y266220D02*
X849122Y266220D01*
X853200Y267462D02*
X856925Y278638D01*
X860651Y267462D01*
X859719Y270256D02*
X854131Y270256D01*
X865660Y267462D02*
X865660Y278638D01*
X865660Y267462D02*
X870627Y267462D01*
X874536Y267462D02*
X878261Y278638D01*
X881987Y267462D01*
X881055Y270256D02*
X875467Y270256D01*
X887060Y267462D02*
X887060Y278638D01*
X890164Y278638D01*
X890275Y278636D01*
X890385Y278630D01*
X890496Y278620D01*
X890606Y278606D01*
X890715Y278589D01*
X890824Y278567D01*
X890932Y278542D01*
X891038Y278512D01*
X891144Y278479D01*
X891249Y278442D01*
X891352Y278402D01*
X891453Y278357D01*
X891553Y278310D01*
X891652Y278258D01*
X891748Y278203D01*
X891842Y278145D01*
X891934Y278084D01*
X892024Y278019D01*
X892112Y277951D01*
X892197Y277880D01*
X892279Y277806D01*
X892359Y277729D01*
X892436Y277649D01*
X892510Y277567D01*
X892581Y277482D01*
X892649Y277394D01*
X892714Y277304D01*
X892775Y277212D01*
X892833Y277118D01*
X892888Y277022D01*
X892940Y276923D01*
X892987Y276823D01*
X893032Y276722D01*
X893072Y276619D01*
X893109Y276514D01*
X893142Y276408D01*
X893172Y276302D01*
X893197Y276194D01*
X893219Y276085D01*
X893236Y275976D01*
X893250Y275866D01*
X893260Y275755D01*
X893266Y275645D01*
X893268Y275534D01*
X893266Y275423D01*
X893260Y275313D01*
X893250Y275202D01*
X893236Y275092D01*
X893219Y274983D01*
X893197Y274874D01*
X893172Y274766D01*
X893142Y274660D01*
X893109Y274554D01*
X893072Y274449D01*
X893032Y274346D01*
X892987Y274245D01*
X892940Y274145D01*
X892888Y274046D01*
X892833Y273950D01*
X892775Y273856D01*
X892714Y273764D01*
X892649Y273674D01*
X892581Y273586D01*
X892510Y273501D01*
X892436Y273419D01*
X892359Y273339D01*
X892279Y273262D01*
X892197Y273188D01*
X892112Y273117D01*
X892024Y273049D01*
X891934Y272984D01*
X891842Y272923D01*
X891748Y272865D01*
X891652Y272810D01*
X891553Y272758D01*
X891453Y272711D01*
X891352Y272666D01*
X891249Y272626D01*
X891144Y272589D01*
X891038Y272556D01*
X890932Y272526D01*
X890824Y272501D01*
X890715Y272479D01*
X890606Y272462D01*
X890496Y272448D01*
X890385Y272438D01*
X890275Y272432D01*
X890164Y272430D01*
X890164Y272429D02*
X887060Y272429D01*
X890785Y272429D02*
X893269Y267462D01*
X898920Y267462D02*
X898920Y278638D01*
X902645Y272429D01*
X906371Y278638D01*
X906371Y267462D01*
D15*
X889000Y38100D03*
D13*
X842772Y43942D02*
X842772Y55118D01*
X845876Y55118D01*
X845987Y55116D01*
X846097Y55110D01*
X846208Y55100D01*
X846318Y55086D01*
X846427Y55069D01*
X846536Y55047D01*
X846644Y55022D01*
X846750Y54992D01*
X846856Y54959D01*
X846961Y54922D01*
X847064Y54882D01*
X847165Y54837D01*
X847265Y54790D01*
X847364Y54738D01*
X847460Y54683D01*
X847554Y54625D01*
X847646Y54564D01*
X847736Y54499D01*
X847824Y54431D01*
X847909Y54360D01*
X847991Y54286D01*
X848071Y54209D01*
X848148Y54129D01*
X848222Y54047D01*
X848293Y53962D01*
X848361Y53874D01*
X848426Y53784D01*
X848487Y53692D01*
X848545Y53598D01*
X848600Y53502D01*
X848652Y53403D01*
X848699Y53303D01*
X848744Y53202D01*
X848784Y53099D01*
X848821Y52994D01*
X848854Y52888D01*
X848884Y52782D01*
X848909Y52674D01*
X848931Y52565D01*
X848948Y52456D01*
X848962Y52346D01*
X848972Y52235D01*
X848978Y52125D01*
X848980Y52014D01*
X848978Y51903D01*
X848972Y51793D01*
X848962Y51682D01*
X848948Y51572D01*
X848931Y51463D01*
X848909Y51354D01*
X848884Y51246D01*
X848854Y51140D01*
X848821Y51034D01*
X848784Y50929D01*
X848744Y50826D01*
X848699Y50725D01*
X848652Y50625D01*
X848600Y50526D01*
X848545Y50430D01*
X848487Y50336D01*
X848426Y50244D01*
X848361Y50154D01*
X848293Y50066D01*
X848222Y49981D01*
X848148Y49899D01*
X848071Y49819D01*
X847991Y49742D01*
X847909Y49668D01*
X847824Y49597D01*
X847736Y49529D01*
X847646Y49464D01*
X847554Y49403D01*
X847460Y49345D01*
X847364Y49290D01*
X847265Y49238D01*
X847165Y49191D01*
X847064Y49146D01*
X846961Y49106D01*
X846856Y49069D01*
X846750Y49036D01*
X846644Y49006D01*
X846536Y48981D01*
X846427Y48959D01*
X846318Y48942D01*
X846208Y48928D01*
X846097Y48918D01*
X845987Y48912D01*
X845876Y48910D01*
X845876Y48909D02*
X842772Y48909D01*
X846497Y48909D02*
X848981Y43942D01*
X854110Y43942D02*
X857835Y43942D01*
X857933Y43944D01*
X858030Y43950D01*
X858127Y43959D01*
X858224Y43973D01*
X858320Y43990D01*
X858415Y44011D01*
X858509Y44035D01*
X858603Y44064D01*
X858695Y44096D01*
X858786Y44131D01*
X858875Y44170D01*
X858963Y44213D01*
X859049Y44259D01*
X859133Y44308D01*
X859215Y44361D01*
X859295Y44416D01*
X859373Y44475D01*
X859448Y44537D01*
X859521Y44602D01*
X859591Y44670D01*
X859659Y44740D01*
X859724Y44813D01*
X859786Y44888D01*
X859845Y44966D01*
X859900Y45046D01*
X859953Y45128D01*
X860002Y45212D01*
X860048Y45298D01*
X860091Y45386D01*
X860130Y45475D01*
X860165Y45566D01*
X860197Y45658D01*
X860226Y45752D01*
X860250Y45846D01*
X860271Y45941D01*
X860288Y46037D01*
X860302Y46134D01*
X860311Y46231D01*
X860317Y46328D01*
X860319Y46426D01*
X860319Y47667D01*
X860317Y47765D01*
X860311Y47862D01*
X860302Y47959D01*
X860288Y48056D01*
X860271Y48152D01*
X860250Y48247D01*
X860226Y48341D01*
X860197Y48435D01*
X860165Y48527D01*
X860130Y48618D01*
X860091Y48707D01*
X860048Y48795D01*
X860002Y48881D01*
X859953Y48965D01*
X859900Y49047D01*
X859845Y49127D01*
X859786Y49205D01*
X859724Y49280D01*
X859659Y49353D01*
X859591Y49423D01*
X859521Y49491D01*
X859448Y49556D01*
X859373Y49618D01*
X859295Y49677D01*
X859215Y49732D01*
X859133Y49785D01*
X859049Y49834D01*
X858963Y49880D01*
X858875Y49923D01*
X858786Y49962D01*
X858695Y49997D01*
X858603Y50029D01*
X858509Y50058D01*
X858415Y50082D01*
X858320Y50103D01*
X858224Y50120D01*
X858127Y50134D01*
X858030Y50143D01*
X857933Y50149D01*
X857835Y50151D01*
X854110Y50151D01*
X854110Y55118D01*
X860319Y55118D01*
M02*
