G04 EAGLE Gerber RS-274X export*
G75*
%MOMM*%
%FSLAX34Y34*%
%LPD*%
%INSoldermask Top*%
%IPPOS*%
%AMOC8*
5,1,8,0,0,1.08239X$1,22.5*%
G01*
%ADD10C,1.272400*%
%ADD11R,1.676400X1.676400*%
%ADD12P,1.814519X8X202.500000*%
%ADD13R,1.102359X1.183641*%
%ADD14C,2.112400*%
%ADD15C,3.708400*%
%ADD16R,1.580400X1.580400*%
%ADD17C,1.580400*%
%ADD18C,0.609600*%
%ADD19C,1.168400*%
%ADD20C,4.597400*%
%ADD21R,0.762000X0.660400*%


D10*
X850900Y616700D03*
X850900Y551700D03*
D11*
X601300Y340100D03*
D12*
X601300Y365500D03*
X575900Y340100D03*
X575900Y365500D03*
X550500Y340100D03*
X550500Y365500D03*
X525100Y340100D03*
X525100Y365500D03*
X499700Y340100D03*
X499700Y365500D03*
X474300Y340100D03*
X474300Y365500D03*
X448900Y340100D03*
X448900Y365500D03*
X423500Y340100D03*
X423500Y365500D03*
X398100Y340100D03*
X398100Y365500D03*
X372700Y340100D03*
X372700Y365500D03*
X347300Y340100D03*
X347300Y365500D03*
X321900Y340100D03*
X321900Y365500D03*
X296500Y340100D03*
X296500Y365500D03*
X271100Y340100D03*
X271100Y365500D03*
X245700Y340100D03*
X245700Y365500D03*
X220300Y340100D03*
X220300Y365500D03*
X194900Y340100D03*
X194900Y365500D03*
X169500Y340100D03*
X169500Y365500D03*
D11*
X601300Y594100D03*
D12*
X601300Y619500D03*
X575900Y594100D03*
X575900Y619500D03*
X550500Y594100D03*
X550500Y619500D03*
X525100Y594100D03*
X525100Y619500D03*
X499700Y594100D03*
X499700Y619500D03*
X474300Y594100D03*
X474300Y619500D03*
X448900Y594100D03*
X448900Y619500D03*
X423500Y594100D03*
X423500Y619500D03*
X398100Y594100D03*
X398100Y619500D03*
X372700Y594100D03*
X372700Y619500D03*
X347300Y594100D03*
X347300Y619500D03*
X321900Y594100D03*
X321900Y619500D03*
X296500Y594100D03*
X296500Y619500D03*
X271100Y594100D03*
X271100Y619500D03*
X245700Y594100D03*
X245700Y619500D03*
X220300Y594100D03*
X220300Y619500D03*
X194900Y594100D03*
X194900Y619500D03*
X169500Y594100D03*
X169500Y619500D03*
D13*
X245999Y177800D03*
X262001Y177800D03*
D14*
X227600Y126600D03*
X227600Y76600D03*
X102600Y76600D03*
X102600Y126600D03*
D15*
X679450Y232410D03*
X679450Y707390D03*
X107950Y232410D03*
X107950Y707390D03*
D16*
X635000Y228600D03*
D17*
X406400Y228600D03*
X431800Y228600D03*
X457200Y228600D03*
X482600Y228600D03*
X508000Y228600D03*
X533400Y228600D03*
X558800Y228600D03*
X584200Y228600D03*
X609600Y228600D03*
X381000Y228600D03*
X355600Y228600D03*
X330200Y228600D03*
X304800Y228600D03*
X279400Y228600D03*
X254000Y228600D03*
X228600Y228600D03*
X203200Y228600D03*
X177800Y228600D03*
X152400Y228600D03*
X635000Y711200D03*
X609600Y711200D03*
X584200Y711200D03*
X558800Y711200D03*
X533400Y711200D03*
X508000Y711200D03*
X482600Y711200D03*
X457200Y711200D03*
X431800Y711200D03*
X406400Y711200D03*
X381000Y711200D03*
X355600Y711200D03*
X330200Y711200D03*
X304800Y711200D03*
X279400Y711200D03*
X254000Y711200D03*
X228600Y711200D03*
X203200Y711200D03*
X177800Y711200D03*
X152400Y711200D03*
D13*
X372999Y177800D03*
X389001Y177800D03*
D14*
X331200Y76600D03*
X331200Y126600D03*
X456200Y126600D03*
X456200Y76600D03*
D13*
X566801Y177800D03*
X550799Y177800D03*
D14*
X710200Y126600D03*
X710200Y76600D03*
X585200Y76600D03*
X585200Y126600D03*
D13*
X741299Y609600D03*
X757301Y609600D03*
D14*
X913400Y380600D03*
X913400Y330600D03*
X788400Y330600D03*
X788400Y380600D03*
D18*
X30480Y673100D02*
X30482Y673287D01*
X30489Y673474D01*
X30501Y673661D01*
X30517Y673847D01*
X30537Y674033D01*
X30562Y674218D01*
X30592Y674403D01*
X30626Y674587D01*
X30665Y674770D01*
X30708Y674952D01*
X30756Y675132D01*
X30808Y675312D01*
X30865Y675490D01*
X30925Y675667D01*
X30991Y675842D01*
X31060Y676016D01*
X31134Y676188D01*
X31212Y676358D01*
X31294Y676526D01*
X31380Y676692D01*
X31470Y676856D01*
X31564Y677017D01*
X31662Y677177D01*
X31764Y677333D01*
X31870Y677488D01*
X31980Y677639D01*
X32093Y677788D01*
X32210Y677934D01*
X32330Y678077D01*
X32454Y678217D01*
X32581Y678354D01*
X32712Y678488D01*
X32846Y678619D01*
X32983Y678746D01*
X33123Y678870D01*
X33266Y678990D01*
X33412Y679107D01*
X33561Y679220D01*
X33712Y679330D01*
X33867Y679436D01*
X34023Y679538D01*
X34183Y679636D01*
X34344Y679730D01*
X34508Y679820D01*
X34674Y679906D01*
X34842Y679988D01*
X35012Y680066D01*
X35184Y680140D01*
X35358Y680209D01*
X35533Y680275D01*
X35710Y680335D01*
X35888Y680392D01*
X36068Y680444D01*
X36248Y680492D01*
X36430Y680535D01*
X36613Y680574D01*
X36797Y680608D01*
X36982Y680638D01*
X37167Y680663D01*
X37353Y680683D01*
X37539Y680699D01*
X37726Y680711D01*
X37913Y680718D01*
X38100Y680720D01*
X38287Y680718D01*
X38474Y680711D01*
X38661Y680699D01*
X38847Y680683D01*
X39033Y680663D01*
X39218Y680638D01*
X39403Y680608D01*
X39587Y680574D01*
X39770Y680535D01*
X39952Y680492D01*
X40132Y680444D01*
X40312Y680392D01*
X40490Y680335D01*
X40667Y680275D01*
X40842Y680209D01*
X41016Y680140D01*
X41188Y680066D01*
X41358Y679988D01*
X41526Y679906D01*
X41692Y679820D01*
X41856Y679730D01*
X42017Y679636D01*
X42177Y679538D01*
X42333Y679436D01*
X42488Y679330D01*
X42639Y679220D01*
X42788Y679107D01*
X42934Y678990D01*
X43077Y678870D01*
X43217Y678746D01*
X43354Y678619D01*
X43488Y678488D01*
X43619Y678354D01*
X43746Y678217D01*
X43870Y678077D01*
X43990Y677934D01*
X44107Y677788D01*
X44220Y677639D01*
X44330Y677488D01*
X44436Y677333D01*
X44538Y677177D01*
X44636Y677017D01*
X44730Y676856D01*
X44820Y676692D01*
X44906Y676526D01*
X44988Y676358D01*
X45066Y676188D01*
X45140Y676016D01*
X45209Y675842D01*
X45275Y675667D01*
X45335Y675490D01*
X45392Y675312D01*
X45444Y675132D01*
X45492Y674952D01*
X45535Y674770D01*
X45574Y674587D01*
X45608Y674403D01*
X45638Y674218D01*
X45663Y674033D01*
X45683Y673847D01*
X45699Y673661D01*
X45711Y673474D01*
X45718Y673287D01*
X45720Y673100D01*
X45718Y672913D01*
X45711Y672726D01*
X45699Y672539D01*
X45683Y672353D01*
X45663Y672167D01*
X45638Y671982D01*
X45608Y671797D01*
X45574Y671613D01*
X45535Y671430D01*
X45492Y671248D01*
X45444Y671068D01*
X45392Y670888D01*
X45335Y670710D01*
X45275Y670533D01*
X45209Y670358D01*
X45140Y670184D01*
X45066Y670012D01*
X44988Y669842D01*
X44906Y669674D01*
X44820Y669508D01*
X44730Y669344D01*
X44636Y669183D01*
X44538Y669023D01*
X44436Y668867D01*
X44330Y668712D01*
X44220Y668561D01*
X44107Y668412D01*
X43990Y668266D01*
X43870Y668123D01*
X43746Y667983D01*
X43619Y667846D01*
X43488Y667712D01*
X43354Y667581D01*
X43217Y667454D01*
X43077Y667330D01*
X42934Y667210D01*
X42788Y667093D01*
X42639Y666980D01*
X42488Y666870D01*
X42333Y666764D01*
X42177Y666662D01*
X42017Y666564D01*
X41856Y666470D01*
X41692Y666380D01*
X41526Y666294D01*
X41358Y666212D01*
X41188Y666134D01*
X41016Y666060D01*
X40842Y665991D01*
X40667Y665925D01*
X40490Y665865D01*
X40312Y665808D01*
X40132Y665756D01*
X39952Y665708D01*
X39770Y665665D01*
X39587Y665626D01*
X39403Y665592D01*
X39218Y665562D01*
X39033Y665537D01*
X38847Y665517D01*
X38661Y665501D01*
X38474Y665489D01*
X38287Y665482D01*
X38100Y665480D01*
X37913Y665482D01*
X37726Y665489D01*
X37539Y665501D01*
X37353Y665517D01*
X37167Y665537D01*
X36982Y665562D01*
X36797Y665592D01*
X36613Y665626D01*
X36430Y665665D01*
X36248Y665708D01*
X36068Y665756D01*
X35888Y665808D01*
X35710Y665865D01*
X35533Y665925D01*
X35358Y665991D01*
X35184Y666060D01*
X35012Y666134D01*
X34842Y666212D01*
X34674Y666294D01*
X34508Y666380D01*
X34344Y666470D01*
X34183Y666564D01*
X34023Y666662D01*
X33867Y666764D01*
X33712Y666870D01*
X33561Y666980D01*
X33412Y667093D01*
X33266Y667210D01*
X33123Y667330D01*
X32983Y667454D01*
X32846Y667581D01*
X32712Y667712D01*
X32581Y667846D01*
X32454Y667983D01*
X32330Y668123D01*
X32210Y668266D01*
X32093Y668412D01*
X31980Y668561D01*
X31870Y668712D01*
X31764Y668867D01*
X31662Y669023D01*
X31564Y669183D01*
X31470Y669344D01*
X31380Y669508D01*
X31294Y669674D01*
X31212Y669842D01*
X31134Y670012D01*
X31060Y670184D01*
X30991Y670358D01*
X30925Y670533D01*
X30865Y670710D01*
X30808Y670888D01*
X30756Y671068D01*
X30708Y671248D01*
X30665Y671430D01*
X30626Y671613D01*
X30592Y671797D01*
X30562Y671982D01*
X30537Y672167D01*
X30517Y672353D01*
X30501Y672539D01*
X30489Y672726D01*
X30482Y672913D01*
X30480Y673100D01*
D19*
X38100Y673100D03*
D18*
X30480Y673100D02*
X30482Y673287D01*
X30489Y673474D01*
X30501Y673661D01*
X30517Y673847D01*
X30537Y674033D01*
X30562Y674218D01*
X30592Y674403D01*
X30626Y674587D01*
X30665Y674770D01*
X30708Y674952D01*
X30756Y675132D01*
X30808Y675312D01*
X30865Y675490D01*
X30925Y675667D01*
X30991Y675842D01*
X31060Y676016D01*
X31134Y676188D01*
X31212Y676358D01*
X31294Y676526D01*
X31380Y676692D01*
X31470Y676856D01*
X31564Y677017D01*
X31662Y677177D01*
X31764Y677333D01*
X31870Y677488D01*
X31980Y677639D01*
X32093Y677788D01*
X32210Y677934D01*
X32330Y678077D01*
X32454Y678217D01*
X32581Y678354D01*
X32712Y678488D01*
X32846Y678619D01*
X32983Y678746D01*
X33123Y678870D01*
X33266Y678990D01*
X33412Y679107D01*
X33561Y679220D01*
X33712Y679330D01*
X33867Y679436D01*
X34023Y679538D01*
X34183Y679636D01*
X34344Y679730D01*
X34508Y679820D01*
X34674Y679906D01*
X34842Y679988D01*
X35012Y680066D01*
X35184Y680140D01*
X35358Y680209D01*
X35533Y680275D01*
X35710Y680335D01*
X35888Y680392D01*
X36068Y680444D01*
X36248Y680492D01*
X36430Y680535D01*
X36613Y680574D01*
X36797Y680608D01*
X36982Y680638D01*
X37167Y680663D01*
X37353Y680683D01*
X37539Y680699D01*
X37726Y680711D01*
X37913Y680718D01*
X38100Y680720D01*
X38287Y680718D01*
X38474Y680711D01*
X38661Y680699D01*
X38847Y680683D01*
X39033Y680663D01*
X39218Y680638D01*
X39403Y680608D01*
X39587Y680574D01*
X39770Y680535D01*
X39952Y680492D01*
X40132Y680444D01*
X40312Y680392D01*
X40490Y680335D01*
X40667Y680275D01*
X40842Y680209D01*
X41016Y680140D01*
X41188Y680066D01*
X41358Y679988D01*
X41526Y679906D01*
X41692Y679820D01*
X41856Y679730D01*
X42017Y679636D01*
X42177Y679538D01*
X42333Y679436D01*
X42488Y679330D01*
X42639Y679220D01*
X42788Y679107D01*
X42934Y678990D01*
X43077Y678870D01*
X43217Y678746D01*
X43354Y678619D01*
X43488Y678488D01*
X43619Y678354D01*
X43746Y678217D01*
X43870Y678077D01*
X43990Y677934D01*
X44107Y677788D01*
X44220Y677639D01*
X44330Y677488D01*
X44436Y677333D01*
X44538Y677177D01*
X44636Y677017D01*
X44730Y676856D01*
X44820Y676692D01*
X44906Y676526D01*
X44988Y676358D01*
X45066Y676188D01*
X45140Y676016D01*
X45209Y675842D01*
X45275Y675667D01*
X45335Y675490D01*
X45392Y675312D01*
X45444Y675132D01*
X45492Y674952D01*
X45535Y674770D01*
X45574Y674587D01*
X45608Y674403D01*
X45638Y674218D01*
X45663Y674033D01*
X45683Y673847D01*
X45699Y673661D01*
X45711Y673474D01*
X45718Y673287D01*
X45720Y673100D01*
X45718Y672913D01*
X45711Y672726D01*
X45699Y672539D01*
X45683Y672353D01*
X45663Y672167D01*
X45638Y671982D01*
X45608Y671797D01*
X45574Y671613D01*
X45535Y671430D01*
X45492Y671248D01*
X45444Y671068D01*
X45392Y670888D01*
X45335Y670710D01*
X45275Y670533D01*
X45209Y670358D01*
X45140Y670184D01*
X45066Y670012D01*
X44988Y669842D01*
X44906Y669674D01*
X44820Y669508D01*
X44730Y669344D01*
X44636Y669183D01*
X44538Y669023D01*
X44436Y668867D01*
X44330Y668712D01*
X44220Y668561D01*
X44107Y668412D01*
X43990Y668266D01*
X43870Y668123D01*
X43746Y667983D01*
X43619Y667846D01*
X43488Y667712D01*
X43354Y667581D01*
X43217Y667454D01*
X43077Y667330D01*
X42934Y667210D01*
X42788Y667093D01*
X42639Y666980D01*
X42488Y666870D01*
X42333Y666764D01*
X42177Y666662D01*
X42017Y666564D01*
X41856Y666470D01*
X41692Y666380D01*
X41526Y666294D01*
X41358Y666212D01*
X41188Y666134D01*
X41016Y666060D01*
X40842Y665991D01*
X40667Y665925D01*
X40490Y665865D01*
X40312Y665808D01*
X40132Y665756D01*
X39952Y665708D01*
X39770Y665665D01*
X39587Y665626D01*
X39403Y665592D01*
X39218Y665562D01*
X39033Y665537D01*
X38847Y665517D01*
X38661Y665501D01*
X38474Y665489D01*
X38287Y665482D01*
X38100Y665480D01*
X37913Y665482D01*
X37726Y665489D01*
X37539Y665501D01*
X37353Y665517D01*
X37167Y665537D01*
X36982Y665562D01*
X36797Y665592D01*
X36613Y665626D01*
X36430Y665665D01*
X36248Y665708D01*
X36068Y665756D01*
X35888Y665808D01*
X35710Y665865D01*
X35533Y665925D01*
X35358Y665991D01*
X35184Y666060D01*
X35012Y666134D01*
X34842Y666212D01*
X34674Y666294D01*
X34508Y666380D01*
X34344Y666470D01*
X34183Y666564D01*
X34023Y666662D01*
X33867Y666764D01*
X33712Y666870D01*
X33561Y666980D01*
X33412Y667093D01*
X33266Y667210D01*
X33123Y667330D01*
X32983Y667454D01*
X32846Y667581D01*
X32712Y667712D01*
X32581Y667846D01*
X32454Y667983D01*
X32330Y668123D01*
X32210Y668266D01*
X32093Y668412D01*
X31980Y668561D01*
X31870Y668712D01*
X31764Y668867D01*
X31662Y669023D01*
X31564Y669183D01*
X31470Y669344D01*
X31380Y669508D01*
X31294Y669674D01*
X31212Y669842D01*
X31134Y670012D01*
X31060Y670184D01*
X30991Y670358D01*
X30925Y670533D01*
X30865Y670710D01*
X30808Y670888D01*
X30756Y671068D01*
X30708Y671248D01*
X30665Y671430D01*
X30626Y671613D01*
X30592Y671797D01*
X30562Y671982D01*
X30537Y672167D01*
X30517Y672353D01*
X30501Y672539D01*
X30489Y672726D01*
X30482Y672913D01*
X30480Y673100D01*
D19*
X38100Y673100D03*
D18*
X30480Y88900D02*
X30482Y89087D01*
X30489Y89274D01*
X30501Y89461D01*
X30517Y89647D01*
X30537Y89833D01*
X30562Y90018D01*
X30592Y90203D01*
X30626Y90387D01*
X30665Y90570D01*
X30708Y90752D01*
X30756Y90932D01*
X30808Y91112D01*
X30865Y91290D01*
X30925Y91467D01*
X30991Y91642D01*
X31060Y91816D01*
X31134Y91988D01*
X31212Y92158D01*
X31294Y92326D01*
X31380Y92492D01*
X31470Y92656D01*
X31564Y92817D01*
X31662Y92977D01*
X31764Y93133D01*
X31870Y93288D01*
X31980Y93439D01*
X32093Y93588D01*
X32210Y93734D01*
X32330Y93877D01*
X32454Y94017D01*
X32581Y94154D01*
X32712Y94288D01*
X32846Y94419D01*
X32983Y94546D01*
X33123Y94670D01*
X33266Y94790D01*
X33412Y94907D01*
X33561Y95020D01*
X33712Y95130D01*
X33867Y95236D01*
X34023Y95338D01*
X34183Y95436D01*
X34344Y95530D01*
X34508Y95620D01*
X34674Y95706D01*
X34842Y95788D01*
X35012Y95866D01*
X35184Y95940D01*
X35358Y96009D01*
X35533Y96075D01*
X35710Y96135D01*
X35888Y96192D01*
X36068Y96244D01*
X36248Y96292D01*
X36430Y96335D01*
X36613Y96374D01*
X36797Y96408D01*
X36982Y96438D01*
X37167Y96463D01*
X37353Y96483D01*
X37539Y96499D01*
X37726Y96511D01*
X37913Y96518D01*
X38100Y96520D01*
X38287Y96518D01*
X38474Y96511D01*
X38661Y96499D01*
X38847Y96483D01*
X39033Y96463D01*
X39218Y96438D01*
X39403Y96408D01*
X39587Y96374D01*
X39770Y96335D01*
X39952Y96292D01*
X40132Y96244D01*
X40312Y96192D01*
X40490Y96135D01*
X40667Y96075D01*
X40842Y96009D01*
X41016Y95940D01*
X41188Y95866D01*
X41358Y95788D01*
X41526Y95706D01*
X41692Y95620D01*
X41856Y95530D01*
X42017Y95436D01*
X42177Y95338D01*
X42333Y95236D01*
X42488Y95130D01*
X42639Y95020D01*
X42788Y94907D01*
X42934Y94790D01*
X43077Y94670D01*
X43217Y94546D01*
X43354Y94419D01*
X43488Y94288D01*
X43619Y94154D01*
X43746Y94017D01*
X43870Y93877D01*
X43990Y93734D01*
X44107Y93588D01*
X44220Y93439D01*
X44330Y93288D01*
X44436Y93133D01*
X44538Y92977D01*
X44636Y92817D01*
X44730Y92656D01*
X44820Y92492D01*
X44906Y92326D01*
X44988Y92158D01*
X45066Y91988D01*
X45140Y91816D01*
X45209Y91642D01*
X45275Y91467D01*
X45335Y91290D01*
X45392Y91112D01*
X45444Y90932D01*
X45492Y90752D01*
X45535Y90570D01*
X45574Y90387D01*
X45608Y90203D01*
X45638Y90018D01*
X45663Y89833D01*
X45683Y89647D01*
X45699Y89461D01*
X45711Y89274D01*
X45718Y89087D01*
X45720Y88900D01*
X45718Y88713D01*
X45711Y88526D01*
X45699Y88339D01*
X45683Y88153D01*
X45663Y87967D01*
X45638Y87782D01*
X45608Y87597D01*
X45574Y87413D01*
X45535Y87230D01*
X45492Y87048D01*
X45444Y86868D01*
X45392Y86688D01*
X45335Y86510D01*
X45275Y86333D01*
X45209Y86158D01*
X45140Y85984D01*
X45066Y85812D01*
X44988Y85642D01*
X44906Y85474D01*
X44820Y85308D01*
X44730Y85144D01*
X44636Y84983D01*
X44538Y84823D01*
X44436Y84667D01*
X44330Y84512D01*
X44220Y84361D01*
X44107Y84212D01*
X43990Y84066D01*
X43870Y83923D01*
X43746Y83783D01*
X43619Y83646D01*
X43488Y83512D01*
X43354Y83381D01*
X43217Y83254D01*
X43077Y83130D01*
X42934Y83010D01*
X42788Y82893D01*
X42639Y82780D01*
X42488Y82670D01*
X42333Y82564D01*
X42177Y82462D01*
X42017Y82364D01*
X41856Y82270D01*
X41692Y82180D01*
X41526Y82094D01*
X41358Y82012D01*
X41188Y81934D01*
X41016Y81860D01*
X40842Y81791D01*
X40667Y81725D01*
X40490Y81665D01*
X40312Y81608D01*
X40132Y81556D01*
X39952Y81508D01*
X39770Y81465D01*
X39587Y81426D01*
X39403Y81392D01*
X39218Y81362D01*
X39033Y81337D01*
X38847Y81317D01*
X38661Y81301D01*
X38474Y81289D01*
X38287Y81282D01*
X38100Y81280D01*
X37913Y81282D01*
X37726Y81289D01*
X37539Y81301D01*
X37353Y81317D01*
X37167Y81337D01*
X36982Y81362D01*
X36797Y81392D01*
X36613Y81426D01*
X36430Y81465D01*
X36248Y81508D01*
X36068Y81556D01*
X35888Y81608D01*
X35710Y81665D01*
X35533Y81725D01*
X35358Y81791D01*
X35184Y81860D01*
X35012Y81934D01*
X34842Y82012D01*
X34674Y82094D01*
X34508Y82180D01*
X34344Y82270D01*
X34183Y82364D01*
X34023Y82462D01*
X33867Y82564D01*
X33712Y82670D01*
X33561Y82780D01*
X33412Y82893D01*
X33266Y83010D01*
X33123Y83130D01*
X32983Y83254D01*
X32846Y83381D01*
X32712Y83512D01*
X32581Y83646D01*
X32454Y83783D01*
X32330Y83923D01*
X32210Y84066D01*
X32093Y84212D01*
X31980Y84361D01*
X31870Y84512D01*
X31764Y84667D01*
X31662Y84823D01*
X31564Y84983D01*
X31470Y85144D01*
X31380Y85308D01*
X31294Y85474D01*
X31212Y85642D01*
X31134Y85812D01*
X31060Y85984D01*
X30991Y86158D01*
X30925Y86333D01*
X30865Y86510D01*
X30808Y86688D01*
X30756Y86868D01*
X30708Y87048D01*
X30665Y87230D01*
X30626Y87413D01*
X30592Y87597D01*
X30562Y87782D01*
X30537Y87967D01*
X30517Y88153D01*
X30501Y88339D01*
X30489Y88526D01*
X30482Y88713D01*
X30480Y88900D01*
D19*
X38100Y88900D03*
D18*
X957580Y673100D02*
X957582Y673287D01*
X957589Y673474D01*
X957601Y673661D01*
X957617Y673847D01*
X957637Y674033D01*
X957662Y674218D01*
X957692Y674403D01*
X957726Y674587D01*
X957765Y674770D01*
X957808Y674952D01*
X957856Y675132D01*
X957908Y675312D01*
X957965Y675490D01*
X958025Y675667D01*
X958091Y675842D01*
X958160Y676016D01*
X958234Y676188D01*
X958312Y676358D01*
X958394Y676526D01*
X958480Y676692D01*
X958570Y676856D01*
X958664Y677017D01*
X958762Y677177D01*
X958864Y677333D01*
X958970Y677488D01*
X959080Y677639D01*
X959193Y677788D01*
X959310Y677934D01*
X959430Y678077D01*
X959554Y678217D01*
X959681Y678354D01*
X959812Y678488D01*
X959946Y678619D01*
X960083Y678746D01*
X960223Y678870D01*
X960366Y678990D01*
X960512Y679107D01*
X960661Y679220D01*
X960812Y679330D01*
X960967Y679436D01*
X961123Y679538D01*
X961283Y679636D01*
X961444Y679730D01*
X961608Y679820D01*
X961774Y679906D01*
X961942Y679988D01*
X962112Y680066D01*
X962284Y680140D01*
X962458Y680209D01*
X962633Y680275D01*
X962810Y680335D01*
X962988Y680392D01*
X963168Y680444D01*
X963348Y680492D01*
X963530Y680535D01*
X963713Y680574D01*
X963897Y680608D01*
X964082Y680638D01*
X964267Y680663D01*
X964453Y680683D01*
X964639Y680699D01*
X964826Y680711D01*
X965013Y680718D01*
X965200Y680720D01*
X965387Y680718D01*
X965574Y680711D01*
X965761Y680699D01*
X965947Y680683D01*
X966133Y680663D01*
X966318Y680638D01*
X966503Y680608D01*
X966687Y680574D01*
X966870Y680535D01*
X967052Y680492D01*
X967232Y680444D01*
X967412Y680392D01*
X967590Y680335D01*
X967767Y680275D01*
X967942Y680209D01*
X968116Y680140D01*
X968288Y680066D01*
X968458Y679988D01*
X968626Y679906D01*
X968792Y679820D01*
X968956Y679730D01*
X969117Y679636D01*
X969277Y679538D01*
X969433Y679436D01*
X969588Y679330D01*
X969739Y679220D01*
X969888Y679107D01*
X970034Y678990D01*
X970177Y678870D01*
X970317Y678746D01*
X970454Y678619D01*
X970588Y678488D01*
X970719Y678354D01*
X970846Y678217D01*
X970970Y678077D01*
X971090Y677934D01*
X971207Y677788D01*
X971320Y677639D01*
X971430Y677488D01*
X971536Y677333D01*
X971638Y677177D01*
X971736Y677017D01*
X971830Y676856D01*
X971920Y676692D01*
X972006Y676526D01*
X972088Y676358D01*
X972166Y676188D01*
X972240Y676016D01*
X972309Y675842D01*
X972375Y675667D01*
X972435Y675490D01*
X972492Y675312D01*
X972544Y675132D01*
X972592Y674952D01*
X972635Y674770D01*
X972674Y674587D01*
X972708Y674403D01*
X972738Y674218D01*
X972763Y674033D01*
X972783Y673847D01*
X972799Y673661D01*
X972811Y673474D01*
X972818Y673287D01*
X972820Y673100D01*
X972818Y672913D01*
X972811Y672726D01*
X972799Y672539D01*
X972783Y672353D01*
X972763Y672167D01*
X972738Y671982D01*
X972708Y671797D01*
X972674Y671613D01*
X972635Y671430D01*
X972592Y671248D01*
X972544Y671068D01*
X972492Y670888D01*
X972435Y670710D01*
X972375Y670533D01*
X972309Y670358D01*
X972240Y670184D01*
X972166Y670012D01*
X972088Y669842D01*
X972006Y669674D01*
X971920Y669508D01*
X971830Y669344D01*
X971736Y669183D01*
X971638Y669023D01*
X971536Y668867D01*
X971430Y668712D01*
X971320Y668561D01*
X971207Y668412D01*
X971090Y668266D01*
X970970Y668123D01*
X970846Y667983D01*
X970719Y667846D01*
X970588Y667712D01*
X970454Y667581D01*
X970317Y667454D01*
X970177Y667330D01*
X970034Y667210D01*
X969888Y667093D01*
X969739Y666980D01*
X969588Y666870D01*
X969433Y666764D01*
X969277Y666662D01*
X969117Y666564D01*
X968956Y666470D01*
X968792Y666380D01*
X968626Y666294D01*
X968458Y666212D01*
X968288Y666134D01*
X968116Y666060D01*
X967942Y665991D01*
X967767Y665925D01*
X967590Y665865D01*
X967412Y665808D01*
X967232Y665756D01*
X967052Y665708D01*
X966870Y665665D01*
X966687Y665626D01*
X966503Y665592D01*
X966318Y665562D01*
X966133Y665537D01*
X965947Y665517D01*
X965761Y665501D01*
X965574Y665489D01*
X965387Y665482D01*
X965200Y665480D01*
X965013Y665482D01*
X964826Y665489D01*
X964639Y665501D01*
X964453Y665517D01*
X964267Y665537D01*
X964082Y665562D01*
X963897Y665592D01*
X963713Y665626D01*
X963530Y665665D01*
X963348Y665708D01*
X963168Y665756D01*
X962988Y665808D01*
X962810Y665865D01*
X962633Y665925D01*
X962458Y665991D01*
X962284Y666060D01*
X962112Y666134D01*
X961942Y666212D01*
X961774Y666294D01*
X961608Y666380D01*
X961444Y666470D01*
X961283Y666564D01*
X961123Y666662D01*
X960967Y666764D01*
X960812Y666870D01*
X960661Y666980D01*
X960512Y667093D01*
X960366Y667210D01*
X960223Y667330D01*
X960083Y667454D01*
X959946Y667581D01*
X959812Y667712D01*
X959681Y667846D01*
X959554Y667983D01*
X959430Y668123D01*
X959310Y668266D01*
X959193Y668412D01*
X959080Y668561D01*
X958970Y668712D01*
X958864Y668867D01*
X958762Y669023D01*
X958664Y669183D01*
X958570Y669344D01*
X958480Y669508D01*
X958394Y669674D01*
X958312Y669842D01*
X958234Y670012D01*
X958160Y670184D01*
X958091Y670358D01*
X958025Y670533D01*
X957965Y670710D01*
X957908Y670888D01*
X957856Y671068D01*
X957808Y671248D01*
X957765Y671430D01*
X957726Y671613D01*
X957692Y671797D01*
X957662Y671982D01*
X957637Y672167D01*
X957617Y672353D01*
X957601Y672539D01*
X957589Y672726D01*
X957582Y672913D01*
X957580Y673100D01*
D19*
X965200Y673100D03*
D20*
X38100Y38100D03*
X38100Y723900D03*
X965200Y723900D03*
X965200Y38100D03*
D21*
X883412Y38100D03*
X894588Y38100D03*
D18*
X30480Y88900D02*
X30482Y89087D01*
X30489Y89274D01*
X30501Y89461D01*
X30517Y89647D01*
X30537Y89833D01*
X30562Y90018D01*
X30592Y90203D01*
X30626Y90387D01*
X30665Y90570D01*
X30708Y90752D01*
X30756Y90932D01*
X30808Y91112D01*
X30865Y91290D01*
X30925Y91467D01*
X30991Y91642D01*
X31060Y91816D01*
X31134Y91988D01*
X31212Y92158D01*
X31294Y92326D01*
X31380Y92492D01*
X31470Y92656D01*
X31564Y92817D01*
X31662Y92977D01*
X31764Y93133D01*
X31870Y93288D01*
X31980Y93439D01*
X32093Y93588D01*
X32210Y93734D01*
X32330Y93877D01*
X32454Y94017D01*
X32581Y94154D01*
X32712Y94288D01*
X32846Y94419D01*
X32983Y94546D01*
X33123Y94670D01*
X33266Y94790D01*
X33412Y94907D01*
X33561Y95020D01*
X33712Y95130D01*
X33867Y95236D01*
X34023Y95338D01*
X34183Y95436D01*
X34344Y95530D01*
X34508Y95620D01*
X34674Y95706D01*
X34842Y95788D01*
X35012Y95866D01*
X35184Y95940D01*
X35358Y96009D01*
X35533Y96075D01*
X35710Y96135D01*
X35888Y96192D01*
X36068Y96244D01*
X36248Y96292D01*
X36430Y96335D01*
X36613Y96374D01*
X36797Y96408D01*
X36982Y96438D01*
X37167Y96463D01*
X37353Y96483D01*
X37539Y96499D01*
X37726Y96511D01*
X37913Y96518D01*
X38100Y96520D01*
X38287Y96518D01*
X38474Y96511D01*
X38661Y96499D01*
X38847Y96483D01*
X39033Y96463D01*
X39218Y96438D01*
X39403Y96408D01*
X39587Y96374D01*
X39770Y96335D01*
X39952Y96292D01*
X40132Y96244D01*
X40312Y96192D01*
X40490Y96135D01*
X40667Y96075D01*
X40842Y96009D01*
X41016Y95940D01*
X41188Y95866D01*
X41358Y95788D01*
X41526Y95706D01*
X41692Y95620D01*
X41856Y95530D01*
X42017Y95436D01*
X42177Y95338D01*
X42333Y95236D01*
X42488Y95130D01*
X42639Y95020D01*
X42788Y94907D01*
X42934Y94790D01*
X43077Y94670D01*
X43217Y94546D01*
X43354Y94419D01*
X43488Y94288D01*
X43619Y94154D01*
X43746Y94017D01*
X43870Y93877D01*
X43990Y93734D01*
X44107Y93588D01*
X44220Y93439D01*
X44330Y93288D01*
X44436Y93133D01*
X44538Y92977D01*
X44636Y92817D01*
X44730Y92656D01*
X44820Y92492D01*
X44906Y92326D01*
X44988Y92158D01*
X45066Y91988D01*
X45140Y91816D01*
X45209Y91642D01*
X45275Y91467D01*
X45335Y91290D01*
X45392Y91112D01*
X45444Y90932D01*
X45492Y90752D01*
X45535Y90570D01*
X45574Y90387D01*
X45608Y90203D01*
X45638Y90018D01*
X45663Y89833D01*
X45683Y89647D01*
X45699Y89461D01*
X45711Y89274D01*
X45718Y89087D01*
X45720Y88900D01*
X45718Y88713D01*
X45711Y88526D01*
X45699Y88339D01*
X45683Y88153D01*
X45663Y87967D01*
X45638Y87782D01*
X45608Y87597D01*
X45574Y87413D01*
X45535Y87230D01*
X45492Y87048D01*
X45444Y86868D01*
X45392Y86688D01*
X45335Y86510D01*
X45275Y86333D01*
X45209Y86158D01*
X45140Y85984D01*
X45066Y85812D01*
X44988Y85642D01*
X44906Y85474D01*
X44820Y85308D01*
X44730Y85144D01*
X44636Y84983D01*
X44538Y84823D01*
X44436Y84667D01*
X44330Y84512D01*
X44220Y84361D01*
X44107Y84212D01*
X43990Y84066D01*
X43870Y83923D01*
X43746Y83783D01*
X43619Y83646D01*
X43488Y83512D01*
X43354Y83381D01*
X43217Y83254D01*
X43077Y83130D01*
X42934Y83010D01*
X42788Y82893D01*
X42639Y82780D01*
X42488Y82670D01*
X42333Y82564D01*
X42177Y82462D01*
X42017Y82364D01*
X41856Y82270D01*
X41692Y82180D01*
X41526Y82094D01*
X41358Y82012D01*
X41188Y81934D01*
X41016Y81860D01*
X40842Y81791D01*
X40667Y81725D01*
X40490Y81665D01*
X40312Y81608D01*
X40132Y81556D01*
X39952Y81508D01*
X39770Y81465D01*
X39587Y81426D01*
X39403Y81392D01*
X39218Y81362D01*
X39033Y81337D01*
X38847Y81317D01*
X38661Y81301D01*
X38474Y81289D01*
X38287Y81282D01*
X38100Y81280D01*
X37913Y81282D01*
X37726Y81289D01*
X37539Y81301D01*
X37353Y81317D01*
X37167Y81337D01*
X36982Y81362D01*
X36797Y81392D01*
X36613Y81426D01*
X36430Y81465D01*
X36248Y81508D01*
X36068Y81556D01*
X35888Y81608D01*
X35710Y81665D01*
X35533Y81725D01*
X35358Y81791D01*
X35184Y81860D01*
X35012Y81934D01*
X34842Y82012D01*
X34674Y82094D01*
X34508Y82180D01*
X34344Y82270D01*
X34183Y82364D01*
X34023Y82462D01*
X33867Y82564D01*
X33712Y82670D01*
X33561Y82780D01*
X33412Y82893D01*
X33266Y83010D01*
X33123Y83130D01*
X32983Y83254D01*
X32846Y83381D01*
X32712Y83512D01*
X32581Y83646D01*
X32454Y83783D01*
X32330Y83923D01*
X32210Y84066D01*
X32093Y84212D01*
X31980Y84361D01*
X31870Y84512D01*
X31764Y84667D01*
X31662Y84823D01*
X31564Y84983D01*
X31470Y85144D01*
X31380Y85308D01*
X31294Y85474D01*
X31212Y85642D01*
X31134Y85812D01*
X31060Y85984D01*
X30991Y86158D01*
X30925Y86333D01*
X30865Y86510D01*
X30808Y86688D01*
X30756Y86868D01*
X30708Y87048D01*
X30665Y87230D01*
X30626Y87413D01*
X30592Y87597D01*
X30562Y87782D01*
X30537Y87967D01*
X30517Y88153D01*
X30501Y88339D01*
X30489Y88526D01*
X30482Y88713D01*
X30480Y88900D01*
D19*
X38100Y88900D03*
D18*
X957580Y673100D02*
X957582Y673287D01*
X957589Y673474D01*
X957601Y673661D01*
X957617Y673847D01*
X957637Y674033D01*
X957662Y674218D01*
X957692Y674403D01*
X957726Y674587D01*
X957765Y674770D01*
X957808Y674952D01*
X957856Y675132D01*
X957908Y675312D01*
X957965Y675490D01*
X958025Y675667D01*
X958091Y675842D01*
X958160Y676016D01*
X958234Y676188D01*
X958312Y676358D01*
X958394Y676526D01*
X958480Y676692D01*
X958570Y676856D01*
X958664Y677017D01*
X958762Y677177D01*
X958864Y677333D01*
X958970Y677488D01*
X959080Y677639D01*
X959193Y677788D01*
X959310Y677934D01*
X959430Y678077D01*
X959554Y678217D01*
X959681Y678354D01*
X959812Y678488D01*
X959946Y678619D01*
X960083Y678746D01*
X960223Y678870D01*
X960366Y678990D01*
X960512Y679107D01*
X960661Y679220D01*
X960812Y679330D01*
X960967Y679436D01*
X961123Y679538D01*
X961283Y679636D01*
X961444Y679730D01*
X961608Y679820D01*
X961774Y679906D01*
X961942Y679988D01*
X962112Y680066D01*
X962284Y680140D01*
X962458Y680209D01*
X962633Y680275D01*
X962810Y680335D01*
X962988Y680392D01*
X963168Y680444D01*
X963348Y680492D01*
X963530Y680535D01*
X963713Y680574D01*
X963897Y680608D01*
X964082Y680638D01*
X964267Y680663D01*
X964453Y680683D01*
X964639Y680699D01*
X964826Y680711D01*
X965013Y680718D01*
X965200Y680720D01*
X965387Y680718D01*
X965574Y680711D01*
X965761Y680699D01*
X965947Y680683D01*
X966133Y680663D01*
X966318Y680638D01*
X966503Y680608D01*
X966687Y680574D01*
X966870Y680535D01*
X967052Y680492D01*
X967232Y680444D01*
X967412Y680392D01*
X967590Y680335D01*
X967767Y680275D01*
X967942Y680209D01*
X968116Y680140D01*
X968288Y680066D01*
X968458Y679988D01*
X968626Y679906D01*
X968792Y679820D01*
X968956Y679730D01*
X969117Y679636D01*
X969277Y679538D01*
X969433Y679436D01*
X969588Y679330D01*
X969739Y679220D01*
X969888Y679107D01*
X970034Y678990D01*
X970177Y678870D01*
X970317Y678746D01*
X970454Y678619D01*
X970588Y678488D01*
X970719Y678354D01*
X970846Y678217D01*
X970970Y678077D01*
X971090Y677934D01*
X971207Y677788D01*
X971320Y677639D01*
X971430Y677488D01*
X971536Y677333D01*
X971638Y677177D01*
X971736Y677017D01*
X971830Y676856D01*
X971920Y676692D01*
X972006Y676526D01*
X972088Y676358D01*
X972166Y676188D01*
X972240Y676016D01*
X972309Y675842D01*
X972375Y675667D01*
X972435Y675490D01*
X972492Y675312D01*
X972544Y675132D01*
X972592Y674952D01*
X972635Y674770D01*
X972674Y674587D01*
X972708Y674403D01*
X972738Y674218D01*
X972763Y674033D01*
X972783Y673847D01*
X972799Y673661D01*
X972811Y673474D01*
X972818Y673287D01*
X972820Y673100D01*
X972818Y672913D01*
X972811Y672726D01*
X972799Y672539D01*
X972783Y672353D01*
X972763Y672167D01*
X972738Y671982D01*
X972708Y671797D01*
X972674Y671613D01*
X972635Y671430D01*
X972592Y671248D01*
X972544Y671068D01*
X972492Y670888D01*
X972435Y670710D01*
X972375Y670533D01*
X972309Y670358D01*
X972240Y670184D01*
X972166Y670012D01*
X972088Y669842D01*
X972006Y669674D01*
X971920Y669508D01*
X971830Y669344D01*
X971736Y669183D01*
X971638Y669023D01*
X971536Y668867D01*
X971430Y668712D01*
X971320Y668561D01*
X971207Y668412D01*
X971090Y668266D01*
X970970Y668123D01*
X970846Y667983D01*
X970719Y667846D01*
X970588Y667712D01*
X970454Y667581D01*
X970317Y667454D01*
X970177Y667330D01*
X970034Y667210D01*
X969888Y667093D01*
X969739Y666980D01*
X969588Y666870D01*
X969433Y666764D01*
X969277Y666662D01*
X969117Y666564D01*
X968956Y666470D01*
X968792Y666380D01*
X968626Y666294D01*
X968458Y666212D01*
X968288Y666134D01*
X968116Y666060D01*
X967942Y665991D01*
X967767Y665925D01*
X967590Y665865D01*
X967412Y665808D01*
X967232Y665756D01*
X967052Y665708D01*
X966870Y665665D01*
X966687Y665626D01*
X966503Y665592D01*
X966318Y665562D01*
X966133Y665537D01*
X965947Y665517D01*
X965761Y665501D01*
X965574Y665489D01*
X965387Y665482D01*
X965200Y665480D01*
X965013Y665482D01*
X964826Y665489D01*
X964639Y665501D01*
X964453Y665517D01*
X964267Y665537D01*
X964082Y665562D01*
X963897Y665592D01*
X963713Y665626D01*
X963530Y665665D01*
X963348Y665708D01*
X963168Y665756D01*
X962988Y665808D01*
X962810Y665865D01*
X962633Y665925D01*
X962458Y665991D01*
X962284Y666060D01*
X962112Y666134D01*
X961942Y666212D01*
X961774Y666294D01*
X961608Y666380D01*
X961444Y666470D01*
X961283Y666564D01*
X961123Y666662D01*
X960967Y666764D01*
X960812Y666870D01*
X960661Y666980D01*
X960512Y667093D01*
X960366Y667210D01*
X960223Y667330D01*
X960083Y667454D01*
X959946Y667581D01*
X959812Y667712D01*
X959681Y667846D01*
X959554Y667983D01*
X959430Y668123D01*
X959310Y668266D01*
X959193Y668412D01*
X959080Y668561D01*
X958970Y668712D01*
X958864Y668867D01*
X958762Y669023D01*
X958664Y669183D01*
X958570Y669344D01*
X958480Y669508D01*
X958394Y669674D01*
X958312Y669842D01*
X958234Y670012D01*
X958160Y670184D01*
X958091Y670358D01*
X958025Y670533D01*
X957965Y670710D01*
X957908Y670888D01*
X957856Y671068D01*
X957808Y671248D01*
X957765Y671430D01*
X957726Y671613D01*
X957692Y671797D01*
X957662Y671982D01*
X957637Y672167D01*
X957617Y672353D01*
X957601Y672539D01*
X957589Y672726D01*
X957582Y672913D01*
X957580Y673100D01*
D19*
X965200Y673100D03*
M02*
