M48
;GenerationSoftware,Autodesk,EAGLE,9.6.2*%
;CreationDate,2023-12-12T19:22:00Z*%
FMAT,2
ICI,OFF
METRIC,TZ,000.000
T7C0.305
T6C0.800
T5C0.889
T4C1.020
T3C1.400
T2C2.540
T1C3.175
%
G90
M71
T1
X96520Y3810
X96520Y72390
X3810Y72390
X3810Y3810
T2
X67945Y23241
X67945Y70739
X10795Y23241
X10795Y70739
T3
X58520Y12660
X58520Y7660
X71020Y7660
X71020Y12660
X45620Y7660
X45620Y12660
X33120Y12660
X33120Y7660
X22760Y7660
X10260Y7660
X10260Y12660
X78840Y38060
X78840Y33060
X91340Y33060
X91340Y38060
X22760Y12660
T4
X35560Y71120
X38100Y71120
X40640Y71120
X43180Y71120
X45720Y71120
X48260Y71120
X50800Y71120
X53340Y71120
X33020Y71120
X58420Y71120
X60960Y71120
X63500Y71120
X15240Y22860
X17780Y22860
X20320Y22860
X22860Y22860
X25400Y22860
X27940Y22860
X30480Y22860
X33020Y22860
X35560Y22860
X38100Y22860
X60960Y22860
X58420Y22860
X55880Y22860
X53340Y22860
X50800Y22860
X48260Y22860
X45720Y22860
X43180Y22860
X40640Y22860
X63500Y22860
X30480Y71120
X27940Y71120
X25400Y71120
X22860Y71120
X20320Y71120
X17780Y71120
X15240Y71120
X55880Y71120
T5
X42350Y59410
X42350Y61950
X39810Y59410
X39810Y61950
X37270Y59410
X37270Y61950
X34730Y59410
X34730Y61950
X32190Y59410
X32190Y61950
X29650Y59410
X29650Y61950
X27110Y59410
X27110Y61950
X24570Y59410
X24570Y61950
X22030Y59410
X22030Y61950
X19490Y59410
X19490Y61950
X16950Y59410
X16950Y61950
X44890Y61950
X44890Y59410
X47430Y61950
X47430Y59410
X49970Y61950
X49970Y59410
X52510Y61950
X52510Y59410
X55050Y61950
X55050Y59410
X57590Y61950
X57590Y59410
X60130Y61950
X60130Y59410
X16950Y36550
X16950Y34010
X19490Y36550
X19490Y34010
X22030Y36550
X22030Y34010
X24570Y36550
X24570Y34010
X27110Y36550
X27110Y34010
X29650Y36550
X29650Y34010
X32190Y36550
X32190Y34010
X34730Y36550
X34730Y34010
X37270Y36550
X37270Y34010
X39810Y36550
X39810Y34010
X42350Y36550
X42350Y34010
X44890Y36550
X44890Y34010
X47430Y36550
X47430Y34010
X49970Y36550
X49970Y34010
X52510Y36550
X52510Y34010
X55050Y36550
X55050Y34010
X57590Y36550
X57590Y34010
X60130Y36550
X60130Y34010
T6
X85090Y55170
X85090Y61670
T7
X85090Y52070
X77470Y60960
X53340Y17780
X40640Y17780
X27940Y17780
X63500Y74930
X88900Y6350
X31750Y7620
X85090Y64770
X92710Y38100
X24130Y12700
X72390Y12700
M30